<svg id="Layer_1" data-name="Layer 1" xmlns="http://www.w3.org/2000/svg" viewBox="0 0 83.27 48"><defs><style>.cls-1{fill:#ffc70b;}</style></defs><title>sunlight</title><path class="cls-1" d="M82.57,23.44a1.51,1.51,0,0,1-.55,2l-10.39,6a1.5,1.5,0,1,1-1.5-2.6l10.39-6A1.5,1.5,0,0,1,82.57,23.44Z" transform="translate(-0.25 -0.25)"/><path class="cls-1" d="M82,45.25a1.5,1.5,0,0,1,0,3H1.75a1.5,1.5,0,0,1,0-3h15a25.61,25.61,0,0,1,51.12,0Zm-62.31,0h45.1a22.61,22.61,0,0,0-45.1,0Z" transform="translate(-0.25 -0.25)"/><path class="cls-1" d="M65.52,6.44a1.51,1.51,0,0,1,.55,2.05l-6,10.4a1.5,1.5,0,0,1-2.6-1.5l6-10.4A1.51,1.51,0,0,1,65.52,6.44Z" transform="translate(-0.25 -0.25)"/><path class="cls-1" d="M64.81,45.25H19.71a22.61,22.61,0,0,1,45.1,0Z" transform="translate(-0.25 -0.25)"/><path class="cls-1" d="M43.76,1.75v12a1.5,1.5,0,0,1-3,0v-12a1.5,1.5,0,0,1,3,0Z" transform="translate(-0.25 -0.25)"/><path class="cls-1" d="M27.05,17.39a1.5,1.5,0,0,1-2.6,1.5l-6-10.4A1.5,1.5,0,1,1,21.05,7Z" transform="translate(-0.25 -0.25)"/><path class="cls-1" d="M14.4,28.89a1.5,1.5,0,0,1-1.5,2.6l-10.4-6a1.51,1.51,0,0,1-.55-2A1.5,1.5,0,0,1,4,22.89Z" transform="translate(-0.25 -0.25)"/></svg>