<?xml version="1.0" encoding="UTF-8" standalone="no"?>
<!DOCTYPE svg PUBLIC "-//W3C//DTD SVG 1.1//EN" "http://www.w3.org/Graphics/SVG/1.1/DTD/svg11.dtd">
<svg xmlns="http://www.w3.org/2000/svg">
<metadata/>
<defs>
<font id="bariol_boldbold_italic" horiz-adv-x="485">
<font-face units-per-em="1000" ascent="787" descent="-213"/>
<missing-glyph horiz-adv-x="226"/>
<glyph unicode="..." horiz-adv-x="724" d="M360 -8q-56 0 -56 51q0 39 20.5 60t58.5 21q55 0 55 -52q0 -80 -78 -80zM610 -8q-56 0 -56 51q0 39 20.5 60t58.5 21q55 0 55 -52q0 -80 -78 -80zM111 -8q-56 0 -56 51q0 39 20.5 60t58.5 21q55 0 55 -52q0 -80 -78 -80z"/>
<glyph unicode="ff" horiz-adv-x="629" d="M452 364h-199l-62 -357q-16 -92 -72.5 -150t-156.5 -58q-17 0 -28.5 11.5t-11.5 28.5q0 22 17 38t39 16q85 0 104 108l63 363h-20q-16 0 -27 11t-11 27q0 21 16.5 36.5t37.5 15.5h20l10 54q14 78 68.5 127.5t153.5 49.5q17 0 28.5 -11.5t11.5 -28.5q0 -22 -17 -38 t-39 -16q-40 0 -65 -20.5t-31 -54.5l-11 -62h198l10 54q14 78 68.5 127.5t153.5 49.5q17 0 28.5 -11.5t11.5 -28.5q0 -22 -17 -38t-39 -16q-40 0 -65 -20.5t-31 -54.5l-11 -62h67q16 0 26.5 -11t10.5 -27q0 -21 -16 -36.5t-37 -15.5h-68l-62 -357q-16 -92 -72.5 -150 t-156.5 -58q-17 0 -28.5 11.5t-11.5 28.5q0 22 17 38t39 16q85 0 104 108z"/>
<glyph unicode="fi" horiz-adv-x="524" d="M377 586q-83 0 -96 -70l-11 -62h231q22 0 35 -15.5t9 -38.5l-62 -354q-4 -22 -22.5 -38t-41.5 -16q-22 0 -35 15.5t-9 38.5l56 318h-178l-62 -357q-16 -92 -72.5 -150t-156.5 -58q-17 0 -28.5 11.5t-11.5 28.5q0 22 17 38t39 16q85 0 104 108l63 363h-20q-16 0 -27 11 t-11 27q0 21 16.5 36.5t37.5 15.5h20l10 54q14 78 68.5 127.5t153.5 49.5q69 0 112 -26q25 -15 25 -42q0 -21 -15 -36t-36 -15q-7 0 -28 7q-38 13 -74 13z"/>
<glyph unicode="fl" horiz-adv-x="555" d="M431 364h-178l-62 -357q-16 -92 -72.5 -150t-156.5 -58q-17 0 -28.5 11.5t-11.5 28.5q0 22 17 38t39 16q85 0 104 108l63 363h-20q-16 0 -27 11t-11 27q0 21 16.5 36.5t37.5 15.5h20l10 54q14 78 68.5 127.5t153.5 49.5q89 0 166 -48q25 -16 19 -47l-84 -476 q-2 -11 3.5 -16.5t12.5 -5.5q19 0 30.5 -11.5t11.5 -29.5q0 -24 -18 -41.5t-46 -17.5q-103 0 -103 96q0 14 3 32zM447 454l20 111q-37 21 -90 21q-83 0 -96 -70l-11 -62h177z"/>
<glyph unicode="ffi" horiz-adv-x="832" d="M684 586q-83 0 -96 -70l-11 -62h231q22 0 35 -15.5t9 -38.5l-62 -354q-4 -22 -22.5 -38t-41.5 -16q-22 0 -35 15.5t-9 38.5l56 318h-178l-62 -357q-16 -92 -72.5 -150t-156.5 -58q-17 0 -28.5 11.5t-11.5 28.5q0 22 17 38t39 16q85 0 104 108l63 363h-199l-62 -357 q-16 -92 -72.5 -150t-156.5 -58q-17 0 -28.5 11.5t-11.5 28.5q0 22 17 38t39 16q85 0 104 108l63 363h-20q-16 0 -27 11t-11 27q0 21 16.5 36.5t37.5 15.5h20l10 54q14 78 68.5 127.5t153.5 49.5q17 0 28.5 -11.5t11.5 -28.5q0 -22 -17 -38t-39 -16q-40 0 -65 -20.5 t-31 -54.5l-11 -62h198l10 54q14 78 68.5 127.5t153.5 49.5q69 0 112 -26q25 -15 25 -42q0 -21 -15 -36t-36 -15q-7 0 -28 7q-38 13 -74 13z"/>
<glyph unicode="ffl" horiz-adv-x="862" d="M738 364h-178l-62 -357q-16 -92 -72.5 -150t-156.5 -58q-17 0 -28.5 11.5t-11.5 28.5q0 22 17 38t39 16q85 0 104 108l63 363h-199l-62 -357q-16 -92 -72.5 -150t-156.5 -58q-17 0 -28.5 11.5t-11.5 28.5q0 22 17 38t39 16q85 0 104 108l63 363h-20q-16 0 -27 11t-11 27 q0 21 16.5 36.5t37.5 15.5h20l10 54q14 78 68.5 127.5t153.5 49.5q17 0 28.5 -11.5t11.5 -28.5q0 -22 -17 -38t-39 -16q-40 0 -65 -20.5t-31 -54.5l-11 -62h198l10 54q14 78 68.5 127.5t153.5 49.5q89 0 166 -48q25 -16 19 -47l-84 -476q-2 -11 3.5 -16.5t12.5 -5.5 q19 0 30.5 -11.5t11.5 -29.5q0 -24 -18 -41.5t-46 -17.5q-103 0 -103 96q0 14 3 32zM754 454l20 111q-37 21 -90 21q-83 0 -96 -70l-11 -62h177z"/>
<glyph unicode="fj" horiz-adv-x="524" d="M365 -8l65 372h-177l-62 -357q-16 -92 -72.5 -150t-156.5 -58q-17 0 -28.5 11.5t-11.5 28.5q0 22 17 38t39 16q85 0 104 108l63 363h-20q-16 0 -27 11t-11 27q0 21 16.5 36.5t37.5 15.5h20l10 54q14 78 68.5 127.5t153.5 49.5q69 0 112 -26q25 -15 25 -42q0 -21 -15 -36 t-36 -15q-7 0 -28 7q-38 13 -74 13q-83 0 -96 -70l-11 -62h231q22 0 35 -15.5t9 -38.5l-72 -408q-12 -67 -66 -112.5t-124 -45.5q-18 0 -30 12.5t-12 30.5q0 23 17.5 40t42.5 17q24 0 41.5 16.5t22.5 41.5z"/>
<glyph unicode="fb" horiz-adv-x="817" d="M580 598l-30 -170q46 40 117 40q76 0 121.5 -44t45.5 -130q0 -141 -67.5 -224t-186.5 -83q-83 0 -133.5 39.5t-50.5 114.5q0 25 4 46l67 383q-48 16 -90 16q-83 0 -96 -70l-11 -62h67q16 0 26.5 -11t10.5 -27q0 -21 -16 -36.5t-37 -15.5h-68l-62 -357q-16 -92 -72.5 -150 t-156.5 -58q-17 0 -28.5 11.5t-11.5 28.5q0 22 17 38t39 16q85 0 104 108l63 363h-20q-16 0 -27 11t-11 27q0 21 16.5 36.5t37.5 15.5h20l10 54q14 78 68.5 127.5t153.5 49.5q57 0 101.5 -12.5t66.5 -27.5q24 -17 19 -47zM532 325l-24 -133q-4 -21 -4 -41q0 -72 83 -72 q64 0 101 57t37 142q0 98 -85 98q-32 0 -59 -13t-38 -25z"/>
<glyph unicode="ffb" horiz-adv-x="1124" d="M887 598l-30 -170q46 40 117 40q76 0 121.5 -44t45.5 -130q0 -141 -67.5 -224t-186.5 -83q-83 0 -133.5 39.5t-50.5 114.5q0 25 4 46l67 383q-48 16 -90 16q-83 0 -96 -70l-11 -62h67q16 0 26.5 -11t10.5 -27q0 -21 -16 -36.5t-37 -15.5h-68l-62 -357q-16 -92 -72.5 -150 t-156.5 -58q-17 0 -28.5 11.5t-11.5 28.5q0 22 17 38t39 16q85 0 104 108l63 363h-199l-62 -357q-16 -92 -72.5 -150t-156.5 -58q-17 0 -28.5 11.5t-11.5 28.5q0 22 17 38t39 16q85 0 104 108l63 363h-20q-16 0 -27 11t-11 27q0 21 16.5 36.5t37.5 15.5h20l10 54 q14 78 68.5 127.5t153.5 49.5q17 0 28.5 -11.5t11.5 -28.5q0 -22 -17 -38t-39 -16q-40 0 -65 -20.5t-31 -54.5l-11 -62h198l10 54q14 78 68.5 127.5t153.5 49.5q110 0 168 -40q24 -17 19 -47zM839 325l-24 -133q-4 -21 -4 -41q0 -72 83 -72q64 0 101 57t37 142q0 98 -85 98 q-32 0 -59 -13t-38 -25z"/>
<glyph unicode="fh" horiz-adv-x="816" d="M374 44l93 526q-48 16 -90 16q-83 0 -96 -70l-11 -62h67q16 0 26.5 -11t10.5 -27q0 -21 -16 -36.5t-37 -15.5h-68l-62 -357q-16 -92 -72.5 -150t-156.5 -58q-17 0 -28.5 11.5t-11.5 28.5q0 22 17 38t39 16q85 0 104 108l63 363h-20q-16 0 -27 11t-11 27q0 21 16.5 36.5 t37.5 15.5h20l10 54q14 78 68.5 127.5t153.5 49.5q57 0 101.5 -12.5t66.5 -27.5q24 -17 19 -47l-34 -190q52 60 139 60q76 0 109 -35.5t33 -89.5q0 -21 -5 -49l-44 -250q-4 -22 -22 -37t-41 -15q-24 0 -36.5 14.5t-8.5 37.5l41 230q3 15 3 29q0 67 -74 67q-101 0 -118 -103 l-40 -223q-4 -22 -22 -37t-41 -15q-24 0 -36.5 14t-8.5 38z"/>
<glyph unicode="ffh" horiz-adv-x="1123" d="M681 44l93 526q-48 16 -90 16q-83 0 -96 -70l-11 -62h67q16 0 26.5 -11t10.5 -27q0 -21 -16 -36.5t-37 -15.5h-68l-62 -357q-16 -92 -72.5 -150t-156.5 -58q-17 0 -28.5 11.5t-11.5 28.5q0 22 17 38t39 16q85 0 104 108l63 363h-199l-62 -357q-16 -92 -72.5 -150 t-156.5 -58q-17 0 -28.5 11.5t-11.5 28.5q0 22 17 38t39 16q85 0 104 108l63 363h-20q-16 0 -27 11t-11 27q0 21 16.5 36.5t37.5 15.5h20l10 54q14 78 68.5 127.5t153.5 49.5q17 0 28.5 -11.5t11.5 -28.5q0 -22 -17 -38t-39 -16q-40 0 -65 -20.5t-31 -54.5l-11 -62h198 l10 54q14 78 68.5 127.5t153.5 49.5q110 0 168 -40q24 -17 19 -47l-34 -190q52 60 139 60q76 0 109 -35.5t33 -89.5q0 -21 -5 -49l-44 -250q-4 -22 -22 -37t-41 -15q-24 0 -36.5 14.5t-8.5 37.5l41 230q3 15 3 29q0 67 -74 67q-101 0 -118 -103l-40 -223q-4 -22 -22 -37 t-41 -15q-24 0 -36.5 14t-8.5 38z"/>
<glyph unicode="fk" horiz-adv-x="765" d="M374 44l93 526q-48 16 -90 16q-83 0 -96 -70l-11 -62h67q16 0 26.5 -11t10.5 -27q0 -21 -16 -36.5t-37 -15.5h-68l-62 -357q-16 -92 -72.5 -150t-156.5 -58q-17 0 -28.5 11.5t-11.5 28.5q0 22 17 38t39 16q85 0 104 108l63 363h-20q-16 0 -27 11t-11 27q0 21 16.5 36.5 t37.5 15.5h20l10 54q14 78 68.5 127.5t153.5 49.5q57 0 101.5 -12.5t66.5 -27.5q24 -17 19 -47l-51 -291l198 142q19 13 37 13q22 0 37 -15t15 -37q0 -30 -26 -46l-156 -99l116 -192q8 -13 8 -29q0 -22 -15 -37t-37 -15q-30 0 -43 22l-117 199l-40 -27l-24 -142 q-4 -22 -22 -37t-41 -15t-36 14.5t-9 37.5z"/>
<glyph unicode="ffk" horiz-adv-x="1072" d="M887 598l-51 -291l198 142q20 13 37 13q22 0 37 -15t15 -37q0 -30 -26 -46l-156 -99l116 -192q8 -13 8 -29q0 -22 -15 -37t-37 -15q-30 0 -43 22l-117 199l-40 -27l-24 -142q-4 -22 -22 -37t-41 -15t-36 14.5t-9 37.5l93 526q-48 16 -90 16q-83 0 -96 -70l-11 -62h67 q16 0 26.5 -11t10.5 -27q0 -21 -16 -36.5t-37 -15.5h-68l-62 -357q-16 -92 -72.5 -150t-156.5 -58q-17 0 -28.5 11.5t-11.5 28.5q0 22 17 38t39 16q85 0 104 108l63 363h-199l-62 -357q-16 -92 -72.5 -150t-156.5 -58q-17 0 -28.5 11.5t-11.5 28.5q0 22 17 38t39 16 q85 0 104 108l63 363h-20q-16 0 -27 11t-11 27q0 21 16.5 36.5t37.5 15.5h20l10 54q14 78 68.5 127.5t153.5 49.5q17 0 28.5 -11.5t11.5 -28.5q0 -22 -17 -38t-39 -16q-40 0 -65 -20.5t-31 -54.5l-11 -62h198l10 54q14 78 68.5 127.5t153.5 49.5q110 0 168 -40 q24 -17 19 -47z"/>
<glyph unicode="ffj" horiz-adv-x="831" d="M672 -8l65 372h-177l-62 -357q-16 -92 -72.5 -150t-156.5 -58q-17 0 -28.5 11.5t-11.5 28.5q0 22 17 38t39 16q85 0 104 108l63 363h-199l-62 -357q-16 -92 -72.5 -150t-156.5 -58q-17 0 -28.5 11.5t-11.5 28.5q0 22 17 38t39 16q85 0 104 108l63 363h-20q-16 0 -27 11 t-11 27q0 21 16.5 36.5t37.5 15.5h20l10 54q14 78 68.5 127.5t153.5 49.5q17 0 28.5 -11.5t11.5 -28.5q0 -22 -17 -38t-39 -16q-40 0 -65 -20.5t-31 -54.5l-11 -62h198l10 54q14 78 68.5 127.5t153.5 49.5q69 0 112 -26q25 -15 25 -42q0 -21 -15 -36t-36 -15q-7 0 -28 7 q-38 13 -74 13q-83 0 -96 -70l-11 -62h231q22 0 35 -15.5t9 -38.5l-72 -408q-12 -67 -66 -112.5t-124 -45.5q-18 0 -30 12.5t-12 30.5q0 23 17.5 40t42.5 17q24 0 41.5 16.5t22.5 41.5z"/>
<glyph unicode=" " horiz-adv-x="226"/>
<glyph unicode="&#9;" horiz-adv-x="226"/>
<glyph unicode=" " horiz-adv-x="226"/>
<glyph unicode="!" horiz-adv-x="212" d="M227 681q64 0 51 -56l-89 -398q-9 -38 -49 -38q-42 0 -37 38l52 398q7 56 72 56zM105 -8q-56 0 -56 51q0 39 20.5 60t58.5 21q55 0 55 -52q0 -80 -78 -80z"/>
<glyph unicode="&quot;" horiz-adv-x="292" d="M204 681q49 0 40 -41l-37 -160q-8 -36 -45 -36t-32 36l19 160q5 41 55 41zM329 681q49 0 40 -41l-37 -160q-8 -36 -45 -36t-32 36l19 160q5 41 55 41z"/>
<glyph unicode="#" horiz-adv-x="571" d="M289 53l46 137h-81l-55 -162q-14 -39 -54 -39q-18 0 -29 11t-11 29q0 9 6 25l46 136h-32q-16 0 -27 11t-11 27q0 21 16.5 36.5t37.5 15.5h46l31 95h-37q-16 0 -26.5 11t-10.5 27q0 21 16 36.5t37 15.5h51l50 148q6 17 21.5 28t33.5 11t29.5 -10.5t11.5 -26.5 q0 -10 -4 -21l-43 -129h79l50 148q6 17 21.5 28t33.5 11t29.5 -10.5t11.5 -26.5q0 -10 -4 -21l-43 -129h37q17 0 27.5 -11t10.5 -27q0 -21 -16.5 -36.5t-37.5 -15.5h-52l-32 -95h44q16 0 26.5 -11t10.5 -27q0 -21 -16 -36.5t-37 -15.5h-58l-55 -162q-14 -39 -54 -39 q-18 0 -29 11t-11 29q0 10 6 24zM316 375l-32 -95h81l31 95h-80z"/>
<glyph unicode="$" horiz-adv-x="573" d="M534 526q-61 57 -141 57q-65 0 -97 -26t-32 -62q0 -32 32 -55t78 -39t92.5 -35.5t78.5 -57t32 -92.5q0 -96 -61.5 -157t-180.5 -71l-10 -55q-4 -20 -20 -33.5t-35 -13.5t-30.5 14t-7.5 33l10 57q-67 10 -117 46.5t-68 78.5q-5 10 -5 22q0 22 15.5 37.5t37.5 15.5 q25 0 43 -22q63 -76 158 -76q72 0 112.5 27t40.5 76q0 34 -32.5 57.5t-78.5 39.5t-92 35t-78.5 56t-32.5 91q0 80 57 139.5t162 70.5l10 57q4 20 19 33.5t36 13.5q20 0 31 -14t7 -33l-10 -58q58 -9 102.5 -37t61.5 -61q6 -12 6 -24q0 -22 -15.5 -37.5t-37.5 -15.5t-40 18z "/>
<glyph unicode="%" horiz-adv-x="764" d="M267 445q43 0 62 30t19 69q0 59 -53 59q-79 0 -79 -100q0 -58 51 -58zM310 687q65 0 97.5 -34.5t32.5 -91.5q0 -83 -46 -141.5t-142 -58.5q-64 0 -96 34.5t-32 91.5q0 84 45 142t141 58zM649 681q19 0 33 -13.5t14 -33.5q0 -14 -9 -28l-420 -593q-15 -21 -39 -21 q-20 0 -33.5 14t-13.5 33q0 16 9 28l420 594q15 20 39 20zM586 71q43 0 62 30t19 69q0 59 -53 59q-79 0 -79 -100q0 -58 51 -58zM629 313q65 0 97.5 -34.5t32.5 -91.5q0 -83 -46 -141.5t-142 -58.5q-64 0 -96 34.5t-32 91.5q0 84 45 142t141 58z"/>
<glyph unicode="&amp;" horiz-adv-x="794" d="M630 264q9 -29 9 -59q0 -101 -78.5 -160t-211.5 -59q-120 0 -193 60.5t-73 157.5q0 87 53 142t129 71q-67 35 -67 113q0 73 57.5 115t137.5 42q127 0 169 -88q7 -16 7 -26q0 -21 -15 -36t-36 -15q-26 0 -41 20q-35 47 -89 47q-35 0 -56.5 -18.5t-21.5 -48.5 q0 -37 25.5 -56.5t57.5 -19.5q19 0 29.5 -12t10.5 -28q0 -19 -15 -36.5t-42 -17.5q-79 0 -131 -35.5t-52 -106.5q0 -53 46 -89.5t118 -36.5q182 0 183 131q0 24 -8 46q-30 0 -30 -27q0 -20 -14.5 -34.5t-34.5 -14.5t-34.5 15.5t-14.5 43.5q0 48 44 81.5t131 33.5 q59 0 75 4.5t16 19.5q0 2 -1 9.5t-1 12.5q0 20 13.5 30t31.5 10q25 0 39.5 -20t14.5 -50q0 -49 -29.5 -77t-107.5 -34z"/>
<glyph unicode="'" horiz-adv-x="167" d="M204 681q49 0 40 -41l-37 -160q-8 -36 -45 -36t-32 36l19 160q5 41 55 41z"/>
<glyph unicode="(" horiz-adv-x="315" d="M93 296q34 204 87 299.5t157 137.5q12 5 22 5q20 0 34.5 -14.5t14.5 -34.5q0 -33 -32 -46q-76 -32 -111 -112t-62 -235q-26 -150 -26 -205q0 -57 13.5 -91.5t50.5 -52.5q28 -12 28 -44q0 -20 -14.5 -34.5t-34.5 -14.5q-10 0 -22 5q-127 57 -127 229q0 78 22 208z"/>
<glyph unicode=")" horiz-adv-x="315" d="M327 296q-34 -204 -87 -299.5t-157 -137.5q-13 -5 -22 -5q-20 0 -34.5 14.5t-14.5 34.5q0 33 32 46q76 32 111 112t62 235q26 150 26 205q0 57 -13.5 91.5t-50.5 52.5q-28 12 -28 44q0 20 14.5 34.5t34.5 14.5q10 0 22 -5q127 -57 127 -229q0 -78 -22 -208z"/>
<glyph unicode="*" horiz-adv-x="370" d="M339 435l-52 82l-52 -82q-16 -25 -42 -7q-25 17 -8 40l57 78l-88 15q-28 6 -20 39q8 30 36 21l89 -26l-3 89q-1 16 7 22t24 6t24 -6t7 -22l-3 -89l89 26q28 9 36 -21q8 -33 -20 -39l-88 -15l57 -78q17 -23 -8 -40q-26 -18 -42 7z"/>
<glyph unicode="+" horiz-adv-x="454" d="M493 224q0 -21 -16 -36.5t-38 -15.5h-134l-23 -132q-4 -20 -19 -34t-37 -14q-21 0 -32.5 14t-7.5 34l23 132h-132q-17 0 -28 11.5t-11 28.5q0 21 16.5 36.5t38.5 15.5h133l23 133q4 20 19.5 34t37.5 14q20 0 31.5 -14.5t7.5 -33.5l-23 -133h133q16 0 27 -11.5t11 -28.5z "/>
<glyph unicode="," horiz-adv-x="225" d="M134 124q55 0 55 -52q0 -72 -43.5 -133.5t-101.5 -104.5q-7 -5 -14 -5q-9 0 -15.5 6.5t-6.5 15.5t9 18q31 31 45 52t14 47q0 15 -10 40t-10 40q0 36 20.5 56t57.5 20z"/>
<glyph unicode="-" horiz-adv-x="378" d="M380 258q0 -21 -16 -36.5t-38 -15.5h-200q-17 0 -28 11.5t-11 28.5q0 21 16.5 36.5t38.5 15.5h200q16 0 27 -11.5t11 -28.5z"/>
<glyph unicode="." horiz-adv-x="225" d="M111 -8q-56 0 -56 51q0 39 20.5 60t58.5 21q55 0 55 -52q0 -80 -78 -80z"/>
<glyph unicode="/" horiz-adv-x="422" d="M24 -17l394 741q15 27 47 27q23 0 38.5 -15.5t15.5 -38.5q0 -14 -8 -29l-391 -735q-16 -31 -49 -31q-23 0 -38.5 16t-15.5 38q0 13 7 27z"/>
<glyph unicode="0" horiz-adv-x="611" d="M320 86q49 0 86.5 25.5t59 63t35 88.5t18 95t4.5 88q0 73 -27.5 107t-86.5 34q-49 0 -86.5 -25.5t-59 -63t-35 -88.5t-18 -95t-4.5 -88q0 -73 27.5 -107t86.5 -34zM423 687q216 0 216 -222q0 -53 -7 -105.5t-22 -107.5t-41 -102t-61.5 -84t-87.5 -58.5t-114 -21.5 q-216 0 -216 222q0 53 7 105.5t22 107.5t41 102t61.5 84t87.5 58.5t114 21.5z"/>
<glyph unicode="1" horiz-adv-x="354" d="M263 521l-60 -36q-16 -10 -31 -10q-22 0 -38.5 16.5t-16.5 38.5q0 33 30 49l163 90q21 12 37 12q23 0 37 -17t10 -40l-101 -575q-5 -24 -24 -40.5t-43 -16.5t-37.5 16.5t-9.5 40.5z"/>
<glyph unicode="2" horiz-adv-x="553" d="M167 568q73 119 235 119q95 0 147 -46t52 -125q0 -58 -30.5 -111t-76 -89t-99.5 -69.5t-100 -56.5t-78 -46.5t-34 -41.5h307q19 0 31 -12.5t12 -31.5q0 -23 -18.5 -40.5t-42.5 -17.5h-382q-19 0 -32.5 13t-10.5 31q8 55 44.5 102.5t84.5 78.5t103 64t100.5 60.5t75.5 66 t30 82.5q0 38 -26.5 63.5t-74.5 25.5q-75 0 -130 -79q-17 -24 -44 -24q-22 0 -37.5 15.5t-15.5 37.5q0 16 10 31z"/>
<glyph unicode="3" horiz-adv-x="563" d="M422 571h-201q-19 0 -31 12.5t-12 31.5q0 23 18 40.5t43 17.5h320q19 0 31 -12.5t12 -31.5q0 -23 -20 -41l-175 -165q79 -9 114.5 -56t35.5 -117q0 -125 -72.5 -194t-216.5 -69q-73 0 -128 34.5t-81 84.5q-5 10 -5 22q0 22 15.5 37.5t37.5 15.5q27 0 46 -26 q50 -68 133 -68q77 0 116 38.5t39 105.5q0 92 -101 92h-62q-20 0 -32.5 12.5t-12.5 31.5q0 24 20 43z"/>
<glyph unicode="4" horiz-adv-x="561" d="M494 246h35q19 0 31 -12.5t12 -31.5q0 -23 -18.5 -40.5t-42.5 -17.5h-35l-17 -95q-4 -24 -22.5 -40.5t-44.5 -16.5q-25 0 -38 16.5t-9 40.5l17 95h-254q-19 0 -31 12.5t-12 31.5q0 18 14 35l382 431q22 26 52 26q23 0 37 -17t10 -40zM222 246h158l40 230z"/>
<glyph unicode="5" horiz-adv-x="576" d="M360 463q99 0 155 -47.5t56 -142.5q0 -141 -79.5 -214t-216.5 -73q-86 0 -142 42.5t-77 99.5q-3 9 -3 19q0 22 15.5 37.5t37.5 15.5q34 0 48 -30q21 -44 53.5 -64t85.5 -20q71 0 116.5 43.5t45.5 123.5q0 54 -30.5 82t-82.5 28q-44 0 -73.5 -9t-60.5 -31q-28 -20 -52 -20 q-19 0 -32 13t-13 33q0 10 6 24l95 259q15 41 58 41h300q19 0 30.5 -12.5t11.5 -31.5q0 -23 -18.5 -40.5t-41.5 -17.5h-261l-49 -131q50 23 118 23z"/>
<glyph unicode="6" horiz-adv-x="588" d="M388 448q97 0 150 -48t53 -138q0 -129 -80.5 -202.5t-210.5 -73.5q-105 0 -158.5 60.5t-53.5 168.5q0 133 34.5 237t111 169.5t187.5 65.5q63 0 108.5 -18.5t65.5 -44.5q11 -15 11 -32q0 -22 -15 -37t-37 -15q-17 0 -32 11q-52 36 -109 36q-74 0 -126.5 -56.5 t-64.5 -142.5q69 60 166 60zM310 87q73 0 119 41.5t46 114.5q0 51 -31 77.5t-81 26.5q-96 0 -158 -84q-5 -32 -5 -54q0 -59 28 -90.5t82 -31.5z"/>
<glyph unicode="7" horiz-adv-x="507" d="M107 38q6 72 43.5 144t88.5 128t102 104t89 89.5t43 67.5h-303q-19 0 -31 12.5t-12 31.5q0 24 17.5 41t43.5 17h366q19 0 30.5 -12.5t11.5 -31.5q0 -50 -24.5 -98.5t-62 -86t-83.5 -83t-87 -88t-74.5 -102.5t-44.5 -125q-4 -23 -23 -38.5t-42 -15.5q-21 0 -35 13t-13 33z "/>
<glyph unicode="8" horiz-adv-x="575" d="M291 -14q-107 0 -166 46t-59 132q0 70 37.5 124t109.5 80q-26 16 -43 45.5t-17 66.5q0 94 66 150.5t183 56.5q93 0 145 -39.5t52 -112.5q0 -59 -31 -102t-77 -65q87 -46 87 -139q0 -112 -74.5 -177.5t-212.5 -65.5zM391 587q-58 0 -91.5 -26t-33.5 -74q0 -72 94 -72 q57 0 91 26t34 75q0 71 -94 71zM343 315q-74 0 -117.5 -35t-43.5 -98q0 -46 32 -70.5t88 -24.5q72 0 116.5 35t44.5 99q0 44 -31.5 69t-88.5 25z"/>
<glyph unicode="9" horiz-adv-x="588" d="M319 225q-97 0 -150 48t-53 138q0 129 80.5 202.5t210.5 73.5q105 0 158.5 -60.5t53.5 -168.5q0 -133 -34.5 -237t-111 -169.5t-187.5 -65.5q-63 0 -108.5 18.5t-65.5 44.5q-11 15 -11 32q0 22 15 37t37 15q17 0 32 -11q52 -36 109 -36q74 0 126.5 56.5t64.5 142.5 q-69 -60 -166 -60zM397 586q-73 0 -119 -41.5t-46 -114.5q0 -51 31 -77.5t81 -26.5q96 0 158 84q5 32 5 54q0 59 -28 90.5t-82 31.5z"/>
<glyph unicode=":" horiz-adv-x="225" d="M111 -8q-56 0 -56 51q0 39 20.5 60t58.5 21q55 0 55 -52q0 -80 -78 -80zM170 324q-56 0 -56 51q0 39 20.5 60t58.5 21q55 0 55 -52q0 -80 -78 -80z"/>
<glyph unicode=";" horiz-adv-x="225" d="M170 324q-56 0 -56 51q0 39 20.5 60t58.5 21q55 0 55 -52q0 -80 -78 -80zM134 124q55 0 55 -52q0 -72 -43.5 -133.5t-101.5 -104.5q-7 -5 -14 -5q-9 0 -15.5 6.5t-6.5 15.5t9 18q31 31 45 52t14 47q0 15 -10 40t-10 40q0 36 20.5 56t57.5 20z"/>
<glyph unicode="&lt;" horiz-adv-x="363" d="M164 230l190 -162q16 -13 16 -35q0 -19 -14 -33.5t-34 -14.5q-17 0 -30 11l-235 199q-16 14 -16 33q0 27 30 47l294 201q13 9 28 9q19 0 33.5 -14.5t14.5 -33.5q0 -26 -23 -41z"/>
<glyph unicode="=" horiz-adv-x="454" d="M508 310q0 -21 -17 -36.5t-38 -15.5h-362q-16 0 -27 11.5t-11 28.5q0 21 16.5 36.5t37.5 15.5h362q17 0 28 -11.5t11 -28.5zM477 137q0 -21 -16.5 -36.5t-37.5 -15.5h-362q-17 0 -28 11.5t-11 28.5q0 21 17 36.5t38 15.5h362q16 0 27 -11.5t11 -28.5z"/>
<glyph unicode="&gt;" horiz-adv-x="363" d="M282 240l-190 162q-16 13 -16 35q0 19 14 33.5t34 14.5q17 0 30 -11l235 -199q16 -14 16 -33q0 -27 -30 -47l-294 -201q-13 -9 -28 -9q-19 0 -33.5 14.5t-14.5 33.5q0 26 23 41z"/>
<glyph unicode="?" horiz-adv-x="453" d="M247 171q-29 0 -49.5 23.5t-20.5 60.5q0 41 24.5 73t59.5 53t70.5 40t60 45t24.5 58q0 31 -23 48t-65 17q-43 0 -72.5 -21.5t-36.5 -62.5q-4 -25 -23 -40t-42 -15q-20 0 -33 13.5t-13 33.5q0 81 65 135.5t172 54.5q87 0 134.5 -37.5t47.5 -106.5q0 -55 -24.5 -96.5 t-59 -64.5t-69 -40.5t-59 -34.5t-24.5 -35q0 -11 5 -26t5 -24q0 -22 -15.5 -36.5t-38.5 -14.5zM202 -8q-56 0 -56 51q0 39 20.5 60t58.5 21q55 0 55 -52q0 -80 -78 -80z"/>
<glyph unicode="@" horiz-adv-x="805" d="M610 322l-38 -206q-4 -22 5 -33t27 -11q51 0 80 46t29 129q0 99 -61 151.5t-169 52.5q-151 0 -239.5 -84t-88.5 -250q0 -110 60.5 -166.5t168.5 -56.5q126 0 213 47q12 6 23 6q16 0 26 -10.5t10 -26.5q0 -28 -30 -44q-109 -56 -256 -56t-227.5 76.5t-80.5 217.5 q0 206 117 318.5t318 112.5q141 0 225 -72t84 -204q0 -36 -7 -71.5t-23.5 -71t-40.5 -62.5t-62 -44t-84 -17q-42 0 -65.5 20.5t-26.5 48.5q-16 -21 -29 -33t-41 -24t-63 -12q-54 0 -84 36.5t-30 95.5q0 106 59 175t147 69q49 0 79 -28q13 23 40 23q18 0 28 -12t7 -30z M336 133q0 -30 14.5 -50t39.5 -20q42 0 71 32t39 87l18 95q-29 19 -59 19q-53 0 -88 -43.5t-35 -119.5z"/>
<glyph unicode="A" horiz-adv-x="624" d="M449 281l-47 210l-122 -210h169zM469 175h-247l-88 -154q-17 -29 -50 -29q-25 0 -41 16.5t-16 40.5q0 15 9 30l337 565q21 37 59 37q20 0 32 -11.5t15 -24.5l134 -579q2 -6 2 -17q0 -23 -17 -40t-40 -17q-44 0 -55 42z"/>
<glyph unicode="B" horiz-adv-x="568" d="M277 569l-30 -171h122q53 0 79.5 29.5t26.5 74.5q0 67 -76 67h-122zM229 300l-34 -196h140q61 0 89.5 32.5t28.5 85.5q0 78 -84 78h-140zM327 0h-209q-24 0 -38 17t-9 41l98 557q5 24 24.5 41t43.5 17h180q92 0 135 -40t43 -104q0 -117 -102 -166q80 -32 80 -133 q0 -106 -62 -168t-184 -62z"/>
<glyph unicode="C" horiz-adv-x="640" d="M345 -14q-122 0 -191.5 67.5t-69.5 191.5q0 205 101.5 323.5t282.5 118.5q85 0 141 -32.5t81 -82.5q6 -14 6 -25q0 -23 -16 -38.5t-38 -15.5q-28 0 -42 20q-51 70 -150 70q-66 0 -115.5 -27.5t-76.5 -75t-40 -103.5t-13 -122q0 -164 158 -164q92 0 166 65q26 22 46 22 q22 0 38 -15.5t16 -35.5q0 -23 -16 -41q-44 -47 -115.5 -73.5t-152.5 -26.5z"/>
<glyph unicode="D" horiz-adv-x="611" d="M277 569l-82 -465h77q122 0 187.5 76t65.5 218q0 90 -43.5 130.5t-127.5 40.5h-77zM237 673h135q132 0 203.5 -65.5t71.5 -200.5q0 -196 -101.5 -301.5t-284.5 -105.5h-143q-24 0 -38 17t-9 41l98 557q5 24 24.5 41t43.5 17z"/>
<glyph unicode="E" horiz-adv-x="523" d="M277 569l-32 -179h189q19 0 31 -12.5t12 -31.5q0 -23 -18.5 -40.5t-42.5 -17.5h-189l-32 -184h265q19 0 31 -12.5t12 -31.5q0 -25 -18.5 -42.5t-43.5 -17.5h-323q-24 0 -38 17t-9 41l98 557q5 24 24.5 41t43.5 17h312q19 0 31.5 -12.5t12.5 -31.5q0 -24 -19 -42t-43 -18 h-254z"/>
<glyph unicode="F" horiz-adv-x="523" d="M226 282l-41 -232q-5 -25 -23.5 -41.5t-45.5 -16.5q-24 0 -37.5 16.5t-9.5 41.5l99 565q5 24 24.5 41t43.5 17h312q19 0 31.5 -12.5t12.5 -31.5q0 -24 -19 -42t-43 -18h-254l-32 -185h189q19 0 30.5 -12.5t11.5 -31.5q0 -23 -18.5 -40.5t-41.5 -17.5h-189z"/>
<glyph unicode="G" horiz-adv-x="675" d="M363 90q105 0 175 57l20 112h-136q-19 0 -31 12.5t-12 31.5q0 23 18.5 40.5t42.5 17.5h194q21 0 35 -16t10 -37l-28 -160q-5 -31 -26 -53q-45 -48 -122.5 -78.5t-157.5 -30.5q-122 0 -191.5 67.5t-69.5 191.5q0 205 101.5 323.5t282.5 118.5q85 0 141 -32.5t81 -82.5 q6 -14 6 -25q0 -23 -16 -38.5t-38 -15.5q-28 0 -42 20q-51 70 -150 70q-66 0 -115.5 -27.5t-76.5 -75t-40 -103.5t-13 -122q0 -165 158 -165z"/>
<glyph unicode="H" horiz-adv-x="638" d="M688 623l-101 -573q-4 -24 -24.5 -41t-44.5 -17t-38 17t-9 41l42 241h-286l-42 -241q-4 -24 -24.5 -41t-44.5 -17t-38 17t-9 41l101 573q5 24 24.5 41t43.5 17t38 -17t10 -41l-40 -226h286l40 226q5 24 24.5 41t43.5 17t38 -17t10 -41z"/>
<glyph unicode="I" horiz-adv-x="236" d="M238 681q24 0 38 -17t10 -41l-101 -573q-4 -24 -24.5 -41t-44.5 -17t-38 17t-9 41l101 573q5 24 24.5 41t43.5 17z"/>
<glyph unicode="J" horiz-adv-x="431" d="M179 92q92 0 113 118l73 413q5 24 24.5 41t43.5 17t38 -17t10 -41l-73 -413q-40 -223 -248 -223q-75 0 -114 31q-21 17 -21 42q0 22 15 37t37 15q10 0 30 -7q36 -13 72 -13z"/>
<glyph unicode="K" horiz-adv-x="556" d="M286 623l-41 -229l283 270q18 17 41 17t39.5 -16.5t16.5 -39.5q0 -26 -23 -46l-228 -199l172 -307q6 -11 6 -25q0 -23 -16.5 -39.5t-39.5 -16.5q-33 0 -48 27l-159 286l-70 -63l-34 -192q-4 -24 -24.5 -41t-44.5 -17t-38 17t-9 41l101 573q5 24 24.5 41t43.5 17t38 -17 t10 -41z"/>
<glyph unicode="L" horiz-adv-x="491" d="M195 108h237q21 0 34 -13t13 -33q0 -26 -19 -44t-47 -18h-296q-25 0 -38.5 16t-8.5 40l100 567q5 24 24.5 41t43.5 17t38 -17t10 -41z"/>
<glyph unicode="M" horiz-adv-x="755" d="M394 106q-34 0 -45 28l-108 279l-64 -364q-5 -23 -24.5 -40t-42.5 -17t-36.5 17t-9.5 40l101 575q5 24 23 40.5t43 16.5q33 0 45 -32l144 -380l280 380q23 32 56 32q23 0 38 -17t11 -40l-102 -575q-4 -23 -24 -40t-43 -17t-37 17t-10 40l65 364l-207 -279 q-20 -28 -53 -28z"/>
<glyph unicode="N" horiz-adv-x="623" d="M631 681q23 0 37 -17t10 -40l-102 -575q-4 -23 -24 -40t-43 -17q-30 0 -42 25l-219 432l-71 -400q-4 -23 -24 -40t-43 -17t-36.5 17t-9.5 40l101 575q5 24 23 40.5t43 16.5q29 0 42 -24l221 -429l70 396q4 23 24 40t43 17z"/>
<glyph unicode="O" horiz-adv-x="702" d="M349 -14q-129 0 -197 63.5t-68 188.5q0 201 101 325t287 124q129 0 197 -63.5t68 -188.5q0 -201 -101 -325t-287 -124zM454 583q-52 0 -95 -19t-71 -51t-47 -74.5t-27.5 -88.5t-8.5 -95q0 -165 162 -165q52 0 95 19t71 51t47 74.5t27.5 88.5t8.5 95q0 165 -162 165z"/>
<glyph unicode="P" horiz-adv-x="552" d="M222 262l-37 -212q-4 -24 -24.5 -41t-44.5 -17t-38 17t-9 41l99 565q5 24 24.5 41t43.5 17h191q81 0 130 -42.5t49 -123.5q0 -110 -73 -177.5t-178 -67.5h-133zM400 569h-124l-36 -203h124q54 0 87 35t33 88q0 39 -22 59.5t-62 20.5z"/>
<glyph unicode="Q" horiz-adv-x="702" d="M349 -14q-129 0 -197 63.5t-68 188.5q0 201 101 325t287 124q129 0 197 -63.5t68 -188.5q0 -136 -47.5 -239.5t-137.5 -157.5q21 -4 43 -20t31 -31q7 -12 7 -27q0 -23 -17 -40t-40 -17q-24 0 -41 18q-34 36 -70.5 50.5t-115.5 14.5zM454 583q-52 0 -95 -19t-71 -51 t-47 -74.5t-27.5 -88.5t-8.5 -95q0 -165 162 -165q52 0 95 19t71 51t47 74.5t27.5 88.5t8.5 95q0 165 -162 165z"/>
<glyph unicode="R" horiz-adv-x="560" d="M293 258h-71l-37 -208q-4 -24 -24.5 -41t-44.5 -17t-38 17t-9 41l99 565q5 24 24.5 41t43.5 17h191q85 0 131.5 -49.5t46.5 -125.5q0 -85 -53 -154.5t-139 -78.5l116 -188q7 -11 7 -27q0 -24 -17 -41t-41 -17q-34 0 -49 27zM408 569h-132l-37 -209h135q51 0 80.5 38 t29.5 87q0 37 -18.5 60.5t-57.5 23.5z"/>
<glyph unicode="S" horiz-adv-x="573" d="M534 526q-61 57 -141 57q-65 0 -97 -26t-32 -62q0 -32 32 -55t78 -39t92.5 -35.5t78.5 -57t32 -92.5q0 -106 -74 -168t-216 -62q-83 0 -145.5 40t-84.5 89q-5 10 -5 22q0 22 15.5 37.5t37.5 15.5q25 0 43 -22q63 -76 158 -76q72 0 112.5 27t40.5 76q0 34 -32.5 57.5 t-78.5 39.5t-92 35t-78.5 56t-32.5 91q0 90 69 151.5t197 61.5q72 0 130.5 -30.5t79.5 -71.5q6 -12 6 -24q0 -22 -15.5 -37.5t-37.5 -15.5t-40 18z"/>
<glyph unicode="T" horiz-adv-x="566" d="M442 571l-92 -521q-5 -24 -24.5 -41t-43.5 -17t-38 17t-10 41l92 521h-153q-19 0 -31 12.5t-12 31.5q0 23 18.5 40.5t42.5 17.5h422q19 0 31 -12.5t12 -31.5q0 -23 -18.5 -40.5t-42.5 -17.5h-153z"/>
<glyph unicode="U" horiz-adv-x="619" d="M319 -14q-118 0 -171 49.5t-53 127.5q0 25 5 57l70 403q5 24 24.5 41t43.5 17t38 -17t10 -41l-71 -403q-3 -16 -3 -37q0 -95 116 -95q135 0 159 132l71 403q5 24 24.5 41t43.5 17t38 -17t10 -41l-71 -403q-7 -38 -17 -68.5t-31 -62.5t-50.5 -53.5t-77 -35.5t-108.5 -14z "/>
<glyph unicode="V" horiz-adv-x="608" d="M303 -8q-39 0 -48 37l-125 579q-2 8 -2 15q0 24 17 41t41 17q22 0 37.5 -13.5t18.5 -29.5l94 -452l254 463q17 32 52 32q24 0 41 -17t17 -41q0 -15 -9 -31l-328 -563q-20 -37 -60 -37z"/>
<glyph unicode="W" horiz-adv-x="838" d="M540 35l-43 410l-187 -410q-19 -43 -63 -43q-19 0 -32.5 11.5t-15.5 28.5l-69 569q-2 18 -2 23q0 23 17 40t40 17t39 -15.5t18 -35.5l46 -409l188 418q19 42 63 42q19 0 33 -11.5t16 -30.5l40 -418l193 427q15 33 52 33q23 0 40 -17t17 -40q0 -13 -7 -27l-272 -565 q-19 -40 -62 -40q-20 0 -33.5 12t-15.5 31z"/>
<glyph unicode="X" horiz-adv-x="542" d="M433 21l-115 228l-197 -237q-17 -20 -44 -20q-24 0 -41 16.5t-17 41.5q0 20 16 40l232 261l-129 246q-6 11 -6 26q0 24 17 41t41 17q36 0 51 -31l106 -207l181 218q17 20 44 20q24 0 41 -17t17 -41q0 -21 -15 -39l-217 -246l136 -260q7 -14 7 -28q0 -24 -17 -41t-41 -17 q-35 0 -50 29z"/>
<glyph unicode="Y" horiz-adv-x="554" d="M186 681q36 0 50 -29l115 -235l190 240q19 24 47 24q24 0 41 -17t17 -41q0 -21 -15 -39l-242 -277l-45 -257q-5 -25 -23.5 -41.5t-44.5 -16.5t-39.5 17t-8.5 41l45 257l-140 292q-5 10 -5 24q0 24 17 41t41 17z"/>
<glyph unicode="Z" horiz-adv-x="541" d="M476 0h-409q-19 0 -31.5 12.5t-12.5 31.5q0 21 17 40l422 487h-276q-19 0 -30.5 12.5t-11.5 31.5q0 24 17 41t43 17h378q19 0 31 -12.5t12 -31.5t-15 -36l-421 -489h305q19 0 31.5 -12.5t12.5 -31.5q0 -24 -19 -42t-43 -18z"/>
<glyph unicode="[" horiz-adv-x="283" d="M239 -92q0 -22 -17 -38t-39 -16h-94q-24 0 -37 14.5t-9 37.5l138 780q4 23 21 37.5t43 14.5h94q17 0 28 -11.5t11 -28.5q0 -22 -17 -38t-39 -16h-41l-122 -696h41q17 0 28 -11.5t11 -28.5z"/>
<glyph unicode="\" horiz-adv-x="422" d="M283 -55l-133 735q-2 10 -2 17q0 22 16 38t39 16q20 0 34 -11t17 -29l133 -738q2 -10 2 -17q0 -23 -16 -38.5t-40 -15.5q-19 0 -33 12.5t-17 30.5z"/>
<glyph unicode="]" horiz-adv-x="283" d="M9 -106q0 22 17 38t39 16h41l123 696h-41q-17 0 -28.5 11.5t-11.5 28.5q0 23 17 38.5t39 15.5h94q24 0 37 -15t9 -37l-137 -780q-4 -22 -22.5 -37t-42.5 -15h-94q-17 0 -28 11.5t-11 28.5z"/>
<glyph unicode="^" horiz-adv-x="486" d="M423 359l-78 204l-157 -215q-13 -19 -37 -19q-19 0 -32.5 13.5t-13.5 32.5q0 16 10 29l205 262q19 25 44 25q27 0 37 -25l108 -275q3 -8 3 -16q0 -19 -13.5 -32.5t-32.5 -13.5q-32 0 -43 30z"/>
<glyph unicode="_" horiz-adv-x="421" d="M422 -71q0 -21 -16.5 -36.5t-37.5 -15.5h-356q-17 0 -28 11.5t-11 28.5q0 21 17 36.5t38 15.5h356q16 0 27 -11.5t11 -28.5z"/>
<glyph unicode="`" horiz-adv-x="384" d="M354 514q-21 -20 -41 0l-92 88q-12 10 -10 28.5t20 33.5q21 15 36.5 14.5t24.5 -13.5l69 -107q15 -24 -7 -44z"/>
<glyph unicode="a" horiz-adv-x="494" d="M520 408l-64 -362q-4 -23 -21.5 -38.5t-41.5 -15.5q-23 0 -36 15.5t-8 38.5l5 23q-50 -82 -148 -82q-70 0 -108 46.5t-38 122.5q0 136 75 224t188 88q63 0 101 -36q17 30 52 30q22 0 35 -15.5t9 -38.5zM170 166q0 -39 18.5 -64t50.5 -25q54 0 91 40.5t50 110.5l22 122 q-33 24 -75 24q-67 0 -112 -55.5t-45 -152.5z"/>
<glyph unicode="b" horiz-adv-x="501" d="M216 325l-24 -133q-4 -21 -4 -41q0 -72 83 -72q64 0 101 57t37 142q0 98 -85 98q-32 0 -59 -13t-38 -25zM351 468q76 0 121.5 -44t45.5 -130q0 -141 -67.5 -224t-186.5 -83q-83 0 -133.5 39.5t-50.5 114.5q0 25 4 46l83 471q4 23 21.5 38.5t41.5 15.5q22 0 35.5 -16 t9.5 -38l-41 -230q46 40 117 40z"/>
<glyph unicode="c" horiz-adv-x="451" d="M63 168q0 127 67 213.5t199 86.5q58 0 96 -24.5t54 -50.5q7 -11 7 -25q0 -20 -14.5 -34t-34.5 -14q-22 0 -36 17q-35 39 -89 39q-64 0 -101.5 -57t-37.5 -142q0 -98 87 -98q13 0 25 2t24 7.5t18 9t19 12t15 9.5q16 10 30 10q19 0 33 -13.5t14 -33.5q0 -23 -22 -40 q-71 -55 -172 -55q-86 0 -133.5 46t-47.5 135z"/>
<glyph unicode="d" horiz-adv-x="497" d="M376 187l24 138q-1 2 -3 5.5t-9.5 12.5t-17 15.5t-26 12t-34.5 5.5q-64 0 -101 -54t-37 -136q0 -49 22.5 -78t63.5 -29q44 0 76 28.5t42 79.5zM310 468q34 0 63.5 -12t44.5 -28l41 230q4 23 22.5 38.5t40.5 15.5t35.5 -16t9.5 -38l-83 -471q-35 -200 -238 -200 q-86 0 -134.5 47.5t-48.5 135.5q0 137 68 217.5t179 80.5z"/>
<glyph unicode="e" horiz-adv-x="464" d="M262 84q51 0 103 31q19 11 32 11q19 0 33 -14t14 -33q0 -22 -20 -39q-66 -53 -175 -53q-87 0 -136 46.5t-49 139.5q0 130 72 212.5t189 82.5q76 0 120.5 -35.5t44.5 -87.5q0 -31 -11 -55.5t-42 -49t-98 -38t-168 -13.5q-3 -12 -3 -28q0 -77 94 -77zM319 377 q-100 0 -135 -107q199 0 199 69q0 15 -15 26.5t-49 11.5z"/>
<glyph unicode="f" horiz-adv-x="322" d="M145 364h-20q-16 0 -27 11t-11 27q0 21 16.5 36.5t37.5 15.5h20l10 54q14 78 68.5 127.5t153.5 49.5q17 0 28.5 -11.5t11.5 -28.5q0 -22 -17 -38t-39 -16q-40 0 -65 -20.5t-31 -54.5l-11 -62h67q16 0 26.5 -11t10.5 -27q0 -21 -16 -36.5t-37 -15.5h-68l-62 -357 q-16 -92 -72.5 -150t-156.5 -58q-17 0 -28.5 11.5t-11.5 28.5q0 22 17 38t39 16q85 0 104 108z"/>
<glyph unicode="g" horiz-adv-x="504" d="M157 -73q0 -43 59 -43q53 0 89.5 29.5t48.5 87.5l20 100q-20 -31 -59 -57t-72.5 -40.5t-59.5 -34.5t-26 -42zM501 248l-44 -260q-16 -95 -83 -142t-174 -47q-62 0 -102.5 27t-40.5 72q0 46 38 77t132 63q-161 7 -161 156q0 121 69.5 197.5t191.5 76.5q85 0 132 -40.5 t47 -115.5q0 -36 -5 -64zM260 123q71 0 106 52t35 119q0 83 -87 83q-71 0 -106 -51t-35 -118q0 -85 87 -85z"/>
<glyph unicode="h" horiz-adv-x="499" d="M274 658l-45 -250q52 60 139 60q76 0 109 -35.5t33 -89.5q0 -21 -5 -49l-44 -250q-4 -22 -22 -37t-41 -15q-24 0 -36.5 14.5t-8.5 37.5l41 230q3 15 3 29q0 67 -74 67q-101 0 -118 -103l-40 -223q-4 -22 -22 -37t-41 -15q-24 0 -36.5 14t-8.5 38l109 614q4 23 22 38.5 t41 15.5t36 -16t9 -38z"/>
<glyph unicode="i" horiz-adv-x="213" d="M235 408l-64 -362q-4 -23 -21.5 -38.5t-41.5 -15.5q-22 0 -35.5 16t-9.5 38l64 362q4 23 21.5 38.5t42.5 15.5q22 0 35 -15.5t9 -38.5zM223 645q54 0 54 -48q0 -35 -19.5 -58t-57.5 -23q-54 0 -54 48q0 35 19.5 58t57.5 23z"/>
<glyph unicode="j" horiz-adv-x="213" d="M54 -8l73 416q4 22 22.5 38t41.5 16q22 0 35 -15.5t9 -38.5l-73 -416q-12 -67 -66 -112.5t-124 -45.5q-18 0 -30 12.5t-12 30.5q0 23 17.5 40t42.5 17q24 0 41.5 16.5t22.5 41.5zM223 645q54 0 54 -48q0 -35 -19.5 -58t-57.5 -23q-54 0 -54 48q0 35 19.5 58t57.5 23z"/>
<glyph unicode="k" horiz-adv-x="453" d="M394 -8q-30 0 -43 22l-117 199l-40 -27l-24 -142q-4 -22 -22 -37t-41 -15t-36 14.5t-9 37.5l109 616q4 22 22 37t41 15t36 -15t9 -37l-62 -353l198 142q19 13 37 13q22 0 37 -15t15 -37q0 -30 -26 -46l-156 -99l116 -192q8 -13 8 -29q0 -22 -15 -37t-37 -15z"/>
<glyph unicode="l" horiz-adv-x="243" d="M234 712q22 0 35.5 -16t9.5 -38l-97 -544q-2 -11 4.5 -16.5t13.5 -5.5q18 0 29 -11.5t11 -29.5q0 -24 -18 -41.5t-46 -17.5q-103 0 -103 96q0 14 3 32l95 538q4 23 22.5 38.5t40.5 15.5z"/>
<glyph unicode="m" horiz-adv-x="795" d="M659 468q75 0 110.5 -36t35.5 -93q0 -25 -4 -45l-44 -250q-4 -22 -22 -37t-41 -15q-24 0 -36.5 14t-8.5 38l41 230q3 15 3 29q0 67 -74 67q-100 0 -117 -95l-41 -231q-4 -22 -22 -37t-41 -15q-24 0 -36.5 14t-8.5 38l41 230q3 15 3 29q0 67 -74 67q-101 0 -118 -103 l-40 -223q-4 -22 -22 -37t-41 -15q-24 0 -36.5 14t-8.5 38l64 364q4 22 22.5 38t41.5 16q19 0 32 -12.5t13 -31.5l-1 -11q53 61 139 61q55 0 85.5 -15.5t51.5 -49.5q59 65 154 65z"/>
<glyph unicode="n" horiz-adv-x="499" d="M372 468q72 0 105 -34.5t33 -90.5q0 -21 -5 -49l-44 -250q-4 -22 -22 -37t-41 -15q-24 0 -36.5 14.5t-8.5 37.5l41 230q3 16 3 29q0 67 -74 67q-101 0 -118 -103l-40 -223q-4 -22 -22 -37t-41 -15q-24 0 -36.5 14t-8.5 38l64 364q4 22 22.5 38t41.5 16q19 0 32 -12.5 t13 -31.5l-1 -11q53 61 143 61z"/>
<glyph unicode="o" horiz-adv-x="496" d="M331 468q87 0 135 -43.5t48 -130.5q0 -60 -15.5 -113.5t-46.5 -97.5t-84 -70t-122 -26q-87 0 -135 43.5t-48 130.5q0 60 15.5 113.5t46.5 97.5t84 70t122 26zM262 79q71 0 106.5 60.5t35.5 138.5q0 98 -89 98q-71 0 -106.5 -60.5t-35.5 -138.5q0 -98 89 -98z"/>
<glyph unicode="p" horiz-adv-x="514" d="M235 408q48 60 129 60q168 0 168 -174q0 -136 -67.5 -221.5t-185.5 -85.5q-78 0 -111 47l-31 -181q-4 -23 -22.5 -38.5t-40.5 -15.5t-35.5 15.5t-9.5 38.5l98 555q4 22 22.5 38t41.5 16q22 0 35 -15.5t9 -38.5zM280 79q71 0 106.5 60.5t35.5 138.5q0 98 -89 98 q-71 0 -106.5 -60.5t-35.5 -138.5q0 -98 89 -98z"/>
<glyph unicode="q" horiz-adv-x="494" d="M366 130l24 138q2 9 2 26q0 39 -22 60.5t-60 21.5q-59 0 -98.5 -53.5t-39.5 -135.5q0 -108 86 -108q27 0 54 12.5t40 25.5zM227 -13q-75 0 -119.5 44.5t-44.5 129.5q0 140 72.5 223.5t195.5 83.5q81 0 126 -39t45 -115q0 -25 -4 -46l-73 -415q-4 -23 -22.5 -38.5 t-41.5 -15.5t-35.5 15t-8.5 39l31 175q-49 -41 -121 -41z"/>
<glyph unicode="r" horiz-adv-x="324" d="M230 408l-1 -8q45 67 117 67q21 0 33 -12.5t12 -31.5q0 -23 -18.5 -40.5t-41.5 -17.5q-51 0 -85 -30t-43 -81l-37 -208q-4 -22 -22 -38t-41 -16q-24 0 -36.5 15t-8.5 39l64 362q4 23 22 38.5t42 15.5q22 0 34.5 -15.5t9.5 -38.5z"/>
<glyph unicode="s" horiz-adv-x="425" d="M277 374q-66 0 -66 -42q0 -20 22 -35t53 -26t62 -25t53 -39.5t22 -60.5q0 -74 -54.5 -115.5t-155.5 -41.5q-58 0 -102.5 24t-62.5 53q-7 11 -7 24q0 20 14.5 34t33.5 14q17 0 33 -13q45 -40 108 -40q37 0 59.5 12.5t22.5 32.5q0 23 -33.5 40t-73 29t-73 43t-33.5 77 q0 74 53 111.5t135 37.5q51 0 95 -20t61 -47q7 -11 7 -25q0 -20 -14 -34t-34 -14q-16 0 -34 14q-38 32 -91 32z"/>
<glyph unicode="t" horiz-adv-x="306" d="M165 454l14 84q4 22 22.5 37.5t40.5 15.5t34.5 -15.5t8.5 -37.5l-15 -84h46q16 0 26.5 -11t10.5 -27q0 -21 -16 -36.5t-37 -15.5h-45l-42 -233q-2 -10 -2 -17q0 -13 10 -20.5t23 -7.5q17 0 28 -11.5t11 -28.5q0 -23 -16.5 -38.5t-46.5 -15.5q-57 0 -86.5 29t-29.5 79 q0 13 3 28l42 236h-23q-16 0 -27 11t-11 27q0 21 16.5 36.5t37.5 15.5h23z"/>
<glyph unicode="u" d="M181 462q22 0 35 -15.5t9 -38.5l-41 -233q-3 -17 -3 -29q0 -61 77 -61q89 0 105 90l41 233q4 22 22.5 38t41.5 16q22 0 35 -15.5t9 -38.5l-41 -233q-15 -86 -64 -137t-159 -51q-177 0 -177 136q0 22 5 52l41 233q4 22 22.5 38t41.5 16z"/>
<glyph unicode="v" horiz-adv-x="452" d="M225 -8q-37 0 -45 33l-95 365q-2 6 -2 18q0 22 15.5 38t38.5 16q21 0 34.5 -11t16.5 -25l64 -276l158 281q17 31 49 31q23 0 38.5 -16t15.5 -38q0 -14 -9 -30l-224 -353q-20 -33 -55 -33z"/>
<glyph unicode="w" horiz-adv-x="636" d="M386 30l-23 219l-101 -218q-19 -39 -59 -39q-18 0 -30 10t-15 25l-72 357q-3 12 -3 24q0 23 15.5 38.5t38.5 15.5q20 0 35 -13.5t18 -30.5l43 -237l109 242q17 39 56 39q21 0 33.5 -11.5t14.5 -27.5l24 -242l126 252q15 29 48 29q22 0 38 -16t16 -38q0 -15 -8 -29 l-203 -353q-19 -34 -56 -34q-18 0 -30.5 10.5t-14.5 27.5z"/>
<glyph unicode="x" horiz-adv-x="422" d="M240 148q-84 -95 -123 -138q-17 -18 -40 -18t-38.5 16t-15.5 38q0 23 18 41l146 147l-90 149q-6 8 -6 25q0 22 15.5 38t38.5 16q32 0 45 -24l75 -123l116 129q17 18 40 18t38.5 -16t15.5 -38q0 -23 -18 -41l-139 -139l88 -152q9 -13 9 -30q0 -22 -15.5 -38t-38.5 -16 q-31 0 -47 27z"/>
<glyph unicode="y" d="M181 462q22 0 35 -15.5t9 -38.5l-33 -185q-3 -16 -3 -29q0 -61 77 -61q90 0 106 90l32 185q4 22 22.5 38t41.5 16q22 0 35 -15.5t9 -38.5l-73 -420q-16 -95 -83 -142t-174 -47q-62 0 -102.5 27t-40.5 72q0 46 38 77t131 63q-129 18 -129 133q0 22 5 52l33 185 q4 22 22.5 38t41.5 16zM139 -73q0 -43 59 -43q52 0 89 29t49 88l19 92q-18 -28 -56 -52t-72.5 -38t-61 -34t-26.5 -42z"/>
<glyph unicode="z" horiz-adv-x="409" d="M100 402q0 21 16.5 36.5t37.5 15.5h257q17 0 28.5 -12t11.5 -29q0 -19 -17 -38l-260 -283h181q16 0 27 -11.5t11 -28.5q0 -21 -16.5 -36.5t-37.5 -15.5h-276q-17 0 -28 11.5t-11 28.5q0 19 17 36l265 288h-168q-16 0 -27 11t-11 27z"/>
<glyph unicode="{" horiz-adv-x="358" d="M82 290q0 19 15 33.5t35 14.5q34 0 52 12.5t24 49.5q6 31 8.5 96.5t10.5 105.5q12 59 57 97.5t123 38.5q18 0 29.5 -12t11.5 -30q0 -22 -17.5 -39t-40.5 -17q-47 0 -55 -47q-6 -31 -10.5 -84.5t-9.5 -79.5q-9 -49 -34 -86t-61 -47q53 -23 53 -94q0 -44 -22 -119t-22 -94 q0 -37 40 -37q18 0 29.5 -12t11.5 -30q0 -23 -18.5 -39.5t-44.5 -16.5q-66 0 -98 33.5t-32 82.5q0 45 28 124.5t28 114.5q0 26 -13.5 35.5t-42.5 9.5q-15 0 -25 10.5t-10 25.5z"/>
<glyph unicode="|" horiz-adv-x="220" d="M252 808q22 0 35.5 -16t9.5 -39l-151 -858q-4 -23 -21.5 -39t-42.5 -16q-24 0 -37 16t-9 39l152 858q4 23 21.5 39t42.5 16z"/>
<glyph unicode="}" horiz-adv-x="358" d="M381 302q0 -19 -15 -33.5t-35 -14.5q-34 0 -52 -12.5t-24 -49.5q-6 -31 -8.5 -96.5t-10.5 -105.5q-12 -59 -57 -97.5t-123 -38.5q-18 0 -29.5 12t-11.5 30q0 22 17.5 39t40.5 17q47 0 55 47q6 31 10.5 84.5t9.5 79.5q9 49 34 86t61 47q-53 23 -53 94q0 44 22 119t22 94 q0 37 -40 37q-18 0 -29.5 12t-11.5 30q0 23 18.5 39.5t44.5 16.5q66 0 98 -33.5t32 -82.5q0 -45 -28 -124.5t-28 -114.5q0 -26 13.5 -35.5t42.5 -9.5q15 0 25 -10.5t10 -25.5z"/>
<glyph unicode="~" horiz-adv-x="468" d="M365 221q-37 0 -90.5 29.5t-75.5 29.5q-20 0 -39 -27q-18 -24 -41 -24q-19 0 -33 13.5t-14 33.5q0 11 7 25q16 32 50 52.5t79 20.5q38 0 92 -29.5t74 -29.5t39 27q18 24 41 24q20 0 33.5 -14t13.5 -33q0 -11 -7 -25q-16 -32 -50 -52.5t-79 -20.5z"/>
<glyph unicode="¡" horiz-adv-x="212" d="M67 -221q-64 0 -51 56l89 398q9 38 49 38q42 0 37 -38l-52 -398q-7 -56 -72 -56zM189 468q56 0 56 -51q0 -39 -20.5 -60t-58.5 -21q-55 0 -55 52q0 80 78 80z"/>
<glyph unicode="¢" horiz-adv-x="451" d="M63 168q0 114 55 197t164 99l7 38q4 20 19.5 33.5t34.5 13.5q20 0 31.5 -13.5t7.5 -33.5l-7 -39q68 -16 104 -70q7 -11 7 -25q0 -20 -14.5 -34t-34.5 -14q-22 0 -36 17q-35 39 -89 39q-64 0 -101.5 -57t-37.5 -142q0 -98 87 -98q13 0 25 2t24 7.5t18 9t19 12t15 9.5 q16 10 30 10q19 0 33 -13.5t14 -33.5q0 -23 -22 -40q-54 -42 -125 -52l-7 -39q-4 -20 -19.5 -33.5t-35.5 -13.5t-31 14t-7 33l7 40q-135 24 -135 177z"/>
<glyph unicode="£" horiz-adv-x="586" d="M270 362h143q18 0 30 -12.5t12 -30.5q0 -23 -18 -40t-42 -17h-103q1 -7 1 -16q0 -84 -88 -145q31 16 66 16q29 0 71 -15.5t64 -15.5q43 0 70 39q19 28 48 28q22 0 38 -15.5t16 -38.5q0 -16 -10 -32q-54 -82 -167 -82q-29 0 -86 22t-88 22q-35 0 -75 -27q-18 -12 -35 -12 q-22 0 -37.5 15.5t-15.5 37.5q0 27 27 48t43 35.5t33.5 45t17.5 62.5q0 13 -3 28h-59q-18 0 -30 12.5t-12 30.5q0 23 18 40t42 17h15q-16 54 -16 94q0 99 69.5 165t194.5 66q84 0 138.5 -36.5t67.5 -99.5q2 -10 2 -18q0 -22 -15.5 -37.5t-37.5 -15.5q-20 0 -33 11.5 t-17 24.5q-23 71 -122 71q-59 0 -97.5 -35.5t-38.5 -91.5q0 -41 19 -98z"/>
<glyph unicode="¤" horiz-adv-x="468" d="M317 120q-56 0 -98 24l-28 -28q-17 -15 -37 -15q-22 0 -37 15t-15 37t16 38l28 27q-23 39 -23 92t26 94l-30 26q-17 15 -17 39q0 22 15 37t37 15q20 0 37 -15l30 -30q40 24 96 24q55 0 96 -24l30 30q17 15 37 15q22 0 37 -15t15 -37q0 -24 -17 -39l-30 -26q26 -41 26 -94 t-23 -92l28 -27q16 -16 16 -38t-15 -37t-37 -15q-20 0 -37 15l-28 28q-42 -24 -98 -24zM317 403q-40 0 -65.5 -26.5t-25.5 -66.5q0 -39 25.5 -66t65.5 -27t65.5 27t25.5 66q0 40 -25.5 66.5t-65.5 26.5z"/>
<glyph unicode="¥" horiz-adv-x="554" d="M463 112h-108l-11 -62q-5 -25 -23.5 -41.5t-44.5 -16.5t-39.5 17t-8.5 41l11 62h-108q-17 0 -28 11.5t-11 28.5q0 21 17 36.5t38 15.5h108l7 41h-108q-16 0 -27.5 11.5t-11.5 28.5q0 21 17 36.5t38 15.5h88l-125 262q-5 10 -5 24q0 24 17 41t41 17q36 0 50 -29l115 -235 l190 240q19 24 47 24q24 0 41 -17t17 -41q0 -21 -15 -39l-216 -247h87q17 0 28 -11.5t11 -28.5q0 -21 -17 -36.5t-38 -15.5h-108l-7 -41h108q16 0 27 -11.5t11 -28.5q0 -21 -16.5 -36.5t-37.5 -15.5z"/>
<glyph unicode="¦" horiz-adv-x="220" d="M297 753l-60 -342q-4 -23 -22.5 -39t-41.5 -16t-36.5 16t-9.5 39l61 342q4 23 22.5 39t41.5 16t36 -16.5t9 -38.5zM207 238l-61 -343q-4 -23 -22.5 -39t-41.5 -16t-36.5 16t-9.5 39l61 343q4 23 22.5 39t41.5 16t36.5 -16.5t9.5 -38.5z"/>
<glyph unicode="§" horiz-adv-x="495" d="M402 211q0 27 -23.5 49.5t-52 34.5t-65 26t-50.5 22q-33 -33 -33 -68q0 -27 23.5 -49.5t52 -34.5t65 -26t50.5 -22q33 31 33 68zM70 255q0 88 82 147q-28 36 -28 89q0 82 62.5 139t178.5 57q66 0 115.5 -27t75.5 -62q11 -15 11 -32q0 -21 -15 -36t-36 -15q-20 0 -37 17 q-54 54 -127 54q-57 0 -87 -24.5t-30 -58.5q0 -32 28.5 -54.5t69 -38.5t81 -35t69 -55.5t28.5 -88.5q0 -88 -82 -147q27 -37 27 -89q0 -81 -64 -138.5t-177 -57.5q-60 0 -112 25.5t-79 63.5q-11 17 -11 32q0 21 15 36t36 15t39 -18q49 -53 125 -53q57 0 87 24.5t30 58.5 q0 32 -28.5 54.5t-68.5 38.5t-80.5 35t-69 55.5t-28.5 88.5z"/>
<glyph unicode="¨" horiz-adv-x="329" d="M166 521q-42 0 -42 40q0 64 60 64q42 0 42 -40q0 -31 -15.5 -47.5t-44.5 -16.5zM347 521q-42 0 -42 40q0 64 60 64q42 0 42 -40q0 -31 -15.5 -47.5t-44.5 -16.5z"/>
<glyph unicode="©" horiz-adv-x="791" d="M467 155q-77 0 -120 44.5t-43 137.5t43 138t120 45q48 0 80.5 -18.5t46.5 -41.5q4 -7 4 -16q0 -12 -8.5 -20.5t-20.5 -8.5q-13 0 -22 10q-32 35 -80 35q-47 0 -72 -27t-25 -96q0 -68 25.5 -95t71.5 -27q52 0 87 31q8 8 20 8t20.5 -8.5t8.5 -20.5q0 -9 -5 -16 q-16 -23 -52 -38.5t-79 -15.5zM465 687q169 0 258 -87.5t89 -263.5q0 -175 -89 -262.5t-258 -87.5q-167 0 -257.5 88t-90.5 262q0 175 90.5 263t257.5 88zM465 56q136 0 203.5 68.5t67.5 211.5t-67.5 212t-203.5 69q-272 0 -272 -281q0 -280 272 -280z"/>
<glyph unicode="ª" horiz-adv-x="356" d="M373 281q0 -16 -13 -28.5t-30 -12.5h-221q-13 0 -21.5 8.5t-8.5 22.5q0 16 13 28.5t30 12.5h221q13 0 21.5 -8.5t8.5 -22.5zM427 646l-43 -245q-3 -16 -15 -26.5t-28 -10.5t-25 10.5t-5 26.5l3 15q-35 -55 -100 -55q-47 0 -73 31.5t-26 83.5q0 92 51 151.5t127 59.5 q42 0 69 -25q11 21 35 21q15 0 23.5 -11t6.5 -26zM189 482q0 -26 12.5 -43t34.5 -17q36 0 61.5 27.5t34.5 74.5l15 83q-23 17 -51 17q-45 0 -76 -38t-31 -104z"/>
<glyph unicode="«" horiz-adv-x="521" d="M81 207q0 16 16 32l186 181q11 11 28 11t28 -11.5t11 -27.5q0 -18 -15 -31l-169 -153l114 -155q6 -9 6 -21q0 -16 -11 -27.5t-28 -11.5q-21 0 -33 18l-124 172q-9 13 -9 24zM276 207q0 16 16 32l186 181q11 11 28 11q16 0 27.5 -11.5t11.5 -27.5q0 -18 -15 -31l-169 -153 l114 -155q6 -9 6 -21q0 -16 -11.5 -27.5t-27.5 -11.5q-21 0 -33 18l-124 172q-9 13 -9 24z"/>
<glyph unicode="¬" horiz-adv-x="568" d="M584 280l-42 -238q-4 -20 -21 -35t-37 -15t-33 15t-9 35l34 192h-354q-17 0 -28.5 12t-11.5 29q0 21 18 38t39 17h404q20 0 32.5 -15t8.5 -35z"/>
<glyph unicode="®" horiz-adv-x="392" d="M285 687q149 0 149 -152q0 -153 -149 -153q-70 0 -108.5 38.5t-38.5 114.5t38.5 114t108.5 38zM286 411q114 0 114 124t-114 124t-114 -124t114 -124zM279 515h-21v-44q0 -6 -4.5 -10.5t-10.5 -4.5t-10.5 4.5t-4.5 10.5v129q0 13 13 13h58q22 0 36 -14.5t14 -34.5 q0 -22 -11.5 -35.5t-28.5 -13.5l32 -36q3 -4 3 -9q0 -14 -14 -14q-8 0 -12 6zM258 541h37q24 0 24 23t-24 23h-37v-46z"/>
<glyph unicode="¯" horiz-adv-x="397" d="M423 567q0 -17 -14 -30t-31 -13h-173q-14 0 -23 9.5t-9 23.5q0 17 14 30t31 13h173q14 0 23 -9.5t9 -23.5z"/>
<glyph unicode="°" horiz-adv-x="371" d="M421 550q0 -57 -39 -96.5t-98 -39.5q-58 0 -97 39.5t-39 96.5t39 97t97 40q59 0 98 -40t39 -97zM356 550q0 30 -20 51t-52 21q-31 0 -51 -21t-20 -51q0 -29 20 -50t51 -21q32 0 52 21t20 50z"/>
<glyph unicode="±" horiz-adv-x="454" d="M511 330q0 -21 -16.5 -36.5t-37.5 -15.5h-134l-21 -120q-4 -20 -20 -34t-36 -14t-32 14.5t-8 33.5l21 120h-132q-17 0 -28 11.5t-11 28.5q0 21 16.5 36.5t38.5 15.5h133l21 121q4 20 20.5 34t36.5 14t31.5 -14.5t7.5 -33.5l-21 -121h133q16 0 27 -11.5t11 -28.5zM462 52 q0 -21 -16.5 -36.5t-37.5 -15.5h-362q-17 0 -28 11.5t-11 28.5q0 21 17 36.5t38 15.5h362q16 0 27 -11.5t11 -28.5z"/>
<glyph unicode="²" horiz-adv-x="289" d="M164 692q40 38 105 38q48 0 75 -22.5t27 -58.5q0 -38 -27 -65t-60 -39t-61.5 -26.5t-31.5 -29.5h125q12 0 19.5 -8t7.5 -19q0 -15 -12 -26t-27 -11h-167q-13 0 -22 9t-8 22q4 38 24.5 65t47.5 40.5t54 24.5t45 23.5t18 29.5q0 26 -38 26q-22 0 -58 -28q-9 -7 -20 -7 q-13 0 -22.5 9.5t-9.5 22.5q0 15 16 30z"/>
<glyph unicode="³" horiz-adv-x="276" d="M282 615q63 -7 63 -79q0 -51 -35.5 -84t-102.5 -33q-65 0 -98 51q-5 9 -5 18q0 13 8.5 22t21.5 9q16 0 25 -11q23 -26 59 -26q27 0 40.5 13.5t13.5 33.5q0 31 -32 31h-26q-10 0 -17 7t-7 18q0 14 17 30l51 45h-80q-12 0 -19.5 8t-7.5 19q0 15 11.5 26t26.5 11h141 q12 0 19.5 -8t7.5 -19q0 -17 -15 -29z"/>
<glyph unicode="´" horiz-adv-x="384" d="M211 514q-21 21 3 45l102 108q12 14 30 13.5t31 -16.5q29 -35 -6 -62l-114 -88q-26 -20 -46 0z"/>
<glyph unicode="µ" d="M225 408l-41 -233q-3 -18 -3 -29q0 -61 77 -61q89 0 105 90l41 233q4 22 22 38t41 16t36 -16t9 -38l-41 -233q-15 -86 -64 -137t-159 -51q-31 0 -57 9t-35 22l-30 -169q-4 -23 -22 -38.5t-41 -15.5t-36 15.5t-9 38.5l99 559q4 22 22.5 38t40.5 16t35.5 -16t9.5 -38z"/>
<glyph unicode="¶" horiz-adv-x="552" d="M646 629q0 -23 -18.5 -40.5t-41.5 -17.5h-13l-48 -272q-58 -332 -352 -332q-28 0 -62 7t-47 16q-24 17 -24 43q0 21 14.5 35.5t35.5 14.5q10 0 35 -8.5t42 -8.5q90 0 115 146l14 82h-22q-70 0 -114.5 46.5t-44.5 115.5q0 88 67.5 152.5t158.5 64.5h263q19 0 30.5 -12.5 t11.5 -31.5zM459 571h-37l-61 -345q-18 -102 -81 -159q50 16 80 65t46 138z"/>
<glyph unicode="·" horiz-adv-x="225" d="M154 235q-56 0 -56 51q0 39 20.5 60t58.5 21q55 0 55 -52q0 -80 -78 -80z"/>
<glyph unicode="¸" horiz-adv-x="327" d="M241 -123q0 -52 -32 -82.5t-96 -30.5q-43 0 -72 21q-12 9 -12 22q0 11 7.5 18.5t18.5 7.5q6 0 12 -3q25 -14 59 -14q58 0 58 53q0 34 -48 34q-9 0 -23.5 -3t-21.5 -3q-21 0 -17 22l14 81h50l-14 -53q14 3 36 3q37 0 59 -19t22 -54z"/>
<glyph unicode="¹" horiz-adv-x="228" d="M219 422q-15 0 -24.5 11t-6.5 26l30 169l-36 -20q-8 -4 -15 -4q-13 0 -23.5 10t-10.5 24q0 20 20 31l98 52q12 6 20 6q16 0 25 -11t7 -26l-41 -231q-2 -15 -15 -26t-28 -11z"/>
<glyph unicode="º" horiz-adv-x="362" d="M373 281q0 -16 -13 -28.5t-30 -12.5h-221q-13 0 -21.5 8.5t-8.5 22.5q0 16 13 28.5t30 12.5h221q13 0 21.5 -8.5t8.5 -22.5zM255 424q49 0 71.5 40t22.5 95q0 65 -59 65q-49 0 -71.5 -40t-22.5 -95q0 -65 59 -65zM244 361q-59 0 -91 29.5t-32 87.5q0 87 44.5 148 t135.5 61q59 0 91 -29.5t32 -87.5q0 -87 -44.5 -148t-135.5 -61z"/>
<glyph unicode="»" horiz-adv-x="521" d="M513 217q0 -16 -16 -32l-186 -181q-11 -11 -28 -11t-28 11.5t-11 27.5q0 18 15 31l169 153l-114 155q-6 9 -6 21q0 16 11 27.5t28 11.5q21 0 33 -18l124 -172q9 -14 9 -24zM318 217q0 -16 -16 -32l-186 -181q-11 -11 -28 -11q-16 0 -27.5 11.5t-11.5 27.5q0 18 15 31 l169 153l-114 155q-6 9 -6 21q0 16 11.5 27.5t27.5 11.5q21 0 33 -18l124 -172q9 -14 9 -24z"/>
<glyph unicode="¼" horiz-adv-x="512" d="M489 260l-25 -144h15q12 0 19.5 -8t7.5 -19q0 -15 -11.5 -26t-26.5 -11h-15l-4 -23q-3 -16 -15 -26.5t-29 -10.5q-15 0 -24 11t-6 26l4 23h-99q-12 0 -20 8.5t-8 19.5q0 13 11 25l160 175q17 17 35 17q15 0 24.5 -11t6.5 -26zM344 116h46l12 67zM207 379q-15 0 -24.5 11 t-6.5 26l30 169l-36 -20q-8 -4 -15 -4q-13 0 -23.5 10.5t-10.5 23.5q0 20 20 31l98 52q12 6 20 6q16 0 25 -11t7 -26l-41 -231q-2 -15 -15 -26t-28 -11zM94 56l341 601q14 24 38 24q17 0 29.5 -12.5t12.5 -29.5q0 -11 -7 -23l-340 -600q-13 -24 -38 -24q-17 0 -29.5 12.5 t-12.5 29.5q0 12 6 22z"/>
<glyph unicode="½" horiz-adv-x="548" d="M98 56l341 601q14 24 38 24q17 0 29.5 -12.5t12.5 -29.5q0 -11 -7 -23l-340 -600q-13 -24 -38 -24q-17 0 -29.5 12.5t-12.5 29.5q0 12 6 22zM211 379q-15 0 -24.5 11t-6.5 26l30 169l-36 -20q-8 -4 -15 -4q-13 0 -23.5 10.5t-10.5 23.5q0 20 20 31l98 52q12 6 20 6 q16 0 25 -11t7 -26l-41 -231q-2 -15 -15 -26t-28 -11zM352 267q40 38 105 38q48 0 75 -22.5t27 -58.5q0 -38 -27 -65t-60 -39t-61.5 -26.5t-31.5 -29.5h125q12 0 19.5 -8t7.5 -19q0 -15 -12 -26t-27 -11h-167q-13 0 -22 9t-8 22q4 38 24.5 65t47.5 40.5t54 24.5t45 23.5 t18 29.5q0 26 -38 26q-22 0 -58 -28q-9 -7 -20 -7q-13 0 -22.5 9.5t-9.5 22.5q0 15 16 30z"/>
<glyph unicode="¾" horiz-adv-x="558" d="M150 56l341 601q14 24 38 24q17 0 29.5 -12.5t12.5 -29.5q0 -11 -7 -23l-340 -600q-13 -24 -38 -24q-17 0 -29.5 12.5t-12.5 29.5q0 12 6 22zM275 572q63 -7 63 -79q0 -51 -35.5 -84t-102.5 -33q-65 0 -98 51q-5 9 -5 18q0 13 8.5 22t21.5 9q16 0 25 -11q23 -26 59 -26 q27 0 40.5 13.5t13.5 33.5q0 31 -32 31h-26q-10 0 -17 7t-7 18q0 14 17 30l51 45h-80q-12 0 -19.5 8t-7.5 19q0 15 11.5 26t26.5 11h141q12 0 19.5 -8t7.5 -19q0 -16 -15 -29zM546 260l-25 -144h15q12 0 19.5 -8t7.5 -19q0 -15 -11.5 -26t-26.5 -11h-15l-4 -23 q-3 -16 -15 -26.5t-29 -10.5q-15 0 -24 11t-6 26l4 23h-99q-12 0 -20 8.5t-8 19.5q0 13 11 25l160 175q17 17 35 17q15 0 24.5 -11t6.5 -26zM401 116h46l12 67z"/>
<glyph unicode="¿" horiz-adv-x="453" d="M286 289q29 0 49.5 -23.5t20.5 -60.5q0 -41 -24.5 -73t-59.5 -53t-70.5 -40t-60 -45t-24.5 -58q0 -31 23 -48t65 -17q43 0 72.5 21.5t36.5 62.5q4 25 23 40t42 15q20 0 33 -13.5t13 -33.5q0 -81 -65 -135.5t-172 -54.5q-87 0 -134.5 37.5t-47.5 106.5q0 55 24.5 96.5 t59 64.5t69 40.5t59 34.5t24.5 35q0 11 -5 26t-5 24q0 22 15.5 36.5t38.5 14.5zM331 468q56 0 56 -51q0 -39 -20.5 -60t-58.5 -21q-55 0 -55 52q0 80 78 80z"/>
<glyph unicode="À" horiz-adv-x="624" d="M449 281l-47 210l-122 -210h169zM469 175h-247l-88 -154q-17 -29 -50 -29q-25 0 -41 16.5t-16 40.5q0 15 9 30l337 565q21 37 59 37q20 0 32 -11.5t15 -24.5l134 -579q2 -6 2 -17q0 -23 -17 -40t-40 -17q-44 0 -55 42zM512 722q-21 -20 -41 0l-92 88q-12 10 -10 28.5 t20 33.5q21 15 36.5 14.5t24.5 -13.5l69 -107q15 -24 -7 -44z"/>
<glyph unicode="Á" horiz-adv-x="624" d="M449 281l-47 210l-122 -210h169zM469 175h-247l-88 -154q-17 -29 -50 -29q-25 0 -41 16.5t-16 40.5q0 15 9 30l337 565q21 37 59 37q20 0 32 -11.5t15 -24.5l134 -579q2 -6 2 -17q0 -23 -17 -40t-40 -17q-44 0 -55 42zM367 722q-21 21 3 45l102 108q12 14 30 13.5 t31 -16.5q29 -35 -6 -62l-114 -88q-26 -20 -46 0z"/>
<glyph unicode="Â" horiz-adv-x="624" d="M449 281l-47 210l-122 -210h169zM469 175h-247l-88 -154q-17 -29 -50 -29q-25 0 -41 16.5t-16 40.5q0 15 9 30l337 565q21 37 59 37q20 0 32 -11.5t15 -24.5l134 -579q2 -6 2 -17q0 -23 -17 -40t-40 -17q-44 0 -55 42zM463 856q12 0 23 -8l78 -63q15 -12 15 -31 q0 -16 -11.5 -27.5t-27.5 -11.5q-14 0 -24 8l-61 50l-82 -51q-11 -7 -24 -7q-17 0 -28 11.5t-11 28.5q0 23 21 34l105 58q16 9 27 9z"/>
<glyph unicode="Ã" horiz-adv-x="624" d="M449 281l-47 210l-122 -210h169zM469 175h-247l-88 -154q-17 -29 -50 -29q-25 0 -41 16.5t-16 40.5q0 15 9 30l337 565q21 37 59 37q20 0 32 -11.5t15 -24.5l134 -579q2 -6 2 -17q0 -23 -17 -40t-40 -17q-44 0 -55 42zM514 803q11 0 28 19q13 14 30 14q16 0 27.5 -11 t11.5 -28q0 -12 -6 -22q-28 -46 -95 -46q-31 0 -69.5 17t-50.5 17q-15 0 -30 -17q-14 -16 -32 -16q-16 0 -27.5 11t-11.5 28q0 12 6 22q28 46 96 46q30 0 68.5 -17t54.5 -17z"/>
<glyph unicode="Ä" horiz-adv-x="624" d="M449 281l-47 210l-122 -210h169zM469 175h-247l-88 -154q-17 -29 -50 -29q-25 0 -41 16.5t-16 40.5q0 15 9 30l337 565q21 37 59 37q20 0 32 -11.5t15 -24.5l134 -579q2 -6 2 -17q0 -23 -17 -40t-40 -17q-44 0 -55 42zM351 740q-42 0 -42 40q0 64 60 64q42 0 42 -40 q0 -31 -15.5 -47.5t-44.5 -16.5zM532 740q-42 0 -42 40q0 64 60 64q42 0 42 -40q0 -31 -15.5 -47.5t-44.5 -16.5z"/>
<glyph unicode="Å" horiz-adv-x="624" d="M449 281l-47 210l-122 -210h169zM469 175h-247l-88 -154q-17 -29 -50 -29q-25 0 -41 16.5t-16 40.5q0 15 9 30l337 565q21 37 59 37q20 0 32 -11.5t15 -24.5l134 -579q2 -6 2 -17q0 -23 -17 -40t-40 -17q-44 0 -55 42zM444 753q29 0 44.5 17.5t15.5 46.5q0 34 -43 34 q-29 0 -44.5 -17.5t-15.5 -46.5q0 -34 43 -34zM470 901q90 0 90 -75q0 -54 -33 -88.5t-92 -34.5q-90 0 -90 75q0 54 33 88.5t92 34.5z"/>
<glyph unicode="Æ" horiz-adv-x="864" d="M349 291h104l29 166zM782 0h-323q-24 0 -38 16t-10 40l23 129h-167l-137 -170q-19 -23 -45 -23q-22 0 -38 16t-16 38q0 20 15 37l474 564q22 26 59 26h311q19 0 31.5 -12.5t12.5 -31.5q0 -24 -19 -42t-43 -18h-254l-32 -179h189q19 0 31 -12.5t12 -31.5 q0 -23 -18.5 -40.5t-42.5 -17.5h-189l-32 -184h265q19 0 31 -12.5t12 -31.5q0 -24 -19 -42t-43 -18z"/>
<glyph unicode="Ç" horiz-adv-x="640" d="M440 -123q0 -52 -32 -82.5t-96 -30.5q-44 0 -72 21q-12 9 -12 22q0 11 8 18.5t18 7.5q6 0 12 -3q25 -14 59 -14q58 0 58 53q0 34 -48 34q-9 0 -23.5 -3t-21.5 -3q-21 0 -17 22l12 72q-95 15 -148 80.5t-53 173.5q0 205 101.5 323.5t282.5 118.5q85 0 141 -32.5t81 -82.5 q6 -14 6 -25q0 -23 -16 -38.5t-38 -15.5q-28 0 -42 20q-51 70 -150 70q-66 0 -115.5 -27.5t-76.5 -75t-40 -103.5t-13 -122q0 -164 158 -164q92 0 166 65q26 22 46 22q22 0 38 -15.5t16 -35.5q0 -23 -16 -41q-44 -47 -115.5 -73.5t-152.5 -26.5h-12l-10 -39q14 3 36 3 q37 0 59 -19t22 -54z"/>
<glyph unicode="È" horiz-adv-x="523" d="M277 569l-32 -179h189q19 0 31 -12.5t12 -31.5q0 -23 -18.5 -40.5t-42.5 -17.5h-189l-32 -184h265q19 0 31 -12.5t12 -31.5q0 -25 -18.5 -42.5t-43.5 -17.5h-323q-24 0 -38 17t-9 41l98 557q5 24 24.5 41t43.5 17h312q19 0 31.5 -12.5t12.5 -31.5q0 -24 -19 -42t-43 -18 h-254zM473 722q-21 -20 -41 0l-92 88q-12 10 -10 28.5t20 33.5q21 15 36.5 14.5t24.5 -13.5l69 -107q15 -24 -7 -44z"/>
<glyph unicode="É" horiz-adv-x="523" d="M277 569l-32 -179h189q19 0 31 -12.5t12 -31.5q0 -23 -18.5 -40.5t-42.5 -17.5h-189l-32 -184h265q19 0 31 -12.5t12 -31.5q0 -25 -18.5 -42.5t-43.5 -17.5h-323q-24 0 -38 17t-9 41l98 557q5 24 24.5 41t43.5 17h312q19 0 31.5 -12.5t12.5 -31.5q0 -24 -19 -42t-43 -18 h-254zM350 722q-21 21 3 45l102 108q12 14 30 13.5t31 -16.5q29 -35 -6 -62l-114 -88q-26 -20 -46 0z"/>
<glyph unicode="Ê" horiz-adv-x="523" d="M277 569l-32 -179h189q19 0 31 -12.5t12 -31.5q0 -23 -18.5 -40.5t-42.5 -17.5h-189l-32 -184h265q19 0 31 -12.5t12 -31.5q0 -25 -18.5 -42.5t-43.5 -17.5h-323q-24 0 -38 17t-9 41l98 557q5 24 24.5 41t43.5 17h312q19 0 31.5 -12.5t12.5 -31.5q0 -24 -19 -42t-43 -18 h-254zM430 856q12 0 23 -8l78 -63q15 -12 15 -31q0 -16 -11 -27.5t-28 -11.5q-14 0 -24 8l-61 50l-82 -51q-11 -7 -24 -7q-17 0 -28 11.5t-11 28.5q0 23 21 34l105 58q16 9 27 9z"/>
<glyph unicode="Ë" horiz-adv-x="523" d="M277 569l-32 -179h189q19 0 31 -12.5t12 -31.5q0 -23 -18.5 -40.5t-42.5 -17.5h-189l-32 -184h265q19 0 31 -12.5t12 -31.5q0 -25 -18.5 -42.5t-43.5 -17.5h-323q-24 0 -38 17t-9 41l98 557q5 24 24.5 41t43.5 17h312q19 0 31.5 -12.5t12.5 -31.5q0 -24 -19 -42t-43 -18 h-254zM317 740q-42 0 -42 40q0 64 60 64q42 0 42 -40q0 -31 -15.5 -47.5t-44.5 -16.5zM498 740q-42 0 -42 40q0 64 60 64q42 0 42 -40q0 -31 -15.5 -47.5t-44.5 -16.5z"/>
<glyph unicode="Ì" horiz-adv-x="236" d="M238 681q24 0 38 -17t10 -41l-101 -573q-4 -24 -24.5 -41t-44.5 -17t-38 17t-9 41l101 573q5 24 24.5 41t43.5 17zM318 722q-21 -20 -41 0l-92 88q-12 10 -10 28.5t20 33.5q21 15 36.5 14.5t24.5 -13.5l69 -107q15 -24 -7 -44z"/>
<glyph unicode="Í" horiz-adv-x="236" d="M238 681q24 0 38 -17t10 -41l-101 -573q-4 -24 -24.5 -41t-44.5 -17t-38 17t-9 41l101 573q5 24 24.5 41t43.5 17zM192 722q-21 21 3 45l102 108q12 14 30 13.5t31 -16.5q29 -35 -6 -62l-114 -88q-26 -20 -46 0z"/>
<glyph unicode="Î" horiz-adv-x="236" d="M238 681q24 0 38 -17t10 -41l-101 -573q-4 -24 -24.5 -41t-44.5 -17t-38 17t-9 41l101 573q5 24 24.5 41t43.5 17zM270 856q12 0 23 -8l78 -63q15 -12 15 -31q0 -16 -11 -27.5t-28 -11.5q-14 0 -24 8l-61 50l-82 -51q-10 -7 -24 -7q-17 0 -28 11.5t-11 28.5q0 23 21 34 l105 58q16 9 27 9z"/>
<glyph unicode="Ï" horiz-adv-x="236" d="M238 681q24 0 38 -17t10 -41l-101 -573q-4 -24 -24.5 -41t-44.5 -17t-38 17t-9 41l101 573q5 24 24.5 41t43.5 17zM161 740q-42 0 -42 40q0 64 60 64q42 0 42 -40q0 -31 -15.5 -47.5t-44.5 -16.5zM342 740q-42 0 -42 40q0 64 60 64q42 0 42 -40q0 -31 -15.5 -47.5 t-44.5 -16.5z"/>
<glyph unicode="Ð" horiz-adv-x="635" d="M261 673h135q132 0 203.5 -65.5t71.5 -200.5q0 -196 -101.5 -301.5t-284.5 -105.5h-143q-24 0 -38 17t-9 41l43 244h-21q-17 0 -28 11.5t-11 28.5q0 21 16.5 36.5t38.5 15.5h21l39 221q5 24 24.5 41t43.5 17zM301 569l-31 -175h142q16 0 27 -11.5t11 -28.5 q0 -21 -16.5 -36.5t-37.5 -15.5h-142l-35 -198h77q122 0 187.5 76t65.5 218q0 90 -43.5 130.5t-127.5 40.5h-77z"/>
<glyph unicode="Ñ" horiz-adv-x="623" d="M631 681q23 0 37 -17t10 -40l-102 -575q-4 -23 -24 -40t-43 -17q-30 0 -42 25l-219 432l-71 -400q-4 -23 -24 -40t-43 -17t-36.5 17t-9.5 40l101 575q5 24 23 40.5t43 16.5q29 0 42 -24l221 -429l70 396q4 23 24 40t43 17zM513 803q11 0 28 19q13 14 30 14t28 -11t11 -28 q0 -12 -6 -22q-28 -46 -95 -46q-31 0 -69.5 17t-50.5 17q-15 0 -30 -17q-14 -16 -32 -16q-17 0 -28 11t-11 28q0 12 6 22q28 46 96 46q30 0 68.5 -17t54.5 -17z"/>
<glyph unicode="Ò" horiz-adv-x="702" d="M349 -14q186 0 287 124t101 325q0 125 -68 188.5t-197 63.5q-186 0 -287 -124t-101 -325q0 -125 68 -188.5t197 -63.5zM454 583q162 0 162 -165q0 -49 -8.5 -95t-27.5 -88.5t-47 -74.5t-71 -51t-95 -19q-162 0 -162 165q0 49 8.5 95t27.5 88.5t47 74.5t71 51t95 19z M551 722q-21 -20 -41 0l-92 88q-12 10 -10 28.5t20 33.5q21 15 36.5 14.5t24.5 -13.5l69 -107q15 -24 -7 -44z"/>
<glyph unicode="Ó" horiz-adv-x="702" d="M349 -14q186 0 287 124t101 325q0 125 -68 188.5t-197 63.5q-186 0 -287 -124t-101 -325q0 -125 68 -188.5t197 -63.5zM454 583q162 0 162 -165q0 -49 -8.5 -95t-27.5 -88.5t-47 -74.5t-71 -51t-95 -19q-162 0 -162 165q0 49 8.5 95t27.5 88.5t47 74.5t71 51t95 19z M423 722q-21 21 3 45l102 108q12 14 30 13.5t31 -16.5q29 -35 -6 -62l-114 -88q-26 -20 -46 0z"/>
<glyph unicode="Ô" horiz-adv-x="702" d="M349 -14q186 0 287 124t101 325q0 125 -68 188.5t-197 63.5q-186 0 -287 -124t-101 -325q0 -125 68 -188.5t197 -63.5zM454 583q162 0 162 -165q0 -49 -8.5 -95t-27.5 -88.5t-47 -74.5t-71 -51t-95 -19q-162 0 -162 165q0 49 8.5 95t27.5 88.5t47 74.5t71 51t95 19z M501 856q12 0 23 -8l78 -63q15 -12 15 -31q0 -16 -11.5 -27.5t-27.5 -11.5q-14 0 -24 8l-61 50l-82 -51q-11 -7 -24 -7q-17 0 -28 11.5t-11 28.5q0 23 21 34l105 58q16 9 27 9z"/>
<glyph unicode="Õ" horiz-adv-x="702" d="M349 -14q186 0 287 124t101 325q0 125 -68 188.5t-197 63.5q-186 0 -287 -124t-101 -325q0 -125 68 -188.5t197 -63.5zM454 583q162 0 162 -165q0 -49 -8.5 -95t-27.5 -88.5t-47 -74.5t-71 -51t-95 -19q-162 0 -162 165q0 49 8.5 95t27.5 88.5t47 74.5t71 51t95 19z M553 803q11 0 28 19q13 14 30 14t28 -11t11 -28q0 -12 -6 -22q-28 -46 -95 -46q-31 0 -69.5 17t-50.5 17q-15 0 -30 -17q-14 -16 -32 -16q-17 0 -28 11t-11 28q0 12 6 22q28 46 96 46q30 0 68.5 -17t54.5 -17z"/>
<glyph unicode="Ö" horiz-adv-x="702" d="M349 -14q186 0 287 124t101 325q0 125 -68 188.5t-197 63.5q-186 0 -287 -124t-101 -325q0 -125 68 -188.5t197 -63.5zM454 583q162 0 162 -165q0 -49 -8.5 -95t-27.5 -88.5t-47 -74.5t-71 -51t-95 -19q-162 0 -162 165q0 49 8.5 95t27.5 88.5t47 74.5t71 51t95 19z M390 740q-42 0 -42 40q0 64 60 64q42 0 42 -40q0 -31 -15.5 -47.5t-44.5 -16.5zM571 740q-42 0 -42 40q0 64 60 64q42 0 42 -40q0 -31 -15.5 -47.5t-44.5 -16.5z"/>
<glyph unicode="×" horiz-adv-x="372" d="M234 287l119 99q14 12 32 12q20 0 34.5 -14.5t14.5 -34.5q0 -24 -19 -39l-121 -93l83 -97q11 -14 11 -31q0 -20 -14.5 -34.5t-34.5 -14.5q-23 0 -36 16l-85 97l-119 -99q-16 -14 -35 -14q-20 0 -34.5 14.5t-14.5 34.5q0 25 22 41l121 93l-85 94q-12 12 -12 32t14.5 34.5 t34.5 14.5q22 0 34 -14z"/>
<glyph unicode="Ø" horiz-adv-x="702" d="M349 -14q-112 0 -177 46l-42 -42q-16 -16 -34 -16t-31 13t-13 31q0 20 16 34l46 47q-30 55 -30 139q0 201 101 325t287 124q112 0 178 -48l40 41q16 16 34 16t31 -13t13 -31q0 -20 -16 -34l-45 -45q30 -55 30 -138q0 -201 -101 -325t-287 -124zM454 583q-52 0 -95 -19 t-71 -51t-47 -74.5t-27.5 -88.5t-8.5 -95q0 -32 6 -59l352 356q-38 31 -109 31zM367 90q52 0 95 19t71 51t47 74.5t27.5 88.5t8.5 95q0 30 -6 56l-351 -354q39 -30 108 -30z"/>
<glyph unicode="Ù" horiz-adv-x="619" d="M319 -14q-118 0 -171 49.5t-53 127.5q0 25 5 57l70 403q5 24 24.5 41t43.5 17t38 -17t10 -41l-71 -403q-3 -16 -3 -37q0 -95 116 -95q135 0 159 132l71 403q5 24 24.5 41t43.5 17t38 -17t10 -41l-71 -403q-7 -38 -17 -68.5t-31 -62.5t-50.5 -53.5t-77 -35.5t-108.5 -14z M501 722q-21 -20 -41 0l-92 88q-12 10 -10 28.5t20 33.5q21 15 36.5 14.5t24.5 -13.5l69 -107q15 -24 -7 -44z"/>
<glyph unicode="Ú" horiz-adv-x="619" d="M319 -14q-118 0 -171 49.5t-53 127.5q0 25 5 57l70 403q5 24 24.5 41t43.5 17t38 -17t10 -41l-71 -403q-3 -16 -3 -37q0 -95 116 -95q135 0 159 132l71 403q5 24 24.5 41t43.5 17t38 -17t10 -41l-71 -403q-7 -38 -17 -68.5t-31 -62.5t-50.5 -53.5t-77 -35.5t-108.5 -14z M398 722q-21 21 3 45l102 108q12 14 30 13.5t31 -16.5q29 -35 -6 -62l-114 -88q-26 -20 -46 0z"/>
<glyph unicode="Û" horiz-adv-x="619" d="M319 -14q-118 0 -171 49.5t-53 127.5q0 25 5 57l70 403q5 24 24.5 41t43.5 17t38 -17t10 -41l-71 -403q-3 -16 -3 -37q0 -95 116 -95q135 0 159 132l71 403q5 24 24.5 41t43.5 17t38 -17t10 -41l-71 -403q-7 -38 -17 -68.5t-31 -62.5t-50.5 -53.5t-77 -35.5t-108.5 -14z M467 856q12 0 23 -8l78 -63q15 -12 15 -31q0 -16 -11.5 -27.5t-27.5 -11.5q-14 0 -24 8l-61 50l-82 -51q-11 -7 -24 -7q-17 0 -28 11.5t-11 28.5q0 23 21 34l105 58q17 9 27 9z"/>
<glyph unicode="Ü" horiz-adv-x="619" d="M319 -14q-118 0 -171 49.5t-53 127.5q0 25 5 57l70 403q5 24 24.5 41t43.5 17t38 -17t10 -41l-71 -403q-3 -16 -3 -37q0 -95 116 -95q135 0 159 132l71 403q5 24 24.5 41t43.5 17t38 -17t10 -41l-71 -403q-7 -38 -17 -68.5t-31 -62.5t-50.5 -53.5t-77 -35.5t-108.5 -14z M353 740q-42 0 -42 40q0 64 60 64q42 0 42 -40q0 -31 -15.5 -47.5t-44.5 -16.5zM534 740q-42 0 -42 40q0 64 60 64q42 0 42 -40q0 -31 -15.5 -47.5t-44.5 -16.5z"/>
<glyph unicode="Ý" horiz-adv-x="554" d="M186 681q36 0 50 -29l115 -235l190 240q19 24 47 24q24 0 41 -17t17 -41q0 -21 -15 -39l-242 -277l-45 -257q-5 -25 -23.5 -41.5t-44.5 -16.5t-39.5 17t-8.5 41l45 257l-140 292q-5 10 -5 24q0 24 17 41t41 17zM361 722q-21 21 3 45l102 108q12 14 30 13.5t31 -16.5 q29 -35 -6 -62l-114 -88q-26 -20 -46 0z"/>
<glyph unicode="Þ" horiz-adv-x="552" d="M286 623l-12 -68h133q80 0 129 -42.5t49 -123.5q0 -110 -72.5 -177.5t-178.5 -67.5h-132l-17 -94q-4 -24 -24.5 -41t-44.5 -17t-38 17t-9 41l101 573q5 24 24.5 41t43.5 17t38 -17t10 -41zM379 451h-124l-35 -203h124q53 0 86 35t33 88q0 39 -22 59.5t-62 20.5z"/>
<glyph unicode="ß" horiz-adv-x="588" d="M475 130q0 20 -22 34.5t-53 25.5t-62 25t-53 40.5t-22 62.5q0 41 27.5 74.5t60 51t60 41.5t27.5 50q0 22 -17.5 39t-59.5 17q-46 0 -76.5 -25.5t-38.5 -68.5l-86 -490q-16 -92 -72.5 -150t-156.5 -58q-17 0 -28.5 11.5t-11.5 28.5q0 22 17 38t39 16q85 0 104 108l63 363 h-20q-16 0 -27 11t-11 27q0 21 16.5 36.5t37.5 15.5h20l6 35q15 87 75.5 141.5t165.5 54.5q78 0 124.5 -40.5t46.5 -97.5q0 -34 -13 -60t-32.5 -41.5t-42 -30t-42 -24.5t-32.5 -25.5t-13 -33.5q0 -21 33.5 -39.5t73 -32t73 -43.5t33.5 -71q0 -74 -53 -115.5t-148 -41.5 q-59 0 -107.5 24.5t-66.5 52.5q-7 11 -7 24q0 20 14 34t34 14q17 0 33 -13q45 -40 108 -40q37 0 59.5 12.5t22.5 32.5z"/>
<glyph unicode="à" horiz-adv-x="494" d="M520 408l-64 -362q-4 -23 -21.5 -38.5t-41.5 -15.5q-23 0 -36 15.5t-8 38.5l5 23q-50 -82 -148 -82q-70 0 -108 46.5t-38 122.5q0 136 75 224t188 88q63 0 101 -36q17 30 52 30q22 0 35 -15.5t9 -38.5zM170 166q0 -39 18.5 -64t50.5 -25q54 0 91 40.5t50 110.5l22 122 q-33 24 -75 24q-67 0 -112 -55.5t-45 -152.5zM408 514q-21 -20 -41 0l-92 88q-12 10 -10 28.5t20 33.5q21 15 36.5 14.5t24.5 -13.5l69 -107q15 -24 -7 -44z"/>
<glyph unicode="á" horiz-adv-x="494" d="M520 408l-64 -362q-4 -23 -21.5 -38.5t-41.5 -15.5q-23 0 -36 15.5t-8 38.5l5 23q-50 -82 -148 -82q-70 0 -108 46.5t-38 122.5q0 136 75 224t188 88q63 0 101 -36q17 30 52 30q22 0 35 -15.5t9 -38.5zM170 166q0 -39 18.5 -64t50.5 -25q54 0 91 40.5t50 110.5l22 122 q-33 24 -75 24q-67 0 -112 -55.5t-45 -152.5zM293 514q-21 21 3 45l102 108q12 14 30 13.5t31 -16.5q29 -35 -6 -62l-114 -88q-26 -20 -46 0z"/>
<glyph unicode="â" horiz-adv-x="494" d="M520 408l-64 -362q-4 -23 -21.5 -38.5t-41.5 -15.5q-23 0 -36 15.5t-8 38.5l5 23q-50 -82 -148 -82q-70 0 -108 46.5t-38 122.5q0 136 75 224t188 88q63 0 101 -36q17 30 52 30q22 0 35 -15.5t9 -38.5zM170 166q0 -39 18.5 -64t50.5 -25q54 0 91 40.5t50 110.5l22 122 q-33 24 -75 24q-67 0 -112 -55.5t-45 -152.5zM371 657q12 0 23 -8l78 -63q15 -12 15 -31q0 -17 -11.5 -28t-27.5 -11q-14 0 -24 8l-61 50l-82 -51q-11 -7 -24 -7q-17 0 -28 11.5t-11 28.5q0 23 21 34l105 58q16 9 27 9z"/>
<glyph unicode="ã" horiz-adv-x="494" d="M520 408l-64 -362q-4 -23 -21.5 -38.5t-41.5 -15.5q-23 0 -36 15.5t-8 38.5l5 23q-50 -82 -148 -82q-70 0 -108 46.5t-38 122.5q0 136 75 224t188 88q63 0 101 -36q17 30 52 30q22 0 35 -15.5t9 -38.5zM170 166q0 -39 18.5 -64t50.5 -25q54 0 91 40.5t50 110.5l22 122 q-33 24 -75 24q-67 0 -112 -55.5t-45 -152.5zM422 599q11 0 28 19q13 14 30 14q16 0 27.5 -11t11.5 -28q0 -12 -6 -22q-28 -46 -95 -46q-31 0 -69.5 17t-50.5 17q-15 0 -30 -17q-14 -16 -32 -16q-16 0 -27.5 11t-11.5 28q0 12 6 22q28 46 96 46q30 0 68.5 -17t54.5 -17z"/>
<glyph unicode="ä" horiz-adv-x="493" d="M519 408l-64 -362q-4 -23 -21.5 -38.5t-41.5 -15.5q-23 0 -36 15.5t-8 38.5l5 23q-50 -82 -148 -82q-70 0 -108 46.5t-38 122.5q0 136 75 224t188 88q63 0 101 -36q17 30 52 30q22 0 35 -15.5t9 -38.5zM169 166q0 -39 18.5 -64t50.5 -25q54 0 91 40.5t50 110.5l22 122 q-33 24 -75 24q-67 0 -112 -55.5t-45 -152.5zM256 521q-42 0 -42 40q0 64 60 64q42 0 42 -40q0 -31 -15.5 -47.5t-44.5 -16.5zM437 521q-42 0 -42 40q0 64 60 64q42 0 42 -40q0 -31 -15.5 -47.5t-44.5 -16.5z"/>
<glyph unicode="å" horiz-adv-x="494" d="M520 408l-64 -362q-4 -23 -21.5 -38.5t-41.5 -15.5q-23 0 -36 15.5t-8 38.5l5 23q-50 -82 -148 -82q-70 0 -108 46.5t-38 122.5q0 136 75 224t188 88q63 0 101 -36q17 30 52 30q22 0 35 -15.5t9 -38.5zM170 166q0 -39 18.5 -64t50.5 -25q54 0 91 40.5t50 110.5l22 122 q-33 24 -75 24q-67 0 -112 -55.5t-45 -152.5zM353 551q29 0 44.5 17.5t15.5 46.5q0 34 -43 34q-29 0 -44.5 -17.5t-15.5 -46.5q0 -34 43 -34zM379 699q90 0 90 -75q0 -54 -33 -88.5t-92 -34.5q-90 0 -90 75q0 54 33 88.5t92 34.5z"/>
<glyph unicode="æ" horiz-adv-x="777" d="M575 84q51 0 103 31q19 11 32 11q20 0 33.5 -14t13.5 -33q0 -22 -20 -39q-66 -53 -175 -53q-136 0 -173 105q-22 -39 -67.5 -72t-110.5 -33q-75 0 -113 46t-38 123q0 136 75 224t188 88q92 0 140 -68q71 68 175 68q76 0 120.5 -35.5t44.5 -87.5q0 -31 -11 -55.5t-42 -49 t-98 -38t-168 -13.5q-3 -12 -3 -28q0 -77 94 -77zM170 166q0 -39 18.5 -64t50.5 -25q51 0 88 36.5t52 100.5q7 72 40 129q-43 31 -92 31q-67 0 -112 -55.5t-45 -152.5zM632 377q-100 0 -135 -107q199 0 199 69q0 15 -15 26.5t-49 11.5z"/>
<glyph unicode="ç" horiz-adv-x="451" d="M338 -123q0 -52 -32 -82.5t-96 -30.5q-44 0 -72 21q-12 9 -12 22q0 11 8 18.5t18 7.5q6 0 12 -3q25 -14 59 -14q58 0 58 53q0 34 -48 34q-9 0 -23.5 -3t-21.5 -3q-21 0 -17 22l13 75q-121 29 -121 174q0 127 67 213.5t199 86.5q58 0 96 -24.5t54 -50.5q7 -11 7 -25 q0 -20 -14.5 -34t-34.5 -14q-22 0 -36 17q-35 39 -89 39q-64 0 -101.5 -57t-37.5 -142q0 -98 87 -98q13 0 25 2t24 7.5t18 9t19 12t15 9.5q16 10 30 10q19 0 33 -13.5t14 -33.5q0 -23 -22 -40q-71 -55 -172 -55h-13l-10 -40q14 3 36 3q37 0 59 -19t22 -54z"/>
<glyph unicode="è" horiz-adv-x="464" d="M262 84q51 0 103 31q19 11 32 11q19 0 33 -14t14 -33q0 -22 -20 -39q-66 -53 -175 -53q-87 0 -136 46.5t-49 139.5q0 130 72 212.5t189 82.5q76 0 120.5 -35.5t44.5 -87.5q0 -31 -11 -55.5t-42 -49t-98 -38t-168 -13.5q-3 -12 -3 -28q0 -77 94 -77zM319 377 q-100 0 -135 -107q199 0 199 69q0 15 -15 26.5t-49 11.5zM406 514q-21 -20 -41 0l-92 88q-12 10 -10 28.5t20 33.5q21 15 36.5 14.5t24.5 -13.5l69 -107q15 -24 -7 -44z"/>
<glyph unicode="é" horiz-adv-x="464" d="M262 84q51 0 103 31q19 11 32 11q19 0 33 -14t14 -33q0 -22 -20 -39q-66 -53 -175 -53q-87 0 -136 46.5t-49 139.5q0 130 72 212.5t189 82.5q76 0 120.5 -35.5t44.5 -87.5q0 -31 -11 -55.5t-42 -49t-98 -38t-168 -13.5q-3 -12 -3 -28q0 -77 94 -77zM319 377 q-100 0 -135 -107q199 0 199 69q0 15 -15 26.5t-49 11.5zM279 514q-21 21 3 45l102 108q12 14 30 13.5t31 -16.5q29 -35 -6 -62l-114 -88q-26 -20 -46 0z"/>
<glyph unicode="ê" horiz-adv-x="464" d="M262 84q51 0 103 31q19 11 32 11q19 0 33 -14t14 -33q0 -22 -20 -39q-66 -53 -175 -53q-87 0 -136 46.5t-49 139.5q0 130 72 212.5t189 82.5q76 0 120.5 -35.5t44.5 -87.5q0 -31 -11 -55.5t-42 -49t-98 -38t-168 -13.5q-3 -12 -3 -28q0 -77 94 -77zM319 377 q-100 0 -135 -107q199 0 199 69q0 15 -15 26.5t-49 11.5zM362 657q12 0 23 -8l78 -63q15 -12 15 -31q0 -17 -11 -28t-28 -11q-14 0 -24 8l-61 50l-82 -51q-10 -7 -24 -7q-17 0 -28 11.5t-11 28.5q0 23 21 34l105 58q17 9 27 9z"/>
<glyph unicode="ë" horiz-adv-x="464" d="M262 84q51 0 103 31q19 11 32 11q19 0 33 -14t14 -33q0 -22 -20 -39q-66 -53 -175 -53q-87 0 -136 46.5t-49 139.5q0 130 72 212.5t189 82.5q76 0 120.5 -35.5t44.5 -87.5q0 -31 -11 -55.5t-42 -49t-98 -38t-168 -13.5q-3 -12 -3 -28q0 -77 94 -77zM319 377 q-100 0 -135 -107q199 0 199 69q0 15 -15 26.5t-49 11.5zM248 521q-42 0 -42 40q0 64 60 64q42 0 42 -40q0 -31 -15.5 -47.5t-44.5 -16.5zM429 521q-42 0 -42 40q0 64 60 64q42 0 42 -40q0 -31 -15.5 -47.5t-44.5 -16.5z"/>
<glyph unicode="ì" horiz-adv-x="213" d="M235 408l-64 -362q-4 -23 -21.5 -38.5t-41.5 -15.5q-22 0 -35.5 16t-9.5 38l64 362q4 23 21.5 38.5t42.5 15.5q22 0 35 -15.5t9 -38.5zM259 514q-21 -20 -41 0l-92 88q-12 10 -10 28.5t20 33.5q21 15 36.5 14.5t24.5 -13.5l69 -107q15 -24 -7 -44z"/>
<glyph unicode="í" horiz-adv-x="213" d="M235 408l-64 -362q-4 -23 -21.5 -38.5t-41.5 -15.5q-22 0 -35.5 16t-9.5 38l64 362q4 23 21.5 38.5t42.5 15.5q22 0 35 -15.5t9 -38.5zM145 514q-21 21 3 45l102 108q12 14 30 13.5t31 -16.5q29 -35 -6 -62l-114 -88q-26 -20 -46 0z"/>
<glyph unicode="î" horiz-adv-x="213" d="M235 408l-64 -362q-4 -23 -21.5 -38.5t-41.5 -15.5q-22 0 -35.5 16t-9.5 38l64 362q4 23 21.5 38.5t42.5 15.5q22 0 35 -15.5t9 -38.5zM225 657q12 0 23 -8l78 -63q15 -12 15 -31q0 -17 -11.5 -28t-27.5 -11q-14 0 -24 8l-61 50l-82 -51q-11 -7 -24 -7q-17 0 -28 11.5 t-11 28.5q0 23 21 34l105 58q17 9 27 9z"/>
<glyph unicode="ï" horiz-adv-x="213" d="M235 408l-64 -362q-4 -23 -21.5 -38.5t-41.5 -15.5q-22 0 -35.5 16t-9.5 38l64 362q4 23 21.5 38.5t42.5 15.5q22 0 35 -15.5t9 -38.5zM111 521q-42 0 -42 40q0 64 60 64q42 0 42 -40q0 -31 -15.5 -47.5t-44.5 -16.5zM292 521q-42 0 -42 40q0 64 60 64q42 0 42 -40 q0 -31 -15.5 -47.5t-44.5 -16.5z"/>
<glyph unicode="ð" horiz-adv-x="498" d="M499 597l-29 -18q51 -88 51 -212q0 -54 -7 -103.5t-25.5 -101.5t-48.5 -89.5t-80 -61.5t-114 -24q-87 0 -135 43.5t-48 130.5q0 141 73 224t195 83q55 0 89 -21q-2 49 -24 89l-47 -29q-12 -7 -24 -7q-17 0 -30 13t-13 30q0 26 22 38l34 21q-20 15 -56 32q-24 11 -24 37 q0 17 12 29t29 12q11 0 23 -5q59 -27 95 -60l37 24q10 7 23 7q18 0 31 -13t13 -31q0 -23 -22 -37zM262 79q71 0 106.5 60.5t35.5 138.5q0 98 -89 98q-71 0 -106.5 -60.5t-35.5 -138.5q0 -98 89 -98z"/>
<glyph unicode="ñ" horiz-adv-x="499" d="M372 468q72 0 105 -34.5t33 -90.5q0 -21 -5 -49l-44 -250q-4 -22 -22 -37t-41 -15q-24 0 -36.5 14.5t-8.5 37.5l41 230q3 16 3 29q0 67 -74 67q-101 0 -118 -103l-40 -223q-4 -22 -22 -37t-41 -15q-24 0 -36.5 14t-8.5 38l64 364q4 22 22.5 38t41.5 16q19 0 32 -12.5 t13 -31.5l-1 -11q53 61 143 61zM424 599q11 0 28 19q13 14 30 14q16 0 27.5 -11t11.5 -28q0 -12 -6 -22q-28 -46 -95 -46q-31 0 -69.5 17t-50.5 17q-15 0 -30 -17q-14 -16 -32 -16q-16 0 -27.5 11t-11.5 28q0 12 6 22q28 46 96 46q30 0 68.5 -17t54.5 -17z"/>
<glyph unicode="ò" horiz-adv-x="496" d="M331 468q87 0 135 -43.5t48 -130.5q0 -60 -15.5 -113.5t-46.5 -97.5t-84 -70t-122 -26q-87 0 -135 43.5t-48 130.5q0 60 15.5 113.5t46.5 97.5t84 70t122 26zM262 79q71 0 106.5 60.5t35.5 138.5q0 98 -89 98q-71 0 -106.5 -60.5t-35.5 -138.5q0 -98 89 -98zM411 514 q-21 -20 -41 0l-92 88q-12 10 -10 28.5t20 33.5q21 15 36.5 14.5t24.5 -13.5l69 -107q15 -24 -7 -44z"/>
<glyph unicode="ó" horiz-adv-x="496" d="M331 468q87 0 135 -43.5t48 -130.5q0 -60 -15.5 -113.5t-46.5 -97.5t-84 -70t-122 -26q-87 0 -135 43.5t-48 130.5q0 60 15.5 113.5t46.5 97.5t84 70t122 26zM262 79q71 0 106.5 60.5t35.5 138.5q0 98 -89 98q-71 0 -106.5 -60.5t-35.5 -138.5q0 -98 89 -98zM291 514 q-21 21 3 45l102 108q12 14 30 13.5t31 -16.5q29 -35 -6 -62l-114 -88q-26 -20 -46 0z"/>
<glyph unicode="ô" horiz-adv-x="496" d="M331 468q87 0 135 -43.5t48 -130.5q0 -60 -15.5 -113.5t-46.5 -97.5t-84 -70t-122 -26q-87 0 -135 43.5t-48 130.5q0 60 15.5 113.5t46.5 97.5t84 70t122 26zM262 79q71 0 106.5 60.5t35.5 138.5q0 98 -89 98q-71 0 -106.5 -60.5t-35.5 -138.5q0 -98 89 -98zM366 657 q12 0 23 -8l78 -63q15 -12 15 -31q0 -17 -11 -28t-28 -11q-14 0 -24 8l-61 50l-82 -51q-10 -7 -24 -7q-17 0 -28 11.5t-11 28.5q0 23 21 34l105 58q16 9 27 9z"/>
<glyph unicode="õ" horiz-adv-x="496" d="M331 468q87 0 135 -43.5t48 -130.5q0 -60 -15.5 -113.5t-46.5 -97.5t-84 -70t-122 -26q-87 0 -135 43.5t-48 130.5q0 60 15.5 113.5t46.5 97.5t84 70t122 26zM262 79q71 0 106.5 60.5t35.5 138.5q0 98 -89 98q-71 0 -106.5 -60.5t-35.5 -138.5q0 -98 89 -98zM417 599 q11 0 28 19q13 14 30 14t28 -11t11 -28q0 -12 -6 -22q-28 -46 -95 -46q-31 0 -69.5 17t-50.5 17q-15 0 -30 -17q-14 -16 -32 -16q-17 0 -28 11t-11 28q0 12 6 22q28 46 96 46q30 0 68.5 -17t54.5 -17z"/>
<glyph unicode="ö" horiz-adv-x="496" d="M331 468q87 0 135 -43.5t48 -130.5q0 -60 -15.5 -113.5t-46.5 -97.5t-84 -70t-122 -26q-87 0 -135 43.5t-48 130.5q0 60 15.5 113.5t46.5 97.5t84 70t122 26zM262 79q71 0 106.5 60.5t35.5 138.5q0 98 -89 98q-71 0 -106.5 -60.5t-35.5 -138.5q0 -98 89 -98zM251 521 q-42 0 -42 40q0 64 60 64q42 0 42 -40q0 -31 -15.5 -47.5t-44.5 -16.5zM432 521q-42 0 -42 40q0 64 60 64q42 0 42 -40q0 -31 -15.5 -47.5t-44.5 -16.5z"/>
<glyph unicode="÷" horiz-adv-x="454" d="M186 76q0 25 19 43t45 18q21 0 34.5 -13t13.5 -32q0 -26 -19 -43.5t-47 -17.5q-21 0 -33.5 12.5t-12.5 32.5zM234 346q0 26 19 44t45 18q22 0 34.5 -13t12.5 -33q0 -26 -19 -43.5t-47 -17.5q-20 0 -32.5 12.5t-12.5 32.5zM493 225q0 -21 -16.5 -36.5t-37.5 -15.5h-362 q-17 0 -28 11.5t-11 28.5q0 21 17 36.5t38 15.5h362q16 0 27 -11.5t11 -28.5z"/>
<glyph unicode="ø" horiz-adv-x="496" d="M331 468q79 0 125 -36l28 25q14 12 29 12q17 0 28.5 -11.5t11.5 -28.5q0 -18 -14 -31l-36 -32q11 -33 11 -72q0 -60 -15.5 -113.5t-46.5 -97.5t-84 -70t-122 -26q-82 0 -129 38l-24 -21q-14 -12 -29 -12q-16 0 -28 12t-12 28q0 18 14 31l34 30q-9 30 -9 68 q0 60 15.5 113.5t46.5 97.5t84 70t122 26zM262 79q49 0 82.5 32.5t46.5 75.5t13 92l-204 -180q20 -20 62 -20zM315 376q-70 0 -105.5 -58.5t-36.5 -135.5l200 177q-23 17 -58 17z"/>
<glyph unicode="ù" d="M181 462q22 0 35 -15.5t9 -38.5l-41 -233q-3 -17 -3 -29q0 -61 77 -61q89 0 105 90l41 233q4 22 22.5 38t41.5 16q22 0 35 -15.5t9 -38.5l-41 -233q-15 -86 -64 -137t-159 -51q-177 0 -177 136q0 22 5 52l41 233q4 22 22.5 38t41.5 16zM397 514q-21 -20 -41 0l-92 88 q-12 10 -10 28.5t20 33.5q21 15 36.5 14.5t24.5 -13.5l69 -107q15 -24 -7 -44z"/>
<glyph unicode="ú" d="M181 462q22 0 35 -15.5t9 -38.5l-41 -233q-3 -17 -3 -29q0 -61 77 -61q89 0 105 90l41 233q4 22 22.5 38t41.5 16q22 0 35 -15.5t9 -38.5l-41 -233q-15 -86 -64 -137t-159 -51q-177 0 -177 136q0 22 5 52l41 233q4 22 22.5 38t41.5 16zM289 514q-21 21 3 45l102 108 q12 14 30 13.5t31 -16.5q29 -35 -6 -62l-114 -88q-26 -20 -46 0z"/>
<glyph unicode="û" d="M181 462q22 0 35 -15.5t9 -38.5l-41 -233q-3 -17 -3 -29q0 -61 77 -61q89 0 105 90l41 233q4 22 22.5 38t41.5 16q22 0 35 -15.5t9 -38.5l-41 -233q-15 -86 -64 -137t-159 -51q-177 0 -177 136q0 22 5 52l41 233q4 22 22.5 38t41.5 16zM361 657q12 0 23 -8l78 -63 q15 -12 15 -31q0 -17 -11.5 -28t-27.5 -11q-14 0 -24 8l-61 50l-82 -51q-11 -7 -24 -7q-17 0 -28 11.5t-11 28.5q0 23 21 34l105 58q16 9 27 9z"/>
<glyph unicode="ü" d="M181 462q22 0 35 -15.5t9 -38.5l-41 -233q-3 -17 -3 -29q0 -61 77 -61q89 0 105 90l41 233q4 22 22.5 38t41.5 16q22 0 35 -15.5t9 -38.5l-41 -233q-15 -86 -64 -137t-159 -51q-177 0 -177 136q0 22 5 52l41 233q4 22 22.5 38t41.5 16zM248 521q-42 0 -42 40q0 64 60 64 q42 0 42 -40q0 -31 -15.5 -47.5t-44.5 -16.5zM429 521q-42 0 -42 40q0 64 60 64q42 0 42 -40q0 -31 -15.5 -47.5t-44.5 -16.5z"/>
<glyph unicode="ý" d="M181 462q22 0 35 -15.5t9 -38.5l-33 -185q-3 -16 -3 -29q0 -61 77 -61q90 0 106 90l32 185q4 22 22.5 38t41.5 16q22 0 35 -15.5t9 -38.5l-73 -420q-16 -95 -83 -142t-174 -47q-62 0 -102.5 27t-40.5 72q0 46 38 77t131 63q-129 18 -129 133q0 22 5 52l33 185 q4 22 22.5 38t41.5 16zM139 -73q0 -43 59 -43q52 0 89 29t49 88l19 92q-18 -28 -56 -52t-72.5 -38t-61 -34t-26.5 -42zM298 514q-21 21 3 45l102 108q12 14 30 13.5t31 -16.5q29 -35 -6 -62l-114 -88q-26 -20 -46 0z"/>
<glyph unicode="þ" horiz-adv-x="514" d="M234 408q19 23 53 41.5t77 18.5q168 0 168 -174q0 -136 -67.5 -221.5t-185.5 -85.5q-78 0 -111 47l-31 -181q-4 -23 -22.5 -38.5t-40.5 -15.5t-35.5 15.5t-9.5 38.5l142 805q4 22 22.5 38t41.5 16q22 0 35 -15.5t9 -38.5zM280 79q71 0 106.5 60.5t35.5 138.5q0 98 -89 98 q-71 0 -106.5 -60.5t-35.5 -138.5q0 -98 89 -98z"/>
<glyph unicode="ÿ" d="M181 462q22 0 35 -15.5t9 -38.5l-33 -185q-3 -16 -3 -29q0 -61 77 -61q90 0 106 90l32 185q4 22 22.5 38t41.5 16q22 0 35 -15.5t9 -38.5l-73 -420q-16 -95 -83 -142t-174 -47q-62 0 -102.5 27t-40.5 72q0 46 38 77t131 63q-129 18 -129 133q0 22 5 52l33 185 q4 22 22.5 38t41.5 16zM139 -73q0 -43 59 -43q52 0 89 29t49 88l19 92q-18 -28 -56 -52t-72.5 -38t-61 -34t-26.5 -42zM228 521q-42 0 -42 40q0 64 60 64q42 0 42 -40q0 -31 -15.5 -47.5t-44.5 -16.5zM409 521q-42 0 -42 40q0 64 60 64q42 0 42 -40q0 -31 -15.5 -47.5 t-44.5 -16.5z"/>
<glyph unicode="Ā" horiz-adv-x="624" d="M449 281l-47 210l-122 -210h169zM469 175h-247l-88 -154q-17 -29 -50 -29q-25 0 -41 16.5t-16 40.5q0 15 9 30l337 565q21 37 59 37q20 0 32 -11.5t15 -24.5l134 -579q2 -6 2 -17q0 -23 -17 -40t-40 -17q-44 0 -55 42zM573 776q0 -17 -14 -30t-31 -13h-173q-14 0 -23 9.5 t-9 23.5q0 17 14 30t31 13h173q14 0 23 -9.5t9 -23.5z"/>
<glyph unicode="ā" horiz-adv-x="493" d="M519 408l-64 -362q-4 -23 -21.5 -38.5t-41.5 -15.5q-23 0 -36 15.5t-8 38.5l5 23q-50 -82 -148 -82q-70 0 -108 46.5t-38 122.5q0 136 75 224t188 88q63 0 101 -36q17 30 52 30q22 0 35 -15.5t9 -38.5zM169 166q0 -39 18.5 -64t50.5 -25q54 0 91 40.5t50 110.5l22 122 q-33 24 -75 24q-67 0 -112 -55.5t-45 -152.5zM476 567q0 -17 -14 -30t-31 -13h-173q-14 0 -23 9.5t-9 23.5q0 17 14 30t31 13h173q14 0 23 -9.5t9 -23.5z"/>
<glyph unicode="Ă" horiz-adv-x="624" d="M449 281l-47 210l-122 -210h169zM469 175h-247l-88 -154q-17 -29 -50 -29q-25 0 -41 16.5t-16 40.5q0 15 9 30l337 565q21 37 59 37q20 0 32 -11.5t15 -24.5l134 -579q2 -6 2 -17q0 -23 -17 -40t-40 -17q-44 0 -55 42zM440 728q-55 0 -88 22t-33 67q0 25 12.5 39.5 t31.5 14.5q14 0 22 -9t8 -22q0 -2 -0.5 -6.5t-0.5 -8.5q0 -29 60 -29q64 0 73 39q9 36 42 36q13 0 22 -8.5t9 -22.5q0 -54 -45 -83t-113 -29z"/>
<glyph unicode="ă" horiz-adv-x="494" d="M520 408l-64 -362q-4 -23 -21.5 -38.5t-41.5 -15.5q-23 0 -36 15.5t-8 38.5l5 23q-50 -82 -148 -82q-70 0 -108 46.5t-38 122.5q0 136 75 224t188 88q63 0 101 -36q17 30 52 30q22 0 35 -15.5t9 -38.5zM170 166q0 -39 18.5 -64t50.5 -25q54 0 91 40.5t50 110.5l22 122 q-33 24 -75 24q-67 0 -112 -55.5t-45 -152.5zM357 523q-55 0 -88 22t-33 67q0 25 12.5 39.5t31.5 14.5q14 0 22 -9t8 -22q0 -2 -0.5 -6.5t-0.5 -8.5q0 -29 60 -29q64 0 73 39q9 36 42 36q14 0 22.5 -9t8.5 -22q0 -54 -45 -83t-113 -29z"/>
<glyph unicode="Ą" horiz-adv-x="624" d="M643 -144q0 -17 -14 -27q-24 -17 -76 -17q-44 0 -73.5 18t-29.5 56q0 35 24.5 66t56.5 46q-22 9 -28 36l-34 141h-247l-88 -154q-17 -29 -50 -29q-25 0 -41 16.5t-16 40.5q0 15 9 30l337 565q21 37 59 37q20 0 32 -11.5t15 -24.5l134 -579q2 -6 2 -17q0 -30 -28 -49 q-69 -45 -69 -88q0 -38 48 -38q14 0 29.5 3.5t22.5 3.5q11 0 18 -7t7 -18zM449 281l-47 210l-122 -210h169z"/>
<glyph unicode="ą" horiz-adv-x="494" d="M480 -144q0 -17 -14 -27q-24 -17 -76 -17q-44 0 -73.5 18t-29.5 56q0 35 24.5 66t56.5 46q-27 13 -19 48l5 23q-50 -82 -148 -82q-70 0 -108 46.5t-38 122.5q0 136 75 224t188 88q63 0 101 -36q17 30 52 30q22 0 35 -15.5t9 -38.5l-64 -362q-5 -29 -32 -46 q-69 -44 -69 -88q0 -38 48 -38q14 0 29.5 3.5t22.5 3.5q11 0 18 -7t7 -18zM170 166q0 -39 18.5 -64t50.5 -25q54 0 91 40.5t50 110.5l22 122q-33 24 -75 24q-67 0 -112 -55.5t-45 -152.5z"/>
<glyph unicode="Ć" horiz-adv-x="640" d="M345 -14q-122 0 -191.5 67.5t-69.5 191.5q0 205 101.5 323.5t282.5 118.5q85 0 141 -32.5t81 -82.5q6 -14 6 -25q0 -23 -16 -38.5t-38 -15.5q-28 0 -42 20q-51 70 -150 70q-66 0 -115.5 -27.5t-76.5 -75t-40 -103.5t-13 -122q0 -164 158 -164q92 0 166 65q26 22 46 22 q22 0 38 -15.5t16 -35.5q0 -23 -16 -41q-44 -47 -115.5 -73.5t-152.5 -26.5zM418 722q-21 21 3 45l102 108q12 14 30 13.5t31 -16.5q29 -35 -6 -62l-114 -88q-26 -20 -46 0z"/>
<glyph unicode="ć" horiz-adv-x="451" d="M63 168q0 127 67 213.5t199 86.5q58 0 96 -24.5t54 -50.5q7 -11 7 -25q0 -20 -14.5 -34t-34.5 -14q-22 0 -36 17q-35 39 -89 39q-64 0 -101.5 -57t-37.5 -142q0 -98 87 -98q13 0 25 2t24 7.5t18 9t19 12t15 9.5q16 10 30 10q19 0 33 -13.5t14 -33.5q0 -23 -22 -40 q-71 -55 -172 -55q-86 0 -133.5 46t-47.5 135zM294 514q-21 21 3 45l102 108q12 14 30 13.5t31 -16.5q29 -35 -6 -62l-114 -88q-26 -20 -46 0z"/>
<glyph unicode="Ĉ" horiz-adv-x="640" d="M345 -14q-122 0 -191.5 67.5t-69.5 191.5q0 205 101.5 323.5t282.5 118.5q85 0 141 -32.5t81 -82.5q6 -14 6 -25q0 -23 -16 -38.5t-38 -15.5q-28 0 -42 20q-51 70 -150 70q-66 0 -115.5 -27.5t-76.5 -75t-40 -103.5t-13 -122q0 -164 158 -164q92 0 166 65q26 22 46 22 q22 0 38 -15.5t16 -35.5q0 -23 -16 -41q-44 -47 -115.5 -73.5t-152.5 -26.5zM507 856q12 0 23 -8l78 -63q15 -12 15 -31q0 -16 -11.5 -27.5t-27.5 -11.5q-14 0 -24 8l-61 50l-82 -51q-11 -7 -24 -7q-17 0 -28 11.5t-11 28.5q0 23 21 34l105 58q16 9 27 9z"/>
<glyph unicode="ĉ" horiz-adv-x="451" d="M63 168q0 127 67 213.5t199 86.5q58 0 96 -24.5t54 -50.5q7 -11 7 -25q0 -20 -14.5 -34t-34.5 -14q-22 0 -36 17q-35 39 -89 39q-64 0 -101.5 -57t-37.5 -142q0 -98 87 -98q13 0 25 2t24 7.5t18 9t19 12t15 9.5q16 10 30 10q19 0 33 -13.5t14 -33.5q0 -23 -22 -40 q-71 -55 -172 -55q-86 0 -133.5 46t-47.5 135zM376 657q12 0 23 -8l78 -63q15 -12 15 -31q0 -17 -11 -28t-28 -11q-14 0 -24 8l-61 50l-82 -51q-11 -7 -24 -7q-17 0 -28 11.5t-11 28.5q0 23 21 34l105 58q17 9 27 9z"/>
<glyph unicode="Ċ" horiz-adv-x="640" d="M345 -14q-122 0 -191.5 67.5t-69.5 191.5q0 205 101.5 323.5t282.5 118.5q85 0 141 -32.5t81 -82.5q6 -14 6 -25q0 -23 -16 -38.5t-38 -15.5q-28 0 -42 20q-51 70 -150 70q-66 0 -115.5 -27.5t-76.5 -75t-40 -103.5t-13 -122q0 -164 158 -164q92 0 166 65q26 22 46 22 q22 0 38 -15.5t16 -35.5q0 -23 -16 -41q-44 -47 -115.5 -73.5t-152.5 -26.5zM481 730q-45 0 -45 40q0 65 63 65q44 0 44 -41q0 -64 -62 -64z"/>
<glyph unicode="ċ" horiz-adv-x="451" d="M63 168q0 127 67 213.5t199 86.5q58 0 96 -24.5t54 -50.5q7 -11 7 -25q0 -20 -14.5 -34t-34.5 -14q-22 0 -36 17q-35 39 -89 39q-64 0 -101.5 -57t-37.5 -142q0 -98 87 -98q13 0 25 2t24 7.5t18 9t19 12t15 9.5q16 10 30 10q19 0 33 -13.5t14 -33.5q0 -23 -22 -40 q-71 -55 -172 -55q-86 0 -133.5 46t-47.5 135zM341 537q-45 0 -45 40q0 65 63 65q44 0 44 -41q0 -64 -62 -64z"/>
<glyph unicode="Č" horiz-adv-x="640" d="M345 -14q-122 0 -191.5 67.5t-69.5 191.5q0 205 101.5 323.5t282.5 118.5q85 0 141 -32.5t81 -82.5q6 -14 6 -25q0 -23 -16 -38.5t-38 -15.5q-28 0 -42 20q-51 70 -150 70q-66 0 -115.5 -27.5t-76.5 -75t-40 -103.5t-13 -122q0 -164 158 -164q92 0 166 65q26 22 46 22 q22 0 38 -15.5t16 -35.5q0 -23 -16 -41q-44 -47 -115.5 -73.5t-152.5 -26.5zM474 715q-12 0 -23 8l-78 63q-15 12 -15 31q0 17 11 28t28 11q14 0 24 -8l61 -50l82 51q10 7 24 7q17 0 28 -11.5t11 -28.5q0 -23 -21 -34l-105 -58q-17 -9 -27 -9z"/>
<glyph unicode="č" horiz-adv-x="451" d="M63 168q0 127 67 213.5t199 86.5q58 0 96 -24.5t54 -50.5q7 -11 7 -25q0 -20 -14.5 -34t-34.5 -14q-22 0 -36 17q-35 39 -89 39q-64 0 -101.5 -57t-37.5 -142q0 -98 87 -98q13 0 25 2t24 7.5t18 9t19 12t15 9.5q16 10 30 10q19 0 33 -13.5t14 -33.5q0 -23 -22 -40 q-71 -55 -172 -55q-86 0 -133.5 46t-47.5 135zM350 516q-12 0 -23 8l-78 63q-15 12 -15 31q0 16 11 27.5t28 11.5q14 0 24 -8l61 -50l82 51q10 7 24 7q17 0 28 -11.5t11 -28.5q0 -23 -21 -34l-105 -58q-17 -9 -27 -9z"/>
<glyph unicode="Ď" horiz-adv-x="611" d="M277 569l-82 -465h77q122 0 187.5 76t65.5 218q0 90 -43.5 130.5t-127.5 40.5h-77zM237 673h135q132 0 203.5 -65.5t71.5 -200.5q0 -196 -101.5 -301.5t-284.5 -105.5h-143q-24 0 -38 17t-9 41l98 557q5 24 24.5 41t43.5 17zM404 715q-12 0 -23 8l-78 63q-15 12 -15 31 q0 17 11 28t28 11q14 0 24 -8l61 -50l82 51q10 7 24 7q17 0 28 -11.5t11 -28.5q0 -23 -21 -34l-105 -58q-17 -9 -27 -9z"/>
<glyph unicode="ď" horiz-adv-x="605" d="M376 187l24 138q-1 2 -3 5.5t-9.5 12.5t-17 15.5t-26 12t-34.5 5.5q-64 0 -101 -54t-37 -136q0 -49 22.5 -78t63.5 -29q44 0 76 28.5t42 79.5zM310 468q34 0 63.5 -12t44.5 -28l41 230q4 23 22.5 38.5t40.5 15.5t35.5 -16t9.5 -38l-83 -471q-35 -200 -238 -200 q-86 0 -134.5 47.5t-48.5 135.5q0 137 68 217.5t179 80.5zM687 712q55 0 55 -52q0 -72 -43.5 -133.5t-101.5 -104.5q-7 -5 -14 -5q-9 0 -15.5 6.5t-6.5 15.5t9 18q31 31 45 52t14 47q0 15 -10 40t-10 40q0 36 20.5 56t57.5 20z"/>
<glyph unicode="Đ" horiz-adv-x="635" d="M261 673h135q132 0 203.5 -65.5t71.5 -200.5q0 -196 -101.5 -301.5t-284.5 -105.5h-143q-24 0 -38 17t-9 41l43 244h-21q-17 0 -28 11.5t-11 28.5q0 21 16.5 36.5t38.5 15.5h21l39 221q5 24 24.5 41t43.5 17zM301 569l-31 -175h142q16 0 27 -11.5t11 -28.5 q0 -21 -16.5 -36.5t-37.5 -15.5h-142l-35 -198h77q122 0 187.5 76t65.5 218q0 90 -43.5 130.5t-127.5 40.5h-77z"/>
<glyph unicode="đ" horiz-adv-x="495" d="M310 468q34 0 63.5 -12t44.5 -28l16 91h-78q-15 0 -26 11t-11 27q0 20 16.5 35t36.5 15h78l9 51q4 23 22.5 38.5t40.5 15.5t35.5 -16t9.5 -38l-9 -51h25q15 0 26 -11t11 -27q0 -20 -16.5 -35t-36.5 -15h-25l-58 -332q-35 -200 -238 -200q-86 0 -134.5 47.5t-48.5 135.5 q0 137 68 217.5t179 80.5zM376 187l24 138q-1 2 -3 5.5t-9.5 12.5t-17 15.5t-26 12t-34.5 5.5q-64 0 -101 -54t-37 -136q0 -49 22.5 -78t63.5 -29q44 0 76 28.5t42 79.5z"/>
<glyph unicode="Ē" horiz-adv-x="523" d="M277 569l-32 -179h189q19 0 31 -12.5t12 -31.5q0 -23 -18.5 -40.5t-42.5 -17.5h-189l-32 -184h265q19 0 31 -12.5t12 -31.5q0 -25 -18.5 -42.5t-43.5 -17.5h-323q-24 0 -38 17t-9 41l98 557q5 24 24.5 41t43.5 17h312q19 0 31.5 -12.5t12.5 -31.5q0 -24 -19 -42t-43 -18 h-254zM540 776q0 -17 -14 -30t-31 -13h-173q-14 0 -23 9.5t-9 23.5q0 17 14 30t31 13h173q14 0 23 -9.5t9 -23.5z"/>
<glyph unicode="ē" horiz-adv-x="464" d="M262 84q51 0 103 31q19 11 32 11q19 0 33 -14t14 -33q0 -22 -20 -39q-66 -53 -175 -53q-87 0 -136 46.5t-49 139.5q0 130 72 212.5t189 82.5q76 0 120.5 -35.5t44.5 -87.5q0 -31 -11 -55.5t-42 -49t-98 -38t-168 -13.5q-3 -12 -3 -28q0 -77 94 -77zM319 377 q-100 0 -135 -107q199 0 199 69q0 15 -15 26.5t-49 11.5zM473 567q0 -17 -14 -30t-31 -13h-173q-14 0 -23 9.5t-9 23.5q0 17 14 30t31 13h173q14 0 23 -9.5t9 -23.5z"/>
<glyph unicode="Ĕ" horiz-adv-x="523" d="M277 569l-32 -179h189q19 0 31 -12.5t12 -31.5q0 -23 -18.5 -40.5t-42.5 -17.5h-189l-32 -184h265q19 0 31 -12.5t12 -31.5q0 -25 -18.5 -42.5t-43.5 -17.5h-323q-24 0 -38 17t-9 41l98 557q5 24 24.5 41t43.5 17h312q19 0 31.5 -12.5t12.5 -31.5q0 -24 -19 -42t-43 -18 h-254zM408 728q-55 0 -88 22t-33 67q0 25 12.5 39.5t31.5 14.5q14 0 22 -9t8 -22q0 -2 -0.5 -6.5t-0.5 -8.5q0 -29 60 -29q64 0 73 39q9 36 42 36q13 0 22 -8.5t9 -22.5q0 -54 -45 -83t-113 -29z"/>
<glyph unicode="ĕ" horiz-adv-x="464" d="M262 84q51 0 103 31q19 11 32 11q19 0 33 -14t14 -33q0 -22 -20 -39q-66 -53 -175 -53q-87 0 -136 46.5t-49 139.5q0 130 72 212.5t189 82.5q76 0 120.5 -35.5t44.5 -87.5q0 -31 -11 -55.5t-42 -49t-98 -38t-168 -13.5q-3 -12 -3 -28q0 -77 94 -77zM319 377 q-100 0 -135 -107q199 0 199 69q0 15 -15 26.5t-49 11.5zM354 523q-55 0 -88 22t-33 67q0 25 12.5 39.5t31.5 14.5q14 0 22 -9t8 -22q0 -2 -0.5 -6.5t-0.5 -8.5q0 -29 60 -29q64 0 73 39q9 36 42 36q13 0 22 -9t9 -22q0 -54 -45 -83t-113 -29z"/>
<glyph unicode="Ė" horiz-adv-x="523" d="M277 569l-32 -179h189q19 0 31 -12.5t12 -31.5q0 -23 -18.5 -40.5t-42.5 -17.5h-189l-32 -184h265q19 0 31 -12.5t12 -31.5q0 -25 -18.5 -42.5t-43.5 -17.5h-323q-24 0 -38 17t-9 41l98 557q5 24 24.5 41t43.5 17h312q19 0 31.5 -12.5t12.5 -31.5q0 -24 -19 -42t-43 -18 h-254zM408 730q-45 0 -45 40q0 65 63 65q44 0 44 -41q0 -64 -62 -64z"/>
<glyph unicode="ė" horiz-adv-x="464" d="M262 84q51 0 103 31q19 11 32 11q19 0 33 -14t14 -33q0 -22 -20 -39q-66 -53 -175 -53q-87 0 -136 46.5t-49 139.5q0 130 72 212.5t189 82.5q76 0 120.5 -35.5t44.5 -87.5q0 -31 -11 -55.5t-42 -49t-98 -38t-168 -13.5q-3 -12 -3 -28q0 -77 94 -77zM319 377 q-100 0 -135 -107q199 0 199 69q0 15 -15 26.5t-49 11.5zM347 537q-45 0 -45 40q0 65 63 65q44 0 44 -41q0 -64 -62 -64z"/>
<glyph unicode="Ę" horiz-adv-x="523" d="M502 -144q0 -17 -14 -27q-24 -17 -76 -17q-44 0 -73.5 18t-29.5 56q0 36 27 68.5t60 45.5h-278q-24 0 -38 17t-9 41l98 557q5 24 24.5 41t43.5 17h312q19 0 31.5 -12.5t12.5 -31.5q0 -24 -19 -42t-43 -18h-254l-32 -179h189q19 0 31 -12.5t12 -31.5q0 -23 -18.5 -40.5 t-42.5 -17.5h-189l-32 -184h265q19 0 31 -12.5t12 -31.5q0 -20 -12.5 -33t-37.5 -27q-76 -42 -76 -88q0 -38 48 -38q14 0 29.5 3.5t22.5 3.5q11 0 18 -7t7 -18z"/>
<glyph unicode="ę" horiz-adv-x="464" d="M399 -144q0 -17 -14 -27q-24 -17 -76 -17q-44 0 -73.5 18t-29.5 56q0 60 63 102q-7 -1 -20 -1q-87 0 -136 46.5t-49 139.5q0 130 72 212.5t189 82.5q76 0 120.5 -35.5t44.5 -87.5q0 -31 -11 -55.5t-42 -49t-98 -38t-168 -13.5q-3 -12 -3 -28q0 -77 94 -77q51 0 103 31 q19 11 32 11q19 0 33 -14t14 -33q0 -22 -20 -39q-14 -11 -57 -31.5t-68 -42.5t-25 -54q0 -38 48 -38q14 0 29.5 3.5t22.5 3.5q11 0 18 -7t7 -18zM319 377q-100 0 -135 -107q199 0 199 69q0 15 -15 26.5t-49 11.5z"/>
<glyph unicode="Ě" horiz-adv-x="523" d="M277 569l-32 -179h189q19 0 31 -12.5t12 -31.5q0 -23 -18.5 -40.5t-42.5 -17.5h-189l-32 -184h265q19 0 31 -12.5t12 -31.5q0 -25 -18.5 -42.5t-43.5 -17.5h-323q-24 0 -38 17t-9 41l98 557q5 24 24.5 41t43.5 17h312q19 0 31.5 -12.5t12.5 -31.5q0 -24 -19 -42t-43 -18 h-254zM408 715q-12 0 -23 8l-78 63q-15 12 -15 31q0 17 11 28t28 11q14 0 24 -8l61 -50l82 51q10 7 24 7q17 0 28 -11.5t11 -28.5q0 -23 -21 -34l-105 -58q-17 -9 -27 -9z"/>
<glyph unicode="ě" horiz-adv-x="464" d="M262 84q51 0 103 31q19 11 32 11q19 0 33 -14t14 -33q0 -22 -20 -39q-66 -53 -175 -53q-87 0 -136 46.5t-49 139.5q0 130 72 212.5t189 82.5q76 0 120.5 -35.5t44.5 -87.5q0 -31 -11 -55.5t-42 -49t-98 -38t-168 -13.5q-3 -12 -3 -28q0 -77 94 -77zM319 377 q-100 0 -135 -107q199 0 199 69q0 15 -15 26.5t-49 11.5zM346 516q-12 0 -23 8l-78 63q-15 12 -15 31q0 16 11 27.5t28 11.5q14 0 24 -8l61 -50l82 51q10 7 24 7q17 0 28 -11.5t11 -28.5q0 -23 -21 -34l-105 -58q-17 -9 -27 -9z"/>
<glyph unicode="Ĝ" horiz-adv-x="675" d="M363 90q105 0 175 57l20 112h-136q-19 0 -31 12.5t-12 31.5q0 23 18.5 40.5t42.5 17.5h194q21 0 35 -16t10 -37l-28 -160q-5 -31 -26 -53q-45 -48 -122.5 -78.5t-157.5 -30.5q-122 0 -191.5 67.5t-69.5 191.5q0 205 101.5 323.5t282.5 118.5q85 0 141 -32.5t81 -82.5 q6 -14 6 -25q0 -23 -16 -38.5t-38 -15.5q-28 0 -42 20q-51 70 -150 70q-66 0 -115.5 -27.5t-76.5 -75t-40 -103.5t-13 -122q0 -165 158 -165zM504 856q12 0 23 -8l78 -63q15 -12 15 -31q0 -16 -11 -27.5t-28 -11.5q-14 0 -24 8l-61 50l-82 -51q-10 -7 -24 -7q-17 0 -28 11.5 t-11 28.5q0 23 21 34l105 58q17 9 27 9z"/>
<glyph unicode="ĝ" horiz-adv-x="504" d="M157 -73q0 -43 59 -43q53 0 89.5 29.5t48.5 87.5l20 100q-20 -31 -59 -57t-72.5 -40.5t-59.5 -34.5t-26 -42zM501 248l-44 -260q-16 -95 -83 -142t-174 -47q-62 0 -102.5 27t-40.5 72q0 46 38 77t132 63q-161 7 -161 156q0 121 69.5 197.5t191.5 76.5q85 0 132 -40.5 t47 -115.5q0 -36 -5 -64zM260 123q71 0 106 52t35 119q0 83 -87 83q-71 0 -106 -51t-35 -118q0 -85 87 -85zM365 657q12 0 23 -8l78 -63q15 -12 15 -31q0 -17 -11.5 -28t-27.5 -11q-14 0 -24 8l-61 50l-82 -51q-11 -7 -24 -7q-17 0 -28 11.5t-11 28.5q0 23 21 34l105 58 q17 9 27 9z"/>
<glyph unicode="Ğ" horiz-adv-x="675" d="M363 90q105 0 175 57l20 112h-136q-19 0 -31 12.5t-12 31.5q0 23 18.5 40.5t42.5 17.5h194q21 0 35 -16t10 -37l-28 -160q-5 -31 -26 -53q-45 -48 -122.5 -78.5t-157.5 -30.5q-122 0 -191.5 67.5t-69.5 191.5q0 205 101.5 323.5t282.5 118.5q85 0 141 -32.5t81 -82.5 q6 -14 6 -25q0 -23 -16 -38.5t-38 -15.5q-28 0 -42 20q-51 70 -150 70q-66 0 -115.5 -27.5t-76.5 -75t-40 -103.5t-13 -122q0 -165 158 -165zM482 742q-55 0 -88 22t-33 67q0 25 12.5 39.5t31.5 14.5q14 0 22 -9t8 -22q0 -2 -0.5 -6.5t-0.5 -8.5q0 -29 60 -29q64 0 73 39 q9 36 42 36q13 0 22 -8.5t9 -22.5q0 -54 -45 -83t-113 -29z"/>
<glyph unicode="ğ" horiz-adv-x="504" d="M157 -73q0 -43 59 -43q53 0 89.5 29.5t48.5 87.5l20 100q-20 -31 -59 -57t-72.5 -40.5t-59.5 -34.5t-26 -42zM501 248l-44 -260q-16 -95 -83 -142t-174 -47q-62 0 -102.5 27t-40.5 72q0 46 38 77t132 63q-161 7 -161 156q0 121 69.5 197.5t191.5 76.5q85 0 132 -40.5 t47 -115.5q0 -36 -5 -64zM260 123q71 0 106 52t35 119q0 83 -87 83q-71 0 -106 -51t-35 -118q0 -85 87 -85zM345 523q-55 0 -88 22t-33 67q0 25 12.5 39.5t31.5 14.5q14 0 22 -9t8 -22q0 -2 -0.5 -6.5t-0.5 -8.5q0 -29 60 -29q64 0 73 39q9 36 42 36q14 0 22.5 -9t8.5 -22 q0 -54 -45 -83t-113 -29z"/>
<glyph unicode="Ġ" horiz-adv-x="675" d="M363 90q105 0 175 57l20 112h-136q-19 0 -31 12.5t-12 31.5q0 23 18.5 40.5t42.5 17.5h194q21 0 35 -16t10 -37l-28 -160q-5 -31 -26 -53q-45 -48 -122.5 -78.5t-157.5 -30.5q-122 0 -191.5 67.5t-69.5 191.5q0 205 101.5 323.5t282.5 118.5q85 0 141 -32.5t81 -82.5 q6 -14 6 -25q0 -23 -16 -38.5t-38 -15.5q-28 0 -42 20q-51 70 -150 70q-66 0 -115.5 -27.5t-76.5 -75t-40 -103.5t-13 -122q0 -165 158 -165zM484 730q-45 0 -45 40q0 65 63 65q44 0 44 -41q0 -64 -62 -64z"/>
<glyph unicode="ġ" horiz-adv-x="504" d="M157 -73q0 -43 59 -43q53 0 89.5 29.5t48.5 87.5l20 100q-20 -31 -59 -57t-72.5 -40.5t-59.5 -34.5t-26 -42zM501 248l-44 -260q-16 -95 -83 -142t-174 -47q-62 0 -102.5 27t-40.5 72q0 46 38 77t132 63q-161 7 -161 156q0 121 69.5 197.5t191.5 76.5q85 0 132 -40.5 t47 -115.5q0 -36 -5 -64zM260 123q71 0 106 52t35 119q0 83 -87 83q-71 0 -106 -51t-35 -118q0 -85 87 -85zM345 537q-45 0 -45 40q0 65 63 65q44 0 44 -41q0 -64 -62 -64z"/>
<glyph unicode="Ģ" horiz-adv-x="675" d="M363 90q105 0 175 57l20 112h-136q-19 0 -31 12.5t-12 31.5q0 23 18.5 40.5t42.5 17.5h194q21 0 35 -16t10 -37l-28 -160q-5 -31 -26 -53q-45 -48 -122.5 -78.5t-157.5 -30.5q-122 0 -191.5 67.5t-69.5 191.5q0 205 101.5 323.5t282.5 118.5q85 0 141 -32.5t81 -82.5 q6 -14 6 -25q0 -23 -16 -38.5t-38 -15.5q-28 0 -42 20q-51 70 -150 70q-66 0 -115.5 -27.5t-76.5 -75t-40 -103.5t-13 -122q0 -165 158 -165zM354 -39q44 0 44 -41q0 -54 -35 -107t-79 -83q-8 -5 -14 -5q-8 0 -13 5.5t-5 12.5q0 8 8 15q47 41 47 78q0 13 -8 33t-8 32 q0 28 16.5 44t46.5 16z"/>
<glyph unicode="ģ" horiz-adv-x="504" d="M157 -73q0 -43 59 -43q53 0 89.5 29.5t48.5 87.5l20 100q-20 -31 -59 -57t-72.5 -40.5t-59.5 -34.5t-26 -42zM501 248l-44 -260q-16 -95 -83 -142t-174 -47q-62 0 -102.5 27t-40.5 72q0 46 38 77t132 63q-161 7 -161 156q0 121 69.5 197.5t191.5 76.5q85 0 132 -40.5 t47 -115.5q0 -36 -5 -64zM260 123q71 0 106 52t35 119q0 83 -87 83q-71 0 -106 -51t-35 -118q0 -85 87 -85zM342 519q-44 0 -44 41q0 54 35 107t79 83q8 5 14 5q8 0 13 -5.5t5 -12.5q0 -8 -8 -15q-47 -41 -47 -78q0 -13 8 -33t8 -32q0 -28 -16.5 -44t-46.5 -16z"/>
<glyph unicode="Ĥ" horiz-adv-x="638" d="M688 623l-101 -573q-4 -24 -24.5 -41t-44.5 -17t-38 17t-9 41l42 241h-286l-42 -241q-4 -24 -24.5 -41t-44.5 -17t-38 17t-9 41l101 573q5 24 24.5 41t43.5 17t38 -17t10 -41l-40 -226h286l40 226q5 24 24.5 41t43.5 17t38 -17t10 -41zM470 856q12 0 23 -8l78 -63 q15 -12 15 -31q0 -16 -11 -27.5t-28 -11.5q-14 0 -24 8l-61 50l-82 -51q-10 -7 -24 -7q-17 0 -28 11.5t-11 28.5q0 23 21 34l105 58q17 9 27 9z"/>
<glyph unicode="ĥ" horiz-adv-x="499" d="M274 658l-45 -250q52 60 139 60q76 0 109 -35.5t33 -89.5q0 -21 -5 -49l-44 -250q-4 -22 -22 -37t-41 -15q-24 0 -36.5 14.5t-8.5 37.5l41 230q3 15 3 29q0 67 -74 67q-101 0 -118 -103l-40 -223q-4 -22 -22 -37t-41 -15q-24 0 -36.5 14t-8.5 38l109 614q4 23 22 38.5 t41 15.5t36 -16t9 -38zM250 856q12 0 23 -8l78 -63q15 -12 15 -31q0 -16 -11 -27.5t-28 -11.5q-14 0 -24 8l-61 50l-82 -51q-11 -7 -24 -7q-17 0 -28 11.5t-11 28.5q0 23 21 34l105 58q17 9 27 9z"/>
<glyph unicode="Ħ" horiz-adv-x="638" d="M688 623l-16 -88h17q14 0 23 -9.5t9 -23.5q0 -17 -14 -30t-31 -13h-17l-72 -409q-4 -24 -24.5 -41t-44.5 -17t-38 17t-9 41l42 241h-286l-42 -241q-4 -24 -24.5 -41t-44.5 -17t-38 17t-9 41l72 409h-18q-14 0 -23 9.5t-9 23.5q0 17 14 30t31 13h18l16 88q5 24 24.5 41 t43.5 17t38 -17t10 -41l-16 -88h286l16 88q5 24 24.5 41t43.5 17t38 -17t10 -41zM246 397h286l11 62h-286z"/>
<glyph unicode="ħ" horiz-adv-x="499" d="M274 658l-9 -47h83q14 0 23 -9.5t9 -23.5q0 -17 -14 -30t-31 -13h-83l-23 -127q52 60 139 60q76 0 109 -35.5t33 -89.5q0 -21 -5 -49l-44 -250q-4 -22 -22 -37t-41 -15q-24 0 -36.5 14.5t-8.5 37.5l41 230q3 15 3 29q0 67 -74 67q-101 0 -118 -103l-40 -223 q-4 -22 -22 -37t-41 -15q-24 0 -36.5 14t-8.5 38l87 491h-23q-14 0 -23 9.5t-9 23.5q0 17 14 30t31 13h23l9 47q4 23 22 38.5t41 15.5t36 -16t9 -38z"/>
<glyph unicode="Ĩ" horiz-adv-x="236" d="M238 681q24 0 38 -17t10 -41l-101 -573q-4 -24 -24.5 -41t-44.5 -17t-38 17t-9 41l101 573q5 24 24.5 41t43.5 17zM320 803q11 0 28 19q13 14 30 14q16 0 27.5 -11t11.5 -28q0 -12 -6 -22q-28 -46 -95 -46q-31 0 -69.5 17t-50.5 17q-15 0 -30 -17q-14 -16 -32 -16 q-16 0 -27.5 11t-11.5 28q0 12 6 22q28 46 96 46q30 0 68.5 -17t54.5 -17z"/>
<glyph unicode="ĩ" horiz-adv-x="213" d="M235 408l-64 -362q-4 -23 -21.5 -38.5t-41.5 -15.5q-22 0 -35.5 16t-9.5 38l64 362q4 23 21.5 38.5t42.5 15.5q22 0 35 -15.5t9 -38.5zM275 599q11 0 28 19q13 14 30 14t28 -11t11 -28q0 -12 -6 -22q-28 -46 -95 -46q-31 0 -69.5 17t-50.5 17q-15 0 -30 -17 q-14 -16 -32 -16q-17 0 -28 11t-11 28q0 12 6 22q28 46 96 46q30 0 68.5 -17t54.5 -17z"/>
<glyph unicode="Ī" horiz-adv-x="236" d="M238 681q24 0 38 -17t10 -41l-101 -573q-4 -24 -24.5 -41t-44.5 -17t-38 17t-9 41l101 573q5 24 24.5 41t43.5 17zM382 776q0 -17 -14 -30t-31 -13h-173q-14 0 -23 9.5t-9 23.5q0 17 14 30t31 13h173q14 0 23 -9.5t9 -23.5z"/>
<glyph unicode="ī" horiz-adv-x="213" d="M235 408l-64 -362q-4 -23 -21.5 -38.5t-41.5 -15.5q-22 0 -35.5 16t-9.5 38l64 362q4 23 21.5 38.5t42.5 15.5q22 0 35 -15.5t9 -38.5zM333 567q0 -17 -14 -30t-31 -13h-173q-14 0 -23 9.5t-9 23.5q0 17 14 30t31 13h173q14 0 23 -9.5t9 -23.5z"/>
<glyph unicode="Ĭ" horiz-adv-x="236" d="M238 681q24 0 38 -17t10 -41l-101 -573q-4 -24 -24.5 -41t-44.5 -17t-38 17t-9 41l101 573q5 24 24.5 41t43.5 17zM250 728q-55 0 -88 22t-33 67q0 25 12.5 39.5t31.5 14.5q14 0 22 -9t8 -22q0 -2 -0.5 -6.5t-0.5 -8.5q0 -29 60 -29q64 0 73 39q9 36 42 36q13 0 22 -8.5 t9 -22.5q0 -54 -45 -83t-113 -29z"/>
<glyph unicode="ĭ" horiz-adv-x="213" d="M235 408l-64 -362q-4 -23 -21.5 -38.5t-41.5 -15.5q-22 0 -35.5 16t-9.5 38l64 362q4 23 21.5 38.5t42.5 15.5q22 0 35 -15.5t9 -38.5zM203 523q-55 0 -88 22t-33 67q0 25 12.5 39.5t31.5 14.5q14 0 22 -9t8 -22q0 -2 -0.5 -6.5t-0.5 -8.5q0 -29 60 -29q64 0 73 39 q9 36 42 36q14 0 22.5 -9t8.5 -22q0 -54 -45 -83t-113 -29z"/>
<glyph unicode="Į" horiz-adv-x="236" d="M203 -144q0 -17 -14 -27q-24 -17 -76 -17q-44 0 -73.5 18t-29.5 56q0 35 25 66.5t57 45.5q-29 15 -23 52l101 573q5 24 24.5 41t43.5 17t38 -17t10 -41l-101 -573q-6 -30 -38 -50q-69 -41 -69 -88q0 -38 48 -38q14 0 29.5 3.5t22.5 3.5q11 0 18 -7t7 -18z"/>
<glyph unicode="į" horiz-adv-x="213" d="M195 -144q0 -17 -14 -27q-24 -17 -76 -17q-44 0 -73.5 18t-29.5 56q0 35 25 66.5t57 45.5q-27 15 -21 48l64 362q4 23 21.5 38.5t42.5 15.5q22 0 35 -15.5t9 -38.5l-64 -362q-4 -28 -32 -46q-69 -47 -69 -88q0 -38 48 -38q14 0 29.5 3.5t22.5 3.5q11 0 18 -7t7 -18z M223 645q54 0 54 -48q0 -35 -19.5 -58t-57.5 -23q-54 0 -54 48q0 35 19.5 58t57.5 23z"/>
<glyph unicode="İ" horiz-adv-x="236" d="M238 681q24 0 38 -17t10 -41l-101 -573q-4 -24 -24.5 -41t-44.5 -17t-38 17t-9 41l101 573q5 24 24.5 41t43.5 17zM247 730q-45 0 -45 40q0 65 63 65q44 0 44 -41q0 -64 -62 -64z"/>
<glyph unicode="ı" horiz-adv-x="213" d="M235 408l-64 -362q-4 -23 -21.5 -38.5t-41.5 -15.5q-22 0 -35.5 16t-9.5 38l64 362q4 23 21.5 38.5t42.5 15.5q22 0 35 -15.5t9 -38.5z"/>
<glyph unicode="Ĳ" horiz-adv-x="657" d="M238 681q24 0 38 -17t10 -41l-101 -573q-4 -24 -24.5 -41t-44.5 -17t-38 17t-9 41l101 573q5 24 24.5 41t43.5 17zM405 92q92 0 113 118l73 413q5 24 24.5 41t43.5 17t38 -17t10 -41l-73 -413q-40 -223 -248 -223q-75 0 -114 31q-21 17 -21 42q0 22 15 37t37 15 q10 0 30 -7q36 -13 72 -13z"/>
<glyph unicode="ĳ" horiz-adv-x="426" d="M235 408l-64 -362q-4 -23 -21.5 -38.5t-41.5 -15.5q-22 0 -35.5 16t-9.5 38l64 362q4 23 21.5 38.5t42.5 15.5q22 0 35 -15.5t9 -38.5zM223 645q54 0 54 -48q0 -35 -19.5 -58t-57.5 -23q-54 0 -54 48q0 35 19.5 58t57.5 23zM267 -8l73 416q4 22 22.5 38t41.5 16 q22 0 35 -15.5t9 -38.5l-73 -416q-12 -67 -66 -112.5t-124 -45.5q-18 0 -30 12.5t-12 30.5q0 23 17.5 40t42.5 17q24 0 41.5 16.5t22.5 41.5zM436 645q54 0 54 -48q0 -35 -19.5 -58t-57.5 -23q-54 0 -54 48q0 35 19.5 58t57.5 23z"/>
<glyph unicode="Ĵ" horiz-adv-x="431" d="M179 92q92 0 113 118l73 413q5 24 24.5 41t43.5 17t38 -17t10 -41l-73 -413q-40 -223 -248 -223q-75 0 -114 31q-21 17 -21 42q0 22 15 37t37 15q10 0 30 -7q36 -13 72 -13zM463 856q12 0 23 -8l78 -63q15 -12 15 -31q0 -16 -11.5 -27.5t-27.5 -11.5q-14 0 -24 8l-61 50 l-82 -51q-11 -7 -24 -7q-17 0 -28 11.5t-11 28.5q0 23 21 34l105 58q16 9 27 9z"/>
<glyph unicode="ĵ" horiz-adv-x="213" d="M54 -8l73 416q4 22 22.5 38t41.5 16q22 0 35 -15.5t9 -38.5l-73 -416q-12 -67 -66 -112.5t-124 -45.5q-18 0 -30 12.5t-12 30.5q0 23 17.5 40t42.5 17q24 0 41.5 16.5t22.5 41.5zM223 657q12 0 23 -8l78 -63q15 -12 15 -31q0 -17 -11.5 -28t-27.5 -11q-14 0 -24 8l-61 50 l-82 -51q-11 -7 -24 -7q-17 0 -28 11.5t-11 28.5q0 23 21 34l105 58q16 9 27 9z"/>
<glyph unicode="Ķ" horiz-adv-x="556" d="M286 623l-41 -229l283 270q18 17 41 17t39.5 -16.5t16.5 -39.5q0 -26 -23 -46l-228 -199l172 -307q6 -11 6 -25q0 -23 -16.5 -39.5t-39.5 -16.5q-33 0 -48 27l-159 286l-70 -63l-34 -192q-4 -24 -24.5 -41t-44.5 -17t-38 17t-9 41l101 573q5 24 24.5 41t43.5 17t38 -17 t10 -41zM295 -39q44 0 44 -41q0 -54 -35 -107t-79 -83q-8 -5 -14 -5q-7 0 -12.5 5.5t-5.5 12.5q0 8 8 15q47 41 47 78q0 13 -8 33t-8 32q0 28 16.5 44t46.5 16z"/>
<glyph unicode="ķ" horiz-adv-x="453" d="M394 -8q-30 0 -43 22l-117 199l-40 -27l-24 -142q-4 -22 -22 -37t-41 -15t-36 14.5t-9 37.5l109 616q4 22 22 37t41 15t36 -15t9 -37l-62 -353l198 142q19 13 37 13q22 0 37 -15t15 -37q0 -30 -26 -46l-156 -99l116 -192q8 -13 8 -29q0 -22 -15 -37t-37 -15zM236 -39 q44 0 44 -41q0 -54 -35 -107t-79 -83q-8 -5 -14 -5q-8 0 -13 5.5t-5 12.5q0 8 8 15q47 41 47 78q0 13 -8 33t-8 32q0 28 16.5 44t46.5 16z"/>
<glyph unicode="ĸ" horiz-adv-x="453" d="M394 -8q-30 0 -43 22l-118 196l-40 -27l-23 -139q-4 -22 -22 -37t-41 -15t-36 14.5t-9 37.5l66 366q4 22 22 37t41 15t36 -15t9 -37l-20 -106l199 145q18 13 37 13q22 0 37 -15t15 -37q0 -30 -26 -46l-157 -102l117 -189q8 -13 8 -29q0 -22 -15 -37t-37 -15z"/>
<glyph unicode="Ĺ" horiz-adv-x="491" d="M195 108h237q21 0 34 -13t13 -33q0 -26 -19 -44t-47 -18h-296q-25 0 -38.5 16t-8.5 40l100 567q5 24 24.5 41t43.5 17t38 -17t10 -41zM191 722q-21 21 3 45l102 108q12 14 30 13.5t31 -16.5q29 -35 -6 -62l-114 -88q-26 -20 -46 0z"/>
<glyph unicode="ĺ" horiz-adv-x="243" d="M234 712q22 0 35.5 -16t9.5 -38l-97 -544q-2 -11 4.5 -16.5t13.5 -5.5q18 0 29 -11.5t11 -29.5q0 -24 -18 -41.5t-46 -17.5q-103 0 -103 96q0 14 3 32l95 538q4 23 22.5 38.5t40.5 15.5zM181 746q-21 21 3 45l102 108q12 14 30 13.5t31 -16.5q29 -35 -6 -62l-114 -88 q-26 -20 -46 0z"/>
<glyph unicode="Ļ" horiz-adv-x="491" d="M195 108h237q21 0 34 -13t13 -33q0 -26 -19 -44t-47 -18h-296q-25 0 -38.5 16t-8.5 40l100 567q5 24 24.5 41t43.5 17t38 -17t10 -41zM269 -39q44 0 44 -41q0 -54 -35 -107t-79 -83q-8 -5 -14 -5q-7 0 -12.5 5.5t-5.5 12.5q0 8 8 15q47 41 47 78q0 13 -8 33t-8 32 q0 28 16.5 44t46.5 16z"/>
<glyph unicode="ļ" horiz-adv-x="243" d="M234 712q22 0 35.5 -16t9.5 -38l-97 -544q-2 -11 4.5 -16.5t13.5 -5.5q18 0 29 -11.5t11 -29.5q0 -24 -18 -41.5t-46 -17.5q-103 0 -103 96q0 14 3 32l95 538q4 23 22.5 38.5t40.5 15.5zM132 -39q44 0 44 -41q0 -54 -35 -107t-79 -83q-8 -5 -14 -5q-8 0 -13 5.5t-5 12.5 q0 8 8 15q47 41 47 78q0 13 -8 33t-8 32q0 28 16.5 44t46.5 16z"/>
<glyph unicode="Ľ" horiz-adv-x="491" d="M195 108h237q21 0 34 -13t13 -33q0 -26 -19 -44t-47 -18h-296q-25 0 -38.5 16t-8.5 40l100 567q5 24 24.5 41t43.5 17t38 -17t10 -41zM475 681q55 0 55 -52q0 -72 -43.5 -133.5t-101.5 -104.5q-7 -5 -14 -5q-9 0 -15.5 6.5t-6.5 15.5t9 18q31 31 45 52t14 47q0 15 -10 40 t-10 40q0 36 20.5 56t57.5 20z"/>
<glyph unicode="ľ" horiz-adv-x="323" d="M234 712q22 0 35.5 -16t9.5 -38l-97 -544q-2 -11 4.5 -16.5t13.5 -5.5q18 0 29 -11.5t11 -29.5q0 -24 -18 -41.5t-46 -17.5q-103 0 -103 96q0 14 3 32l95 538q4 23 22.5 38.5t40.5 15.5zM415 712q55 0 55 -52q0 -72 -43.5 -133.5t-101.5 -104.5q-7 -5 -14 -5 q-9 0 -15.5 6.5t-6.5 15.5t9 18q31 31 45 52t14 47q0 15 -10 40t-10 40q0 36 20.5 56t57.5 20z"/>
<glyph unicode="Ŀ" horiz-adv-x="491" d="M195 108h237q21 0 34 -13t13 -33q0 -26 -19 -44t-47 -18h-296q-25 0 -38.5 16t-8.5 40l100 567q5 24 24.5 41t43.5 17t38 -17t10 -41zM411 277q-56 0 -56 51q0 39 20.5 60t58.5 21q55 0 55 -52q0 -80 -78 -80z"/>
<glyph unicode="ŀ" horiz-adv-x="363" d="M234 712q22 0 35.5 -16t9.5 -38l-97 -544q-2 -11 4.5 -16.5t13.5 -5.5q18 0 29 -11.5t11 -29.5q0 -24 -18 -41.5t-46 -17.5q-103 0 -103 96q0 14 3 32l95 538q4 23 22.5 38.5t40.5 15.5zM325 306q-56 0 -56 51q0 39 20.5 60t58.5 21q55 0 55 -52q0 -80 -78 -80z"/>
<glyph unicode="Ł" horiz-adv-x="540" d="M244 108h237q21 0 34 -13t13 -33q0 -26 -19 -44t-47 -18h-296q-25 0 -38.5 16t-8.5 40l28 162l-14 -6q-10 -5 -21 -5q-20 0 -33.5 13.5t-13.5 33.5q0 31 30 44l72 29l52 296q5 24 24.5 41t43.5 17t38 -17t10 -41l-44 -249l143 62q9 4 20 4q20 0 33.5 -14t13.5 -33 q0 -33 -32 -45l-197 -86z"/>
<glyph unicode="ł" horiz-adv-x="243" d="M235 712q22 0 35 -15.5t9 -38.5l-37 -210l47 24q8 4 18 4q18 0 30.5 -12.5t12.5 -30.5q0 -27 -26 -40l-102 -51l-40 -232q-1 -8 4.5 -13t11.5 -5q18 0 30 -12.5t12 -30.5q0 -23 -18 -40t-41 -17q-51 0 -79.5 24.5t-28.5 71.5q0 16 3 32l29 164l-13 -6q-10 -5 -21 -5 q-18 0 -30.5 12.5t-12.5 30.5q0 27 22 38l75 38l46 266q4 22 22.5 38t41.5 16z"/>
<glyph unicode="Ń" horiz-adv-x="623" d="M631 681q23 0 37 -17t10 -40l-102 -575q-4 -23 -24 -40t-43 -17q-30 0 -42 25l-219 432l-71 -400q-4 -23 -24 -40t-43 -17t-36.5 17t-9.5 40l101 575q5 24 23 40.5t43 16.5q29 0 42 -24l221 -429l70 396q4 23 24 40t43 17zM394 722q-21 21 3 45l102 108q12 14 30 13.5 t31 -16.5q29 -35 -6 -62l-114 -88q-26 -20 -46 0z"/>
<glyph unicode="ń" horiz-adv-x="499" d="M372 468q72 0 105 -34.5t33 -90.5q0 -21 -5 -49l-44 -250q-4 -22 -22 -37t-41 -15q-24 0 -36.5 14.5t-8.5 37.5l41 230q3 16 3 29q0 67 -74 67q-101 0 -118 -103l-40 -223q-4 -22 -22 -37t-41 -15q-24 0 -36.5 14t-8.5 38l64 364q4 22 22.5 38t41.5 16q19 0 32 -12.5 t13 -31.5l-1 -11q53 61 143 61zM300 514q-21 21 3 45l102 108q12 14 30 13.5t31 -16.5q29 -35 -6 -62l-114 -88q-26 -20 -46 0z"/>
<glyph unicode="Ņ" horiz-adv-x="623" d="M631 681q23 0 37 -17t10 -40l-102 -575q-4 -23 -24 -40t-43 -17q-30 0 -42 25l-219 432l-71 -400q-4 -23 -24 -40t-43 -17t-36.5 17t-9.5 40l101 575q5 24 23 40.5t43 16.5q29 0 42 -24l221 -429l70 396q4 23 24 40t43 17zM310 -39q44 0 44 -41q0 -54 -35 -107t-79 -83 q-8 -5 -14 -5q-8 0 -13 5.5t-5 12.5q0 8 8 15q47 41 47 78q0 13 -8 33t-8 32q0 28 16.5 44t46.5 16z"/>
<glyph unicode="ņ" horiz-adv-x="499" d="M372 468q72 0 105 -34.5t33 -90.5q0 -21 -5 -49l-44 -250q-4 -22 -22 -37t-41 -15q-24 0 -36.5 14.5t-8.5 37.5l41 230q3 16 3 29q0 67 -74 67q-101 0 -118 -103l-40 -223q-4 -22 -22 -37t-41 -15q-24 0 -36.5 14t-8.5 38l64 364q4 22 22.5 38t41.5 16q19 0 32 -12.5 t13 -31.5l-1 -11q53 61 143 61zM248 -39q44 0 44 -41q0 -54 -35 -107t-79 -83q-8 -5 -14 -5q-8 0 -13 5.5t-5 12.5q0 8 8 15q47 41 47 78q0 13 -8 33t-8 32q0 28 16.5 44t46.5 16z"/>
<glyph unicode="Ň" horiz-adv-x="623" d="M631 681q23 0 37 -17t10 -40l-102 -575q-4 -23 -24 -40t-43 -17q-30 0 -42 25l-219 432l-71 -400q-4 -23 -24 -40t-43 -17t-36.5 17t-9.5 40l101 575q5 24 23 40.5t43 16.5q29 0 42 -24l221 -429l70 396q4 23 24 40t43 17zM446 715q-12 0 -23 8l-78 63q-15 12 -15 31 q0 17 11 28t28 11q14 0 24 -8l61 -50l82 51q10 7 24 7q17 0 28 -11.5t11 -28.5q0 -23 -21 -34l-105 -58q-16 -9 -27 -9z"/>
<glyph unicode="ň" horiz-adv-x="499" d="M372 468q72 0 105 -34.5t33 -90.5q0 -21 -5 -49l-44 -250q-4 -22 -22 -37t-41 -15q-24 0 -36.5 14.5t-8.5 37.5l41 230q3 16 3 29q0 67 -74 67q-101 0 -118 -103l-40 -223q-4 -22 -22 -37t-41 -15q-24 0 -36.5 14t-8.5 38l64 364q4 22 22.5 38t41.5 16q19 0 32 -12.5 t13 -31.5l-1 -11q53 61 143 61zM358 516q-12 0 -23 8l-78 63q-15 12 -15 31q0 16 11 27.5t28 11.5q14 0 24 -8l61 -50l82 51q10 7 24 7q17 0 28 -11.5t11 -28.5q0 -23 -21 -34l-105 -58q-17 -9 -27 -9z"/>
<glyph unicode="ŉ" horiz-adv-x="534" d="M407 468q72 0 105 -34.5t33 -90.5q0 -21 -5 -49l-44 -250q-4 -22 -22 -37t-41 -15q-24 0 -36.5 14.5t-8.5 37.5l41 230q3 16 3 29q0 67 -74 67q-101 0 -118 -103l-40 -223q-4 -22 -22 -37t-41 -15q-24 0 -36.5 14t-8.5 38l64 364q4 22 22.5 38t41.5 16q19 0 32 -12.5 t13 -31.5l-1 -11q53 61 143 61zM177 675q44 0 44 -41q0 -54 -35 -107t-79 -83q-8 -5 -14 -5q-7 0 -12.5 5.5t-5.5 12.5q0 8 8 15q47 41 47 78q0 13 -8 33t-8 32q0 28 16.5 44t46.5 16z"/>
<glyph unicode="Ŋ" horiz-adv-x="623" d="M325 -201q-21 0 -33.5 13t-12.5 32q0 25 18.5 42.5t45.5 17.5q49 0 74.5 30.5t40.5 99.5l-210 415l-71 -400q-4 -23 -24 -40t-43 -17t-36.5 17t-9.5 40l101 575q5 25 22 41t43 16q30 0 44 -27l220 -426l70 396q4 24 22.5 40.5t44.5 16.5q23 0 37 -17t10 -40l-107 -602 q-19 -105 -76.5 -164t-169.5 -59z"/>
<glyph unicode="ŋ" horiz-adv-x="499" d="M338 -43l56 317q3 16 3 29q0 67 -74 67q-101 0 -118 -103l-40 -223q-4 -22 -22 -37t-41 -15q-24 0 -36.5 14t-8.5 38l64 364q4 22 22.5 38t41.5 16q19 0 32 -12.5t13 -31.5l-1 -11q53 61 143 61q72 0 105 -34.5t33 -90.5q0 -21 -5 -49l-59 -337q-12 -67 -66 -112.5 t-124 -45.5q-18 0 -30 12.5t-12 30.5q0 23 17.5 40t42.5 17q24 0 41.5 16.5t22.5 41.5z"/>
<glyph unicode="Ō" horiz-adv-x="702" d="M349 -14q186 0 287 124t101 325q0 125 -68 188.5t-197 63.5q-186 0 -287 -124t-101 -325q0 -125 68 -188.5t197 -63.5zM454 583q162 0 162 -165q0 -49 -8.5 -95t-27.5 -88.5t-47 -74.5t-71 -51t-95 -19q-162 0 -162 165q0 49 8.5 95t27.5 88.5t47 74.5t71 51t95 19z M616 776q0 -17 -14 -30t-31 -13h-173q-14 0 -23 9.5t-9 23.5q0 17 14 30t31 13h173q14 0 23 -9.5t9 -23.5z"/>
<glyph unicode="ō" horiz-adv-x="496" d="M331 468q87 0 135 -43.5t48 -130.5q0 -60 -15.5 -113.5t-46.5 -97.5t-84 -70t-122 -26q-87 0 -135 43.5t-48 130.5q0 60 15.5 113.5t46.5 97.5t84 70t122 26zM262 79q71 0 106.5 60.5t35.5 138.5q0 98 -89 98q-71 0 -106.5 -60.5t-35.5 -138.5q0 -98 89 -98zM474 567 q0 -17 -14 -30t-31 -13h-173q-14 0 -23 9.5t-9 23.5q0 17 14 30t31 13h173q14 0 23 -9.5t9 -23.5z"/>
<glyph unicode="Ŏ" horiz-adv-x="702" d="M349 -14q186 0 287 124t101 325q0 125 -68 188.5t-197 63.5q-186 0 -287 -124t-101 -325q0 -125 68 -188.5t197 -63.5zM454 583q162 0 162 -165q0 -49 -8.5 -95t-27.5 -88.5t-47 -74.5t-71 -51t-95 -19q-162 0 -162 165q0 49 8.5 95t27.5 88.5t47 74.5t71 51t95 19z M483 728q-55 0 -88 22t-33 67q0 25 12.5 39.5t31.5 14.5q14 0 22 -9t8 -22q0 -2 -0.5 -6.5t-0.5 -8.5q0 -29 60 -29q64 0 73 39q9 36 42 36q14 0 22.5 -8.5t8.5 -22.5q0 -54 -45 -83t-113 -29z"/>
<glyph unicode="ŏ" horiz-adv-x="496" d="M331 468q87 0 135 -43.5t48 -130.5q0 -60 -15.5 -113.5t-46.5 -97.5t-84 -70t-122 -26q-87 0 -135 43.5t-48 130.5q0 60 15.5 113.5t46.5 97.5t84 70t122 26zM262 79q71 0 106.5 60.5t35.5 138.5q0 98 -89 98q-71 0 -106.5 -60.5t-35.5 -138.5q0 -98 89 -98zM347 523 q-55 0 -88 22t-33 67q0 25 12.5 39.5t31.5 14.5q14 0 22 -9t8 -22q0 -2 -0.5 -6.5t-0.5 -8.5q0 -29 60 -29q64 0 73 39q9 36 42 36q14 0 22.5 -9t8.5 -22q0 -54 -45 -83t-113 -29z"/>
<glyph unicode="Ő" horiz-adv-x="702" d="M349 -14q186 0 287 124t101 325q0 125 -68 188.5t-197 63.5q-186 0 -287 -124t-101 -325q0 -125 68 -188.5t197 -63.5zM454 583q162 0 162 -165q0 -49 -8.5 -95t-27.5 -88.5t-47 -74.5t-71 -51t-95 -19q-162 0 -162 165q0 49 8.5 95t27.5 88.5t47 74.5t71 51t95 19z M381 722q-21 21 3 45l104 108q13 14 29.5 13t29.5 -16q27 -33 -7 -60l-113 -90q-26 -20 -46 0zM528 722q-21 21 3 45l104 108q13 14 29.5 13t29.5 -16q27 -33 -7 -60l-113 -90q-26 -20 -46 0z"/>
<glyph unicode="ő" horiz-adv-x="496" d="M331 468q87 0 135 -43.5t48 -130.5q0 -60 -15.5 -113.5t-46.5 -97.5t-84 -70t-122 -26q-87 0 -135 43.5t-48 130.5q0 60 15.5 113.5t46.5 97.5t84 70t122 26zM262 79q71 0 106.5 60.5t35.5 138.5q0 98 -89 98q-71 0 -106.5 -60.5t-35.5 -138.5q0 -98 89 -98zM238 514 q-21 21 3 45l104 108q13 14 29.5 13t29.5 -16q27 -33 -7 -60l-113 -90q-26 -20 -46 0zM385 514q-21 21 3 45l104 108q13 14 29.5 13t29.5 -16q27 -33 -7 -60l-113 -90q-26 -20 -46 0z"/>
<glyph unicode="Œ" horiz-adv-x="918" d="M672 569l-32 -179h189q19 0 31 -12.5t12 -31.5q0 -23 -18.5 -40.5t-42.5 -17.5h-189l-32 -184h265q19 0 31 -12.5t12 -31.5q0 -24 -19 -42t-43 -18h-323q-17 0 -26 9q-67 -23 -138 -23q-129 0 -197 63.5t-68 188.5q0 201 101 325t287 124q80 0 130 -25q13 11 30 11h312 q19 0 31.5 -12.5t12.5 -31.5q0 -24 -19 -42t-43 -18h-254zM454 583q-52 0 -95 -19t-71 -51t-47 -74.5t-27.5 -88.5t-8.5 -95q0 -165 162 -165q54 0 109 26l78 444q-40 23 -100 23z"/>
<glyph unicode="œ" horiz-adv-x="795" d="M593 84q51 0 103 31q19 11 32 11q20 0 33.5 -14t13.5 -33q0 -22 -20 -39q-66 -53 -175 -53q-112 0 -154 74q-76 -74 -180 -74q-87 0 -135 43.5t-48 130.5q0 60 15.5 113.5t46.5 97.5t84 70t122 26q102 0 152 -73q66 73 173 73q76 0 120.5 -35.5t44.5 -87.5 q0 -31 -11 -55.5t-42 -49t-98 -38t-168 -13.5q-3 -12 -3 -28q0 -77 94 -77zM262 79q71 0 106.5 60.5t35.5 138.5q0 98 -89 98q-71 0 -106.5 -60.5t-35.5 -138.5q0 -98 89 -98zM650 377q-100 0 -135 -107q199 0 199 69q0 15 -15 26.5t-49 11.5z"/>
<glyph unicode="Ŕ" horiz-adv-x="560" d="M293 258h-71l-37 -208q-4 -24 -24.5 -41t-44.5 -17t-38 17t-9 41l99 565q5 24 24.5 41t43.5 17h191q85 0 131.5 -49.5t46.5 -125.5q0 -85 -53 -154.5t-139 -78.5l116 -188q7 -11 7 -27q0 -24 -17 -41t-41 -17q-34 0 -49 27zM408 569h-132l-37 -209h135q51 0 80.5 38 t29.5 87q0 37 -18.5 60.5t-57.5 23.5zM333 722q-21 21 3 45l102 108q12 14 30 13.5t31 -16.5q29 -35 -6 -62l-114 -88q-26 -20 -46 0z"/>
<glyph unicode="ŕ" horiz-adv-x="324" d="M230 408l-1 -8q45 67 117 67q21 0 33 -12.5t12 -31.5q0 -23 -18.5 -40.5t-41.5 -17.5q-51 0 -85 -30t-43 -81l-37 -208q-4 -22 -22 -38t-41 -16q-24 0 -36.5 15t-8.5 39l64 362q4 23 22 38.5t42 15.5q22 0 34.5 -15.5t9.5 -38.5zM247 514q-21 21 3 45l102 108 q12 14 30 13.5t31 -16.5q29 -35 -6 -62l-114 -88q-26 -20 -46 0z"/>
<glyph unicode="Ŗ" horiz-adv-x="560" d="M293 258h-71l-37 -208q-4 -24 -24.5 -41t-44.5 -17t-38 17t-9 41l99 565q5 24 24.5 41t43.5 17h191q85 0 131.5 -49.5t46.5 -125.5q0 -85 -53 -154.5t-139 -78.5l116 -188q7 -11 7 -27q0 -24 -17 -41t-41 -17q-34 0 -49 27zM408 569h-132l-37 -209h135q51 0 80.5 38 t29.5 87q0 37 -18.5 60.5t-57.5 23.5zM282 -39q44 0 44 -41q0 -54 -35 -107t-79 -83q-8 -5 -14 -5q-8 0 -13 5.5t-5 12.5q0 8 8 15q47 41 47 78q0 13 -8 33t-8 32q0 28 16.5 44t46.5 16z"/>
<glyph unicode="ŗ" horiz-adv-x="324" d="M230 408l-1 -8q45 67 117 67q21 0 33 -12.5t12 -31.5q0 -23 -18.5 -40.5t-41.5 -17.5q-51 0 -85 -30t-43 -81l-37 -208q-4 -22 -22 -38t-41 -16q-24 0 -36.5 15t-8.5 39l64 362q4 23 22 38.5t42 15.5q22 0 34.5 -15.5t9.5 -38.5zM98 -39q44 0 44 -41q0 -54 -35 -107 t-79 -83q-8 -5 -14 -5q-8 0 -13 5.5t-5 12.5q0 8 8 15q47 41 47 78q0 13 -8 33t-8 32q0 28 16.5 44t46.5 16z"/>
<glyph unicode="Ř" horiz-adv-x="560" d="M293 258h-71l-37 -208q-4 -24 -24.5 -41t-44.5 -17t-38 17t-9 41l99 565q5 24 24.5 41t43.5 17h191q85 0 131.5 -49.5t46.5 -125.5q0 -85 -53 -154.5t-139 -78.5l116 -188q7 -11 7 -27q0 -24 -17 -41t-41 -17q-34 0 -49 27zM408 569h-132l-37 -209h135q51 0 80.5 38 t29.5 87q0 37 -18.5 60.5t-57.5 23.5zM392 715q-12 0 -23 8l-78 63q-15 12 -15 31q0 17 11 28t28 11q14 0 24 -8l61 -50l82 51q10 7 24 7q17 0 28 -11.5t11 -28.5q0 -23 -21 -34l-105 -58q-17 -9 -27 -9z"/>
<glyph unicode="ř" horiz-adv-x="324" d="M230 408l-1 -8q45 67 117 67q21 0 33 -12.5t12 -31.5q0 -23 -18.5 -40.5t-41.5 -17.5q-51 0 -85 -30t-43 -81l-37 -208q-4 -22 -22 -38t-41 -16q-24 0 -36.5 15t-8.5 39l64 362q4 23 22 38.5t42 15.5q22 0 34.5 -15.5t9.5 -38.5zM267 516q-12 0 -23 8l-78 63 q-15 12 -15 31q0 16 11.5 27.5t27.5 11.5q14 0 24 -8l61 -50l82 51q11 7 24 7q17 0 28 -11.5t11 -28.5q0 -23 -21 -34l-105 -58q-16 -9 -27 -9z"/>
<glyph unicode="Ś" horiz-adv-x="573" d="M534 526q-61 57 -141 57q-65 0 -97 -26t-32 -62q0 -32 32 -55t78 -39t92.5 -35.5t78.5 -57t32 -92.5q0 -106 -74 -168t-216 -62q-83 0 -145.5 40t-84.5 89q-5 10 -5 22q0 22 15.5 37.5t37.5 15.5q25 0 43 -22q63 -76 158 -76q72 0 112.5 27t40.5 76q0 34 -32.5 57.5 t-78.5 39.5t-92 35t-78.5 56t-32.5 91q0 90 69 151.5t197 61.5q72 0 130.5 -30.5t79.5 -71.5q6 -12 6 -24q0 -22 -15.5 -37.5t-37.5 -15.5t-40 18zM368 722q-21 21 3 45l102 108q12 14 30 13.5t31 -16.5q29 -35 -6 -62l-114 -88q-26 -20 -46 0z"/>
<glyph unicode="ś" horiz-adv-x="425" d="M277 374q-66 0 -66 -42q0 -20 22 -35t53 -26t62 -25t53 -39.5t22 -60.5q0 -74 -54.5 -115.5t-155.5 -41.5q-58 0 -102.5 24t-62.5 53q-7 11 -7 24q0 20 14.5 34t33.5 14q17 0 33 -13q45 -40 108 -40q37 0 59.5 12.5t22.5 32.5q0 23 -33.5 40t-73 29t-73 43t-33.5 77 q0 74 53 111.5t135 37.5q51 0 95 -20t61 -47q7 -11 7 -25q0 -20 -14 -34t-34 -14q-16 0 -34 14q-38 32 -91 32zM260 514q-21 21 3 45l102 108q12 14 30 13.5t31 -16.5q29 -35 -6 -62l-114 -88q-26 -20 -46 0z"/>
<glyph unicode="Ŝ" horiz-adv-x="573" d="M534 526q-61 57 -141 57q-65 0 -97 -26t-32 -62q0 -32 32 -55t78 -39t92.5 -35.5t78.5 -57t32 -92.5q0 -106 -74 -168t-216 -62q-83 0 -145.5 40t-84.5 89q-5 10 -5 22q0 22 15.5 37.5t37.5 15.5q25 0 43 -22q63 -76 158 -76q72 0 112.5 27t40.5 76q0 34 -32.5 57.5 t-78.5 39.5t-92 35t-78.5 56t-32.5 91q0 90 69 151.5t197 61.5q72 0 130.5 -30.5t79.5 -71.5q6 -12 6 -24q0 -22 -15.5 -37.5t-37.5 -15.5t-40 18zM454 856q12 0 23 -8l78 -63q15 -12 15 -31q0 -16 -11 -27.5t-28 -11.5q-14 0 -24 8l-61 50l-82 -51q-11 -7 -24 -7 q-17 0 -28 11.5t-11 28.5q0 23 21 34l105 58q17 9 27 9z"/>
<glyph unicode="ŝ" horiz-adv-x="425" d="M277 374q-66 0 -66 -42q0 -20 22 -35t53 -26t62 -25t53 -39.5t22 -60.5q0 -74 -54.5 -115.5t-155.5 -41.5q-58 0 -102.5 24t-62.5 53q-7 11 -7 24q0 20 14.5 34t33.5 14q17 0 33 -13q45 -40 108 -40q37 0 59.5 12.5t22.5 32.5q0 23 -33.5 40t-73 29t-73 43t-33.5 77 q0 74 53 111.5t135 37.5q51 0 95 -20t61 -47q7 -11 7 -25q0 -20 -14 -34t-34 -14q-16 0 -34 14q-38 32 -91 32zM337 657q12 0 23 -8l78 -63q15 -12 15 -31q0 -17 -11.5 -28t-27.5 -11q-14 0 -24 8l-61 50l-82 -51q-11 -7 -24 -7q-17 0 -28 11.5t-11 28.5q0 23 21 34l105 58 q16 9 27 9z"/>
<glyph unicode="Ş" horiz-adv-x="573" d="M379 -123q0 -52 -32 -82.5t-96 -30.5q-43 0 -72 21q-12 9 -12 22q0 11 7.5 18.5t18.5 7.5q6 0 12 -3q25 -14 59 -14q58 0 58 53q0 34 -48 34q-9 0 -23.5 -3t-21.5 -3q-21 0 -17 22l13 74q-61 13 -106 48t-62 74q-5 10 -5 22q0 22 15.5 37.5t37.5 15.5q25 0 43 -22 q63 -76 158 -76q72 0 112.5 27t40.5 76q0 34 -32.5 57.5t-78.5 39.5t-92 35t-78.5 56t-32.5 91q0 90 69 151.5t197 61.5q72 0 130.5 -30.5t79.5 -71.5q6 -12 6 -24q0 -22 -15.5 -37.5t-37.5 -15.5t-40 18q-61 57 -141 57q-65 0 -97 -26t-32 -62q0 -32 32 -55t78 -39 t92.5 -35.5t78.5 -57t32 -92.5q0 -106 -74 -168t-216 -62l-17 1l-8 -40q14 3 36 3q37 0 59 -19t22 -54z"/>
<glyph unicode="ş" horiz-adv-x="425" d="M318 -123q0 -52 -32 -82.5t-96 -30.5q-44 0 -72 21q-12 9 -12 22q0 11 8 18.5t18 7.5q6 0 12 -3q25 -14 59 -14q58 0 58 53q0 34 -48 34q-9 0 -23.5 -3t-21.5 -3q-21 0 -17 22l13 75q-81 18 -116 72q-7 11 -7 24q0 20 14.5 34t33.5 14q17 0 33 -13q45 -40 108 -40 q37 0 59.5 12.5t22.5 32.5q0 23 -33.5 40t-73 29t-73 43t-33.5 77q0 74 53 111.5t135 37.5q51 0 95 -20t61 -47q7 -11 7 -25q0 -20 -14 -34t-34 -14q-16 0 -34 14q-38 32 -91 32q-66 0 -66 -42q0 -20 22 -35t53 -26t62 -25t53 -39.5t22 -60.5q0 -74 -55 -115.5t-156 -41.5 l-11 -42q14 3 36 3q37 0 59 -19t22 -54z"/>
<glyph unicode="Š" horiz-adv-x="573" d="M534 526q-61 57 -141 57q-65 0 -97 -26t-32 -62q0 -32 32 -55t78 -39t92.5 -35.5t78.5 -57t32 -92.5q0 -106 -74 -168t-216 -62q-83 0 -145.5 40t-84.5 89q-5 10 -5 22q0 22 15.5 37.5t37.5 15.5q25 0 43 -22q63 -76 158 -76q72 0 112.5 27t40.5 76q0 34 -32.5 57.5 t-78.5 39.5t-92 35t-78.5 56t-32.5 91q0 90 69 151.5t197 61.5q72 0 130.5 -30.5t79.5 -71.5q6 -12 6 -24q0 -22 -15.5 -37.5t-37.5 -15.5t-40 18zM432 715q-12 0 -23 8l-78 63q-15 12 -15 31q0 17 11 28t28 11q14 0 24 -8l61 -50l82 51q10 7 24 7q17 0 28 -11.5t11 -28.5 q0 -23 -21 -34l-105 -58q-16 -9 -27 -9z"/>
<glyph unicode="š" horiz-adv-x="425" d="M277 374q-66 0 -66 -42q0 -20 22 -35t53 -26t62 -25t53 -39.5t22 -60.5q0 -74 -54.5 -115.5t-155.5 -41.5q-58 0 -102.5 24t-62.5 53q-7 11 -7 24q0 20 14.5 34t33.5 14q17 0 33 -13q45 -40 108 -40q37 0 59.5 12.5t22.5 32.5q0 23 -33.5 40t-73 29t-73 43t-33.5 77 q0 74 53 111.5t135 37.5q51 0 95 -20t61 -47q7 -11 7 -25q0 -20 -14 -34t-34 -14q-16 0 -34 14q-38 32 -91 32zM307 516q-12 0 -23 8l-78 63q-15 12 -15 31q0 16 11.5 27.5t27.5 11.5q14 0 24 -8l61 -50l82 51q10 7 24 7q17 0 28 -11.5t11 -28.5q0 -23 -21 -34l-105 -58 q-17 -9 -27 -9z"/>
<glyph unicode="Ţ" horiz-adv-x="566" d="M442 571l-92 -521q-5 -24 -24.5 -41t-43.5 -17t-38 17t-10 41l92 521h-153q-19 0 -31 12.5t-12 31.5q0 23 18.5 40.5t42.5 17.5h422q19 0 31 -12.5t12 -31.5q0 -23 -18.5 -40.5t-42.5 -17.5h-153zM275 -39q44 0 44 -41q0 -54 -35 -107t-79 -83q-8 -5 -14 -5 q-7 0 -12.5 5.5t-5.5 12.5q0 8 8 15q47 41 47 78q0 13 -8 33t-8 32q0 28 16.5 44t46.5 16z"/>
<glyph unicode="ţ" horiz-adv-x="306" d="M165 454l14 84q4 22 22.5 37.5t40.5 15.5t34.5 -15.5t8.5 -37.5l-15 -84h46q16 0 26.5 -11t10.5 -27q0 -21 -16 -36.5t-37 -15.5h-45l-42 -233q-2 -10 -2 -17q0 -13 10 -20.5t23 -7.5q17 0 28 -11.5t11 -28.5q0 -23 -16.5 -38.5t-46.5 -15.5q-57 0 -86.5 29t-29.5 79 q0 13 3 28l42 236h-23q-16 0 -27 11t-11 27q0 21 16.5 36.5t37.5 15.5h23zM164 -39q44 0 44 -41q0 -54 -35 -107t-79 -83q-8 -5 -14 -5q-8 0 -13 5.5t-5 12.5q0 8 8 15q47 41 47 78q0 13 -8 33t-8 32q0 28 16.5 44t46.5 16z"/>
<glyph unicode="Ť" horiz-adv-x="566" d="M442 571l-92 -521q-5 -24 -24.5 -41t-43.5 -17t-38 17t-10 41l92 521h-153q-19 0 -31 12.5t-12 31.5q0 23 18.5 40.5t42.5 17.5h422q19 0 31 -12.5t12 -31.5q0 -23 -18.5 -40.5t-42.5 -17.5h-153zM410 715q-12 0 -23 8l-78 63q-15 12 -15 31q0 17 11 28t28 11q14 0 24 -8 l61 -50l82 51q10 7 24 7q17 0 28 -11.5t11 -28.5q0 -23 -21 -34l-105 -58q-16 -9 -27 -9z"/>
<glyph unicode="ť" horiz-adv-x="471" d="M165 454l14 84q4 22 22.5 37.5t40.5 15.5t34.5 -15.5t8.5 -37.5l-15 -84h46q16 0 26.5 -11t10.5 -27q0 -21 -16 -36.5t-37 -15.5h-45l-42 -233q-2 -10 -2 -17q0 -13 10 -20.5t23 -7.5q17 0 28 -11.5t11 -28.5q0 -23 -16.5 -38.5t-46.5 -15.5q-57 0 -86.5 29t-29.5 79 q0 13 3 28l42 236h-23q-16 0 -27 11t-11 27q0 21 16.5 36.5t37.5 15.5h23zM505 711q55 0 55 -52q0 -72 -43.5 -133.5t-101.5 -104.5q-7 -5 -14 -5q-9 0 -15.5 6.5t-6.5 15.5t9 18q31 31 45 52t14 47q0 15 -10 40t-10 40q0 36 20.5 56t57.5 20z"/>
<glyph unicode="Ŧ" horiz-adv-x="566" d="M595 571h-153l-31 -173h57q18 0 29.5 -12t11.5 -29q0 -22 -17.5 -38.5t-40.5 -16.5h-57l-44 -252q-5 -24 -24.5 -41t-43.5 -17q-25 0 -39 17t-9 41l44 252h-57q-17 0 -28.5 12t-11.5 29q0 22 17 38.5t40 16.5h57l31 173h-153q-19 0 -31 12.5t-12 31.5q0 23 18 40.5 t43 17.5h422q19 0 31 -12.5t12 -31.5q0 -23 -18.5 -40.5t-42.5 -17.5z"/>
<glyph unicode="ŧ" horiz-adv-x="306" d="M329 275q0 -17 -14 -30t-31 -13h-53l-19 -110q-3 -16 7 -26t25 -10q17 0 28.5 -11.5t11.5 -28.5q0 -21 -17.5 -37.5t-38.5 -16.5q-58 0 -90.5 29.5t-32.5 78.5q0 13 3 28l18 104h-30q-14 0 -23 9.5t-9 23.5q0 17 14 30t31 13h30l10 56h-23q-16 0 -27 11t-11 27 q0 21 16.5 36.5t37.5 15.5h23l15 84q4 22 22 37.5t40 15.5t35 -15.5t9 -37.5l-15 -84h45q16 0 27 -11t11 -27q0 -21 -16.5 -36.5t-37.5 -15.5h-45l-10 -56h52q14 0 23 -9.5t9 -23.5z"/>
<glyph unicode="Ũ" horiz-adv-x="619" d="M319 -14q-118 0 -171 49.5t-53 127.5q0 25 5 57l70 403q5 24 24.5 41t43.5 17t38 -17t10 -41l-71 -403q-3 -16 -3 -37q0 -95 116 -95q135 0 159 132l71 403q5 24 24.5 41t43.5 17t38 -17t10 -41l-71 -403q-7 -38 -17 -68.5t-31 -62.5t-50.5 -53.5t-77 -35.5t-108.5 -14z M517 803q11 0 28 19q13 14 30 14t28 -11t11 -28q0 -12 -6 -22q-28 -46 -95 -46q-31 0 -69.5 17t-50.5 17q-15 0 -30 -17q-14 -16 -32 -16q-17 0 -28 11t-11 28q0 12 6 22q28 46 96 46q30 0 68.5 -17t54.5 -17z"/>
<glyph unicode="ũ" d="M181 462q22 0 35 -15.5t9 -38.5l-41 -233q-3 -17 -3 -29q0 -61 77 -61q89 0 105 90l41 233q4 22 22.5 38t41.5 16q22 0 35 -15.5t9 -38.5l-41 -233q-15 -86 -64 -137t-159 -51q-177 0 -177 136q0 22 5 52l41 233q4 22 22.5 38t41.5 16zM412 599q11 0 28 19q13 14 30 14 q16 0 27.5 -11t11.5 -28q0 -12 -6 -22q-28 -46 -95 -46q-31 0 -69.5 17t-50.5 17q-15 0 -30 -17q-14 -16 -32 -16q-16 0 -27.5 11t-11.5 28q0 12 6 22q28 46 96 46q30 0 68.5 -17t54.5 -17z"/>
<glyph unicode="Ū" horiz-adv-x="619" d="M319 -14q-118 0 -171 49.5t-53 127.5q0 25 5 57l70 403q5 24 24.5 41t43.5 17t38 -17t10 -41l-71 -403q-3 -16 -3 -37q0 -95 116 -95q135 0 159 132l71 403q5 24 24.5 41t43.5 17t38 -17t10 -41l-71 -403q-7 -38 -17 -68.5t-31 -62.5t-50.5 -53.5t-77 -35.5t-108.5 -14z M577 776q0 -17 -14 -30t-31 -13h-173q-14 0 -23 9.5t-9 23.5q0 17 14 30t31 13h173q14 0 23 -9.5t9 -23.5z"/>
<glyph unicode="ū" d="M181 462q22 0 35 -15.5t9 -38.5l-41 -233q-3 -17 -3 -29q0 -61 77 -61q89 0 105 90l41 233q4 22 22.5 38t41.5 16q22 0 35 -15.5t9 -38.5l-41 -233q-15 -86 -64 -137t-159 -51q-177 0 -177 136q0 22 5 52l41 233q4 22 22.5 38t41.5 16zM470 567q0 -17 -14 -30t-31 -13 h-173q-14 0 -23 9.5t-9 23.5q0 17 14 30t31 13h173q14 0 23 -9.5t9 -23.5z"/>
<glyph unicode="Ŭ" horiz-adv-x="619" d="M319 -14q-118 0 -171 49.5t-53 127.5q0 25 5 57l70 403q5 24 24.5 41t43.5 17t38 -17t10 -41l-71 -403q-3 -16 -3 -37q0 -95 116 -95q135 0 159 132l71 403q5 24 24.5 41t43.5 17t38 -17t10 -41l-71 -403q-7 -38 -17 -68.5t-31 -62.5t-50.5 -53.5t-77 -35.5t-108.5 -14z M444 728q-55 0 -88 22t-33 67q0 25 12.5 39.5t31.5 14.5q14 0 22 -9t8 -22q0 -2 -0.5 -6.5t-0.5 -8.5q0 -29 60 -29q64 0 73 39q9 36 42 36q13 0 22 -8.5t9 -22.5q0 -54 -45 -83t-113 -29z"/>
<glyph unicode="ŭ" d="M181 462q22 0 35 -15.5t9 -38.5l-41 -233q-3 -17 -3 -29q0 -61 77 -61q89 0 105 90l41 233q4 22 22.5 38t41.5 16q22 0 35 -15.5t9 -38.5l-41 -233q-15 -86 -64 -137t-159 -51q-177 0 -177 136q0 22 5 52l41 233q4 22 22.5 38t41.5 16zM337 523q-55 0 -88 22t-33 67 q0 25 12.5 39.5t31.5 14.5q14 0 22 -9t8 -22q0 -2 -0.5 -6.5t-0.5 -8.5q0 -29 60 -29q64 0 73 39q9 36 42 36q14 0 22.5 -9t8.5 -22q0 -54 -45 -83t-113 -29z"/>
<glyph unicode="Ů" horiz-adv-x="619" d="M319 -14q-118 0 -171 49.5t-53 127.5q0 25 5 57l70 403q5 24 24.5 41t43.5 17t38 -17t10 -41l-71 -403q-3 -16 -3 -37q0 -95 116 -95q135 0 159 132l71 403q5 24 24.5 41t43.5 17t38 -17t10 -41l-71 -403q-7 -38 -17 -68.5t-31 -62.5t-50.5 -53.5t-77 -35.5t-108.5 -14z M449 753q29 0 44.5 17.5t15.5 46.5q0 34 -43 34q-29 0 -44.5 -17.5t-15.5 -46.5q0 -34 43 -34zM475 901q90 0 90 -75q0 -54 -33 -88.5t-92 -34.5q-90 0 -90 75q0 54 33 88.5t92 34.5z"/>
<glyph unicode="ů" d="M181 462q22 0 35 -15.5t9 -38.5l-41 -233q-3 -17 -3 -29q0 -61 77 -61q89 0 105 90l41 233q4 22 22.5 38t41.5 16q22 0 35 -15.5t9 -38.5l-41 -233q-15 -86 -64 -137t-159 -51q-177 0 -177 136q0 22 5 52l41 233q4 22 22.5 38t41.5 16zM342 551q29 0 44.5 17.5t15.5 46.5 q0 34 -43 34q-29 0 -44.5 -17.5t-15.5 -46.5q0 -34 43 -34zM368 699q90 0 90 -75q0 -54 -33 -88.5t-92 -34.5q-90 0 -90 75q0 54 33 88.5t92 34.5z"/>
<glyph unicode="Ű" horiz-adv-x="619" d="M319 -14q-118 0 -171 49.5t-53 127.5q0 25 5 57l70 403q5 24 24.5 41t43.5 17t38 -17t10 -41l-71 -403q-3 -16 -3 -37q0 -95 116 -95q135 0 159 132l71 403q5 24 24.5 41t43.5 17t38 -17t10 -41l-71 -403q-7 -38 -17 -68.5t-31 -62.5t-50.5 -53.5t-77 -35.5t-108.5 -14z M328 722q-21 21 3 45l104 108q13 14 29.5 13t29.5 -16q27 -33 -7 -60l-113 -90q-26 -20 -46 0zM475 722q-21 21 3 45l104 108q13 14 29.5 13t29.5 -16q27 -33 -7 -60l-113 -90q-26 -20 -46 0z"/>
<glyph unicode="ű" d="M181 462q22 0 35 -15.5t9 -38.5l-41 -233q-3 -17 -3 -29q0 -61 77 -61q89 0 105 90l41 233q4 22 22.5 38t41.5 16q22 0 35 -15.5t9 -38.5l-41 -233q-15 -86 -64 -137t-159 -51q-177 0 -177 136q0 22 5 52l41 233q4 22 22.5 38t41.5 16zM229 514q-21 21 3 45l104 108 q13 14 29.5 13t29.5 -16q27 -33 -7 -60l-113 -90q-26 -20 -46 0zM376 514q-21 21 3 45l104 108q13 14 29.5 13t29.5 -16q27 -33 -7 -60l-113 -90q-26 -20 -46 0z"/>
<glyph unicode="Ų" horiz-adv-x="619" d="M485 -144q0 -17 -14 -27q-24 -17 -76 -17q-44 0 -73.5 18t-29.5 56q0 60 63 102q-24 -2 -36 -2q-118 0 -171 49.5t-53 127.5q0 25 5 57l70 403q5 24 24.5 41t43.5 17t38 -17t10 -41l-71 -403q-3 -16 -3 -37q0 -95 116 -95q135 0 159 132l71 403q5 24 24.5 41t43.5 17 t38 -17t10 -41l-71 -403q-9 -52 -25 -91t-54 -76t-95 -53q-69 -45 -69 -88q0 -38 48 -38q14 0 29.5 3.5t22.5 3.5q11 0 18 -7t7 -18z"/>
<glyph unicode="ų" d="M396 -144q0 -17 -14 -27q-24 -17 -76 -17q-44 0 -73.5 18t-29.5 56q0 58 66 102q-6 -1 -21 -1q-177 0 -177 136q0 22 5 52l41 233q4 22 22.5 38t41.5 16q22 0 35 -15.5t9 -38.5l-41 -233q-3 -17 -3 -29q0 -61 77 -61q89 0 105 90l41 233q4 22 22.5 38t41.5 16 q22 0 35 -15.5t9 -38.5l-41 -233q-24 -142 -132 -175q-68 -44 -68 -88q0 -38 48 -38q14 0 29.5 3.5t22.5 3.5q11 0 18 -7t7 -18z"/>
<glyph unicode="Ŵ" horiz-adv-x="838" d="M540 35l-43 410l-187 -410q-19 -43 -63 -43q-19 0 -32.5 11.5t-15.5 28.5l-69 569q-2 18 -2 23q0 23 17 40t40 17t39 -15.5t18 -35.5l46 -409l188 418q19 42 63 42q19 0 33 -11.5t16 -30.5l40 -418l193 427q15 33 52 33q23 0 40 -17t17 -40q0 -13 -7 -27l-272 -565 q-19 -40 -62 -40q-20 0 -33.5 12t-15.5 31zM564 856q12 0 23 -8l78 -63q15 -12 15 -31q0 -16 -11 -27.5t-28 -11.5q-14 0 -24 8l-61 50l-82 -51q-10 -7 -24 -7q-17 0 -28 11.5t-11 28.5q0 23 21 34l105 58q17 9 27 9z"/>
<glyph unicode="ŵ" horiz-adv-x="636" d="M386 30l-23 219l-101 -218q-19 -39 -59 -39q-18 0 -30 10t-15 25l-72 357q-3 12 -3 24q0 23 15.5 38.5t38.5 15.5q20 0 35 -13.5t18 -30.5l43 -237l109 242q17 39 56 39q21 0 33.5 -11.5t14.5 -27.5l24 -242l126 252q15 29 48 29q22 0 38 -16t16 -38q0 -15 -8 -29 l-203 -353q-19 -34 -56 -34q-18 0 -30.5 10.5t-14.5 27.5zM434 657q12 0 23 -8l78 -63q15 -12 15 -31q0 -17 -11 -28t-28 -11q-14 0 -24 8l-61 50l-82 -51q-10 -7 -24 -7q-17 0 -28 11.5t-11 28.5q0 23 21 34l105 58q17 9 27 9z"/>
<glyph unicode="Ŷ" horiz-adv-x="554" d="M186 681q36 0 50 -29l115 -235l190 240q19 24 47 24q24 0 41 -17t17 -41q0 -21 -15 -39l-242 -277l-45 -257q-5 -25 -23.5 -41.5t-44.5 -16.5t-39.5 17t-8.5 41l45 257l-140 292q-5 10 -5 24q0 24 17 41t41 17zM429 856q12 0 23 -8l78 -63q15 -12 15 -31 q0 -16 -11.5 -27.5t-27.5 -11.5q-14 0 -24 8l-61 50l-82 -51q-11 -7 -24 -7q-17 0 -28 11.5t-11 28.5q0 23 21 34l105 58q16 9 27 9z"/>
<glyph unicode="ŷ" d="M181 462q22 0 35 -15.5t9 -38.5l-33 -185q-3 -16 -3 -29q0 -61 77 -61q90 0 106 90l32 185q4 22 22.5 38t41.5 16q22 0 35 -15.5t9 -38.5l-73 -420q-16 -95 -83 -142t-174 -47q-62 0 -102.5 27t-40.5 72q0 46 38 77t131 63q-129 18 -129 133q0 22 5 52l33 185 q4 22 22.5 38t41.5 16zM139 -73q0 -43 59 -43q52 0 89 29t49 88l19 92q-18 -28 -56 -52t-72.5 -38t-61 -34t-26.5 -42zM365 657q12 0 23 -8l78 -63q15 -12 15 -31q0 -17 -11.5 -28t-27.5 -11q-14 0 -24 8l-61 50l-82 -51q-11 -7 -24 -7q-17 0 -28 11.5t-11 28.5q0 23 21 34 l105 58q17 9 27 9z"/>
<glyph unicode="Ÿ" horiz-adv-x="554" d="M186 681q36 0 50 -29l115 -235l190 240q19 24 47 24q24 0 41 -17t17 -41q0 -21 -15 -39l-242 -277l-45 -257q-5 -25 -23.5 -41.5t-44.5 -16.5t-39.5 17t-8.5 41l45 257l-140 292q-5 10 -5 24q0 24 17 41t41 17zM317 740q-42 0 -42 40q0 64 60 64q42 0 42 -40 q0 -31 -15.5 -47.5t-44.5 -16.5zM498 740q-42 0 -42 40q0 64 60 64q42 0 42 -40q0 -31 -15.5 -47.5t-44.5 -16.5z"/>
<glyph unicode="Ź" horiz-adv-x="541" d="M476 0h-409q-19 0 -31.5 12.5t-12.5 31.5q0 21 17 40l422 487h-276q-19 0 -30.5 12.5t-11.5 31.5q0 24 17 41t43 17h378q19 0 31 -12.5t12 -31.5t-15 -36l-421 -489h305q19 0 31.5 -12.5t12.5 -31.5q0 -24 -19 -42t-43 -18zM350 722q-21 21 3 45l102 108q12 14 30 13.5 t31 -16.5q29 -35 -6 -62l-114 -88q-26 -20 -46 0z"/>
<glyph unicode="ź" horiz-adv-x="409" d="M100 402q0 21 16.5 36.5t37.5 15.5h257q17 0 28.5 -12t11.5 -29q0 -19 -17 -38l-260 -283h181q16 0 27 -11.5t11 -28.5q0 -21 -16.5 -36.5t-37.5 -15.5h-276q-17 0 -28 11.5t-11 28.5q0 19 17 36l265 288h-168q-16 0 -27 11t-11 27zM248 514q-21 21 3 45l102 108 q12 14 30 13.5t31 -16.5q29 -35 -6 -62l-114 -88q-26 -20 -46 0z"/>
<glyph unicode="Ż" horiz-adv-x="541" d="M476 0h-409q-19 0 -31.5 12.5t-12.5 31.5q0 21 17 40l422 487h-276q-19 0 -30.5 12.5t-11.5 31.5q0 24 17 41t43 17h378q19 0 31 -12.5t12 -31.5t-15 -36l-421 -489h305q19 0 31.5 -12.5t12.5 -31.5q0 -24 -19 -42t-43 -18zM407 730q-45 0 -45 40q0 65 63 65q44 0 44 -41 q0 -64 -62 -64z"/>
<glyph unicode="ż" horiz-adv-x="409" d="M100 402q0 21 16.5 36.5t37.5 15.5h257q17 0 28.5 -12t11.5 -29q0 -19 -17 -38l-260 -283h181q16 0 27 -11.5t11 -28.5q0 -21 -16.5 -36.5t-37.5 -15.5h-276q-17 0 -28 11.5t-11 28.5q0 19 17 36l265 288h-168q-16 0 -27 11t-11 27zM304 537q-45 0 -45 40q0 65 63 65 q44 0 44 -41q0 -64 -62 -64z"/>
<glyph unicode="Ž" horiz-adv-x="541" d="M476 0h-409q-19 0 -31.5 12.5t-12.5 31.5q0 21 17 40l422 487h-276q-19 0 -30.5 12.5t-11.5 31.5q0 24 17 41t43 17h378q19 0 31 -12.5t12 -31.5t-15 -36l-421 -489h305q19 0 31.5 -12.5t12.5 -31.5q0 -24 -19 -42t-43 -18zM403 715q-12 0 -23 8l-78 63q-15 12 -15 31 q0 17 11.5 28t27.5 11q14 0 24 -8l61 -50l82 51q10 7 24 7q17 0 28 -11.5t11 -28.5q0 -23 -21 -34l-105 -58q-17 -9 -27 -9z"/>
<glyph unicode="ž" horiz-adv-x="409" d="M100 402q0 21 16.5 36.5t37.5 15.5h257q17 0 28.5 -12t11.5 -29q0 -19 -17 -38l-260 -283h181q16 0 27 -11.5t11 -28.5q0 -21 -16.5 -36.5t-37.5 -15.5h-276q-17 0 -28 11.5t-11 28.5q0 19 17 36l265 288h-168q-16 0 -27 11t-11 27zM300 516q-12 0 -23 8l-78 63 q-15 12 -15 31q0 16 11 27.5t28 11.5q14 0 24 -8l61 -50l82 51q10 7 24 7q17 0 28 -11.5t11 -28.5q0 -23 -21 -34l-105 -58q-16 -9 -27 -9z"/>
<glyph unicode="ſ" horiz-adv-x="274" d="M145 364h-20q-16 0 -27 11t-11 27q0 21 16.5 36.5t37.5 15.5h20l10 54q14 77 68.5 127t153.5 50q17 0 28.5 -11.5t11.5 -28.5q0 -22 -17 -38t-39 -16q-40 0 -65 -20.5t-31 -54.5l-84 -472q-4 -22 -22 -37t-41 -15q-24 0 -36.5 14.5t-8.5 37.5z"/>
<glyph unicode="ƒ" horiz-adv-x="478" d="M154 398l21 115q15 80 60 127t117 47q62 0 97 -26q20 -14 20 -38q0 -19 -13.5 -32.5t-32.5 -13.5q-9 0 -23 6q-23 10 -48 10q-55 0 -70 -81l-21 -114h66q19 0 32 -13t13 -32t-13 -32t-32 -13h-81l-58 -310q-37 -199 -213 -199q-42 0 -77 13q-32 12 -32 44q0 20 13.5 34 t32.5 14q6 0 18 -3q26 -7 45 -7q46 0 71.5 25.5t35.5 79.5l55 309h-36q-19 0 -32 13t-13 32t13 32t32 13h53z"/>
<glyph unicode="Ǣ" horiz-adv-x="864" d="M349 291h104l29 166zM782 0h-323q-24 0 -38 16t-10 40l23 129h-167l-137 -170q-19 -23 -45 -23q-22 0 -38 16t-16 38q0 20 15 37l474 564q22 26 59 26h311q19 0 31.5 -12.5t12.5 -31.5q0 -24 -19 -42t-43 -18h-254l-32 -179h189q19 0 31 -12.5t12 -31.5 q0 -23 -18.5 -40.5t-42.5 -17.5h-189l-32 -184h265q19 0 31 -12.5t12 -31.5q0 -24 -19 -42t-43 -18zM813 776q0 -17 -14 -30t-31 -13h-173q-14 0 -23 9.5t-9 23.5q0 17 14 30t31 13h173q14 0 23 -9.5t9 -23.5z"/>
<glyph unicode="ǣ" horiz-adv-x="777" d="M575 84q51 0 103 31q19 11 32 11q20 0 33.5 -14t13.5 -33q0 -22 -20 -39q-66 -53 -175 -53q-136 0 -173 105q-22 -39 -67.5 -72t-110.5 -33q-75 0 -113 46t-38 123q0 136 75 224t188 88q92 0 140 -68q71 68 175 68q76 0 120.5 -35.5t44.5 -87.5q0 -31 -11 -55.5t-42 -49 t-98 -38t-168 -13.5q-3 -12 -3 -28q0 -77 94 -77zM170 166q0 -39 18.5 -64t50.5 -25q51 0 88 36.5t52 100.5q7 72 40 129q-43 31 -92 31q-67 0 -112 -55.5t-45 -152.5zM632 377q-100 0 -135 -107q199 0 199 69q0 15 -15 26.5t-49 11.5zM621 567q0 -17 -14 -30t-31 -13h-173 q-14 0 -23 9.5t-9 23.5q0 17 14 30t31 13h173q14 0 23 -9.5t9 -23.5z"/>
<glyph unicode="Ǻ" horiz-adv-x="624" d="M458 829q90 0 90 -75q0 -84 -68 -113l133 -575q2 -6 2 -17q0 -23 -17 -40t-40 -17q-44 0 -55 42l-34 141h-247l-88 -154q-17 -29 -50 -29q-25 0 -41 16.5t-16 40.5q0 15 9 30l335 561q-38 18 -38 66q0 54 33 88.5t92 34.5zM449 281l-47 210l-122 -210h169zM432 681 q29 0 44.5 17.5t15.5 46.5q0 34 -43 34q-29 0 -44.5 -17.5t-15.5 -46.5q0 -34 43 -34zM390 854q-21 21 3 45l102 108q12 14 30 13.5t31 -16.5q29 -35 -6 -62l-114 -88q-26 -20 -46 0z"/>
<glyph unicode="ǻ" horiz-adv-x="494" d="M520 408l-64 -362q-4 -23 -21.5 -38.5t-41.5 -15.5q-23 0 -36 15.5t-8 38.5l5 23q-50 -82 -148 -82q-70 0 -108 46.5t-38 122.5q0 136 75 224t188 88q63 0 101 -36q17 30 52 30q22 0 35 -15.5t9 -38.5zM170 166q0 -39 18.5 -64t50.5 -25q54 0 91 40.5t50 110.5l22 122 q-33 24 -75 24q-67 0 -112 -55.5t-45 -152.5zM348 539q29 0 44.5 17.5t15.5 46.5q0 34 -43 34q-29 0 -44.5 -17.5t-15.5 -46.5q0 -34 43 -34zM374 687q90 0 90 -75q0 -54 -33 -88.5t-92 -34.5q-90 0 -90 75q0 54 33 88.5t92 34.5zM310 709q-21 21 3 45l102 108 q12 14 30 13.5t31 -16.5q29 -35 -6 -62l-114 -88q-26 -20 -46 0z"/>
<glyph unicode="Ǽ" horiz-adv-x="864" d="M349 291h104l29 166zM782 0h-323q-24 0 -38 16t-10 40l23 129h-167l-137 -170q-19 -23 -45 -23q-22 0 -38 16t-16 38q0 20 15 37l474 564q22 26 59 26h311q19 0 31.5 -12.5t12.5 -31.5q0 -24 -19 -42t-43 -18h-254l-32 -179h189q19 0 31 -12.5t12 -31.5 q0 -23 -18.5 -40.5t-42.5 -17.5h-189l-32 -184h265q19 0 31 -12.5t12 -31.5q0 -24 -19 -42t-43 -18zM621 722q-21 21 3 45l102 108q12 14 30 13.5t31 -16.5q29 -35 -6 -62l-114 -88q-26 -20 -46 0z"/>
<glyph unicode="ǽ" horiz-adv-x="777" d="M575 84q51 0 103 31q19 11 32 11q20 0 33.5 -14t13.5 -33q0 -22 -20 -39q-66 -53 -175 -53q-136 0 -173 105q-22 -39 -67.5 -72t-110.5 -33q-75 0 -113 46t-38 123q0 136 75 224t188 88q92 0 140 -68q71 68 175 68q76 0 120.5 -35.5t44.5 -87.5q0 -31 -11 -55.5t-42 -49 t-98 -38t-168 -13.5q-3 -12 -3 -28q0 -77 94 -77zM170 166q0 -39 18.5 -64t50.5 -25q51 0 88 36.5t52 100.5q7 72 40 129q-43 31 -92 31q-67 0 -112 -55.5t-45 -152.5zM632 377q-100 0 -135 -107q199 0 199 69q0 15 -15 26.5t-49 11.5zM439 514q-21 21 3 45l102 108 q12 14 30 13.5t31 -16.5q29 -35 -6 -62l-114 -88q-26 -20 -46 0z"/>
<glyph unicode="Ǿ" horiz-adv-x="702" d="M349 -14q186 0 287 124t101 325q0 83 -30 138l45 45q16 14 16 34q0 18 -13 31t-31 13t-34 -16l-40 -41q-66 48 -178 48q-186 0 -287 -124t-101 -325q0 -84 30 -139l-46 -47q-16 -14 -16 -34q0 -18 13 -31t31 -13t34 16l42 42q65 -46 177 -46zM454 583q71 0 109 -31 l-352 -356q-6 27 -6 59q0 49 8.5 95t27.5 88.5t47 74.5t71 51t95 19zM367 90q-69 0 -108 30l351 354q6 -26 6 -56q0 -49 -8.5 -95t-27.5 -88.5t-47 -74.5t-71 -51t-95 -19zM423 722q-21 21 3 45l102 108q12 14 30 13.5t31 -16.5q29 -35 -6 -62l-114 -88q-26 -20 -46 0z"/>
<glyph unicode="ǿ" horiz-adv-x="497" d="M331 468q79 0 125 -36l28 25q14 12 29 12q17 0 28.5 -11.5t11.5 -28.5q0 -18 -14 -31l-36 -32q11 -33 11 -72q0 -60 -15.5 -113.5t-46.5 -97.5t-84 -70t-122 -26q-82 0 -129 38l-24 -21q-14 -12 -29 -12q-16 0 -28 12t-12 28q0 18 14 31l34 30q-9 30 -9 68 q0 60 15.5 113.5t46.5 97.5t84 70t122 26zM262 79q49 0 82.5 32.5t46.5 75.5t13 92l-204 -180q20 -20 62 -20zM315 376q-70 0 -105.5 -58.5t-36.5 -135.5l200 177q-23 17 -58 17zM291 514q-21 21 3 45l102 108q12 14 30 13.5t31 -16.5q29 -35 -6 -62l-114 -88q-26 -20 -46 0 z"/>
<glyph unicode="Ș" horiz-adv-x="573" d="M534 526q-61 57 -141 57q-65 0 -97 -26t-32 -62q0 -32 32 -55t78 -39t92.5 -35.5t78.5 -57t32 -92.5q0 -106 -74 -168t-216 -62q-83 0 -145.5 40t-84.5 89q-5 10 -5 22q0 22 15.5 37.5t37.5 15.5q25 0 43 -22q63 -76 158 -76q72 0 112.5 27t40.5 76q0 34 -32.5 57.5 t-78.5 39.5t-92 35t-78.5 56t-32.5 91q0 90 69 151.5t197 61.5q72 0 130.5 -30.5t79.5 -71.5q6 -12 6 -24q0 -22 -15.5 -37.5t-37.5 -15.5t-40 18zM285 -39q44 0 44 -41q0 -54 -35 -107t-79 -83q-8 -5 -14 -5q-7 0 -12.5 5.5t-5.5 12.5q0 8 8 15q47 41 47 78q0 13 -8 33 t-8 32q0 28 16.5 44t46.5 16z"/>
<glyph unicode="ș" horiz-adv-x="425" d="M277 374q-66 0 -66 -42q0 -20 22 -35t53 -26t62 -25t53 -39.5t22 -60.5q0 -74 -54.5 -115.5t-155.5 -41.5q-58 0 -102.5 24t-62.5 53q-7 11 -7 24q0 20 14.5 34t33.5 14q17 0 33 -13q45 -40 108 -40q37 0 59.5 12.5t22.5 32.5q0 23 -33.5 40t-73 29t-73 43t-33.5 77 q0 74 53 111.5t135 37.5q51 0 95 -20t61 -47q7 -11 7 -25q0 -20 -14 -34t-34 -14q-16 0 -34 14q-38 32 -91 32zM211 -39q44 0 44 -41q0 -54 -35 -107t-79 -83q-8 -5 -14 -5q-7 0 -12.5 5.5t-5.5 12.5q0 8 8 15q47 41 47 78q0 13 -8 33t-8 32q0 28 16.5 44t46.5 16z"/>
<glyph unicode="ȷ" horiz-adv-x="213" d="M54 -8l73 416q4 22 22.5 38t41.5 16q22 0 35 -15.5t9 -38.5l-73 -416q-12 -67 -66 -112.5t-124 -45.5q-18 0 -30 12.5t-12 30.5q0 23 17.5 40t42.5 17q24 0 41.5 16.5t22.5 41.5z"/>
<glyph unicode="ˆ" horiz-adv-x="334" d="M283 657q12 0 23 -8l78 -63q15 -12 15 -31q0 -17 -11.5 -28t-27.5 -11q-14 0 -24 8l-61 50l-82 -51q-11 -7 -24 -7q-17 0 -28 11.5t-11 28.5q0 23 21 34l105 58q16 9 27 9z"/>
<glyph unicode="ˇ" horiz-adv-x="334" d="M257 516q-12 0 -23 8l-78 63q-15 12 -15 31q0 16 11.5 27.5t27.5 11.5q14 0 24 -8l61 -50l82 51q11 7 24 7q17 0 28 -11.5t11 -28.5q0 -23 -21 -34l-105 -58q-17 -9 -27 -9z"/>
<glyph unicode="˘" horiz-adv-x="327" d="M255 523q-55 0 -88 22t-33 67q0 25 12.5 39.5t31.5 14.5q14 0 22 -9t8 -22q0 -2 -0.5 -6.5t-0.5 -8.5q0 -29 60 -29q64 0 73 39q9 36 42 36q14 0 22.5 -9t8.5 -22q0 -54 -45 -83t-113 -29z"/>
<glyph unicode="˙" horiz-adv-x="288" d="M239 537q-45 0 -45 40q0 65 63 65q44 0 44 -41q0 -64 -62 -64z"/>
<glyph unicode="˚" horiz-adv-x="277" d="M235 551q29 0 44.5 17.5t15.5 46.5q0 34 -43 34q-29 0 -44.5 -17.5t-15.5 -46.5q0 -34 43 -34zM261 699q90 0 90 -75q0 -54 -33 -88.5t-92 -34.5q-90 0 -90 75q0 54 33 88.5t92 34.5z"/>
<glyph unicode="˛" horiz-adv-x="319" d="M233 -144q0 -17 -14 -27q-24 -17 -76 -17q-44 0 -73.5 18t-29.5 56q0 36 27 68.5t60 45.5h50q-69 -45 -69 -88q0 -38 48 -38q14 0 29.5 3.5t22.5 3.5q11 0 18 -7t7 -18z"/>
<glyph unicode="˜" horiz-adv-x="393" d="M362 599q11 0 28 19q13 14 30 14q16 0 27.5 -11t11.5 -28q0 -12 -6 -22q-28 -46 -95 -46q-31 0 -69.5 17t-50.5 17q-15 0 -30 -17q-14 -16 -32 -16q-16 0 -27.5 11t-11.5 28q0 12 6 22q28 46 96 46q30 0 68.5 -17t54.5 -17z"/>
<glyph unicode="˝" horiz-adv-x="508" d="M199 514q-21 21 3 45l104 108q13 14 29.5 13t29.5 -16q27 -33 -7 -60l-113 -90q-26 -20 -46 0zM346 514q-21 21 3 45l104 108q13 14 29.5 13t29.5 -16q27 -33 -7 -60l-113 -90q-26 -20 -46 0z"/>
<glyph unicode="Ẁ" horiz-adv-x="838" d="M540 35l-43 410l-187 -410q-19 -43 -63 -43q-19 0 -32.5 11.5t-15.5 28.5l-69 569q-2 18 -2 23q0 23 17 40t40 17t39 -15.5t18 -35.5l46 -409l188 418q19 42 63 42q19 0 33 -11.5t16 -30.5l40 -418l193 427q15 33 52 33q23 0 40 -17t17 -40q0 -13 -7 -27l-272 -565 q-19 -40 -62 -40q-20 0 -33.5 12t-15.5 31zM619 722q-21 -20 -41 0l-92 88q-12 10 -10 28.5t20 33.5q21 15 36.5 14.5t24.5 -13.5l69 -107q15 -24 -7 -44z"/>
<glyph unicode="ẁ" horiz-adv-x="636" d="M386 30l-23 219l-101 -218q-19 -39 -59 -39q-18 0 -30 10t-15 25l-72 357q-3 12 -3 24q0 23 15.5 38.5t38.5 15.5q20 0 35 -13.5t18 -30.5l43 -237l109 242q17 39 56 39q21 0 33.5 -11.5t14.5 -27.5l24 -242l126 252q15 29 48 29q22 0 38 -16t16 -38q0 -15 -8 -29 l-203 -353q-19 -34 -56 -34q-18 0 -30.5 10.5t-14.5 27.5zM481 514q-21 -20 -41 0l-92 88q-12 10 -10 28.5t20 33.5q21 15 36.5 14.5t24.5 -13.5l69 -107q15 -24 -7 -44z"/>
<glyph unicode="Ẃ" horiz-adv-x="838" d="M540 35l-43 410l-187 -410q-19 -43 -63 -43q-19 0 -32.5 11.5t-15.5 28.5l-69 569q-2 18 -2 23q0 23 17 40t40 17t39 -15.5t18 -35.5l46 -409l188 418q19 42 63 42q19 0 33 -11.5t16 -30.5l40 -418l193 427q15 33 52 33q23 0 40 -17t17 -40q0 -13 -7 -27l-272 -565 q-19 -40 -62 -40q-20 0 -33.5 12t-15.5 31zM473 722q-21 21 3 45l102 108q12 14 30 13.5t31 -16.5q29 -35 -6 -62l-114 -88q-26 -20 -46 0z"/>
<glyph unicode="ẃ" horiz-adv-x="636" d="M386 30l-23 219l-101 -218q-19 -39 -59 -39q-18 0 -30 10t-15 25l-72 357q-3 12 -3 24q0 23 15.5 38.5t38.5 15.5q20 0 35 -13.5t18 -30.5l43 -237l109 242q17 39 56 39q21 0 33.5 -11.5t14.5 -27.5l24 -242l126 252q15 29 48 29q22 0 38 -16t16 -38q0 -15 -8 -29 l-203 -353q-19 -34 -56 -34q-18 0 -30.5 10.5t-14.5 27.5zM346 514q-21 21 3 45l102 108q12 14 30 13.5t31 -16.5q29 -35 -6 -62l-114 -88q-26 -20 -46 0z"/>
<glyph unicode="Ẅ" horiz-adv-x="838" d="M540 35l-43 410l-187 -410q-19 -43 -63 -43q-19 0 -32.5 11.5t-15.5 28.5l-69 569q-2 18 -2 23q0 23 17 40t40 17t39 -15.5t18 -35.5l46 -409l188 418q19 42 63 42q19 0 33 -11.5t16 -30.5l40 -418l193 427q15 33 52 33q23 0 40 -17t17 -40q0 -13 -7 -27l-272 -565 q-19 -40 -62 -40q-20 0 -33.5 12t-15.5 31zM459 740q-42 0 -42 40q0 64 60 64q42 0 42 -40q0 -31 -15.5 -47.5t-44.5 -16.5zM640 740q-42 0 -42 40q0 64 60 64q42 0 42 -40q0 -31 -15.5 -47.5t-44.5 -16.5z"/>
<glyph unicode="ẅ" horiz-adv-x="636" d="M386 30l-23 219l-101 -218q-19 -39 -59 -39q-18 0 -30 10t-15 25l-72 357q-3 12 -3 24q0 23 15.5 38.5t38.5 15.5q20 0 35 -13.5t18 -30.5l43 -237l109 242q17 39 56 39q21 0 33.5 -11.5t14.5 -27.5l24 -242l126 252q15 29 48 29q22 0 38 -16t16 -38q0 -15 -8 -29 l-203 -353q-19 -34 -56 -34q-18 0 -30.5 10.5t-14.5 27.5zM321 521q-42 0 -42 40q0 64 60 64q42 0 42 -40q0 -31 -15.5 -47.5t-44.5 -16.5zM502 521q-42 0 -42 40q0 64 60 64q42 0 42 -40q0 -31 -15.5 -47.5t-44.5 -16.5z"/>
<glyph unicode="Ỳ" horiz-adv-x="554" d="M186 681q36 0 50 -29l115 -235l190 240q19 24 47 24q24 0 41 -17t17 -41q0 -21 -15 -39l-242 -277l-45 -257q-5 -25 -23.5 -41.5t-44.5 -16.5t-39.5 17t-8.5 41l45 257l-140 292q-5 10 -5 24q0 24 17 41t41 17zM449 722q-21 -20 -41 0l-92 88q-12 10 -10 28.5t20 33.5 q21 15 36.5 14.5t24.5 -13.5l69 -107q15 -24 -7 -44z"/>
<glyph unicode="ỳ" d="M181 462q22 0 35 -15.5t9 -38.5l-33 -185q-3 -16 -3 -29q0 -61 77 -61q90 0 106 90l32 185q4 22 22.5 38t41.5 16q22 0 35 -15.5t9 -38.5l-73 -420q-16 -95 -83 -142t-174 -47q-62 0 -102.5 27t-40.5 72q0 46 38 77t131 63q-129 18 -129 133q0 22 5 52l33 185 q4 22 22.5 38t41.5 16zM139 -73q0 -43 59 -43q52 0 89 29t49 88l19 92q-18 -28 -56 -52t-72.5 -38t-61 -34t-26.5 -42zM384 514q-21 -20 -41 0l-92 88q-12 10 -10 28.5t20 33.5q21 15 36.5 14.5t24.5 -13.5l69 -107q15 -24 -7 -44z"/>
<glyph unicode=" " horiz-adv-x="15"/>
<glyph unicode="–" horiz-adv-x="569" d="M535 288q0 -21 -16.5 -36.5t-37.5 -15.5h-309q-17 0 -28 11.5t-11 28.5q0 21 17 36.5t38 15.5h309q16 0 27 -11.5t11 -28.5z"/>
<glyph unicode="—" horiz-adv-x="879" d="M845 288q0 -21 -16.5 -36.5t-37.5 -15.5h-619q-17 0 -28 11.5t-11 28.5q0 21 17 36.5t38 15.5h619q16 0 27 -11.5t11 -28.5z"/>
<glyph unicode="‘" horiz-adv-x="201" d="M162 386q-55 0 -55 52q0 72 43.5 133.5t101.5 104.5q7 5 14 5q9 0 15.5 -6.5t6.5 -15.5t-9 -18q-31 -31 -45 -52t-14 -47q0 -15 10 -40t10 -40q0 -36 -20.5 -56t-57.5 -20z"/>
<glyph unicode="’" horiz-adv-x="201" d="M227 681q55 0 55 -52q0 -72 -43.5 -133.5t-101.5 -104.5q-7 -5 -14 -5q-9 0 -15.5 6.5t-6.5 15.5t9 18q31 31 45 52t14 47q0 15 -10 40t-10 40q0 36 20.5 56t57.5 20z"/>
<glyph unicode="‚" horiz-adv-x="219" d="M128 124q55 0 55 -52q0 -72 -43.5 -133.5t-101.5 -104.5q-7 -5 -14 -5q-9 0 -15.5 6.5t-6.5 15.5t9 18q31 31 45 52t14 47q0 15 -10 40t-10 40q0 36 20.5 56t57.5 20z"/>
<glyph unicode="“" horiz-adv-x="364" d="M162 386q-55 0 -55 52q0 72 43.5 133.5t101.5 104.5q7 5 14 5q9 0 15.5 -6.5t6.5 -15.5t-9 -18q-31 -31 -45 -52t-14 -47q0 -15 10 -40t10 -40q0 -36 -20.5 -56t-57.5 -20zM325 386q-55 0 -55 52q0 72 43.5 133.5t101.5 104.5q7 5 14 5q9 0 15.5 -6.5t6.5 -15.5t-9 -18 q-31 -31 -45 -52t-14 -47q0 -15 10 -40t10 -40q0 -36 -20.5 -56t-57.5 -20z"/>
<glyph unicode="”" horiz-adv-x="364" d="M390 681q55 0 55 -52q0 -72 -43.5 -133.5t-101.5 -104.5q-7 -5 -14 -5q-9 0 -15.5 6.5t-6.5 15.5t9 18q31 31 45 52t14 47q0 15 -10 40t-10 40q0 36 20.5 56t57.5 20zM227 681q55 0 55 -52q0 -72 -43.5 -133.5t-101.5 -104.5q-7 -5 -14 -5q-9 0 -15.5 6.5t-6.5 15.5t9 18 q31 31 45 52t14 47q0 15 -10 40t-10 40q0 36 20.5 56t57.5 20z"/>
<glyph unicode="„" horiz-adv-x="382" d="M291 124q55 0 55 -52q0 -72 -43.5 -133.5t-101.5 -104.5q-7 -5 -14 -5q-9 0 -15.5 6.5t-6.5 15.5t9 18q31 31 45 52t14 47q0 15 -10 40t-10 40q0 36 20.5 56t57.5 20zM128 124q55 0 55 -52q0 -72 -43.5 -133.5t-101.5 -104.5q-7 -5 -14 -5q-9 0 -15.5 6.5t-6.5 15.5t9 18 q31 31 45 52t14 47q0 15 -10 40t-10 40q0 36 20.5 56t57.5 20z"/>
<glyph unicode="†" horiz-adv-x="455" d="M201 -150q-39 0 -33 38l89 537h-84q-35 0 -35 36q0 25 13 40t38 15h83l24 151q6 45 57 45q49 0 41 -45l-28 -151h81q35 0 35 -35q0 -25 -13 -40.5t-38 -15.5h-82l-103 -537q-8 -38 -45 -38z"/>
<glyph unicode="‡" horiz-adv-x="455" d="M349 425l-35 -169l-25 -169h82q35 0 35 -36q0 -25 -13 -40t-38 -15h-82l-25 -151q-8 -45 -56 -45q-49 0 -41 45l29 151h-83q-35 0 -35 35q0 25 13.5 40.5t37.5 15.5h84l36 169l24 169h-84q-35 0 -35 36q0 25 13 40t38 15h83l24 151q6 45 56 45q49 0 41 -45l-28 -151h82 q35 0 35 -35q0 -25 -13.5 -40.5t-37.5 -15.5h-82z"/>
<glyph unicode="•" horiz-adv-x="418" d="M262 149q-130 0 -130 130q0 136 130 136t130 -136q0 -130 -130 -130z"/>
<glyph unicode="‰" horiz-adv-x="1120" d="M267 445q43 0 62 30t19 69q0 59 -53 59q-79 0 -79 -100q0 -58 51 -58zM310 687q65 0 97.5 -34.5t32.5 -91.5q0 -83 -46 -141.5t-142 -58.5q-64 0 -96 34.5t-32 91.5q0 84 45 142t141 58zM649 681q19 0 33 -13.5t14 -33.5q0 -14 -9 -28l-420 -593q-15 -21 -39 -21 q-20 0 -33.5 14t-13.5 33q0 16 9 28l420 594q15 20 39 20zM586 71q43 0 62 30t19 69q0 59 -53 59q-79 0 -79 -100q0 -58 51 -58zM629 313q65 0 97.5 -34.5t32.5 -91.5q0 -83 -46 -141.5t-142 -58.5q-64 0 -96 34.5t-32 91.5q0 84 45 142t141 58zM942 71q43 0 62 30t19 69 q0 59 -53 59q-79 0 -79 -100q0 -58 51 -58zM985 313q65 0 97.5 -34.5t32.5 -91.5q0 -83 -46 -141.5t-142 -58.5q-64 0 -96 34.5t-32 91.5q0 84 45 142t141 58z"/>
<glyph unicode="‹" horiz-adv-x="326" d="M81 207q0 16 16 32l186 181q11 11 28 11t28 -11.5t11 -27.5q0 -18 -15 -31l-169 -153l114 -155q6 -9 6 -21q0 -16 -11 -27.5t-28 -11.5q-21 0 -33 18l-124 172q-9 13 -9 24z"/>
<glyph unicode="›" horiz-adv-x="326" d="M318 217q0 -16 -16 -32l-186 -181q-11 -11 -28 -11q-16 0 -27.5 11.5t-11.5 27.5q0 18 15 31l169 153l-114 155q-6 9 -6 21q0 16 11.5 27.5t27.5 11.5q21 0 33 -18l124 -172q9 -14 9 -24z"/>
<glyph unicode="⁄" horiz-adv-x="325" d="M14 56l341 601q14 24 38 24q17 0 29.5 -12.5t12.5 -29.5q0 -11 -7 -23l-340 -600q-13 -24 -38 -24q-17 0 -29.5 12.5t-12.5 29.5q0 12 6 22z"/>
<glyph unicode="⁰" horiz-adv-x="299" d="M229 441q40 0 57 37.5t17 90.5t-43 53q-40 0 -57 -37.5t-17 -90.5t43 -53zM219 376q-109 0 -109 106q0 88 39 146.5t121 58.5q109 0 109 -106q0 -88 -39 -146.5t-121 -58.5z"/>
<glyph unicode="⁴" horiz-adv-x="280" d="M340 690l-25 -144h15q12 0 19.5 -8t7.5 -19q0 -15 -11.5 -26t-26.5 -11h-15l-4 -23q-3 -16 -15 -26.5t-29 -10.5q-15 0 -24 11t-6 26l4 23h-99q-12 0 -20 8.5t-8 19.5q0 13 11 25l160 175q17 17 35 17q15 0 24.5 -11t6.5 -26zM195 546h46l12 67z"/>
<glyph unicode="⁵" horiz-adv-x="272" d="M259 628q39 0 67 -20t28 -64q0 -58 -37 -92t-98 -34q-68 0 -97 53q-5 10 -5 16q0 13 9 22t22 9t26 -13q22 -22 52 -22q55 0 55 51q0 35 -40 35q-22 0 -44.5 -7.5t-28.5 -7.5q-12 0 -19 7.5t-7 18.5q0 8 5 21l31 93q9 28 39 28h123q13 0 21 -8t8 -20q0 -16 -11.5 -25.5 t-28.5 -9.5h-103l-13 -39q19 8 46 8z"/>
<glyph unicode="⁶" horiz-adv-x="285" d="M266 623q41 0 65 -22.5t24 -60.5q0 -55 -38.5 -88t-96.5 -33q-101 0 -101 107q0 92 44.5 148t114.5 56q48 0 74 -23q12 -11 12 -25t-9 -23t-23 -9q-9 0 -20 6q-20 11 -43 11q-24 0 -42 -17t-24 -50q23 23 63 23zM225 482q54 0 54 49q0 34 -37 34q-15 0 -30.5 -9 t-21.5 -19q-2 -8 -2 -17q0 -38 37 -38z"/>
<glyph unicode="⁷" horiz-adv-x="262" d="M137 451q4 40 25.5 71.5t44.5 48.5t44.5 40t25.5 47h-108q-12 0 -19.5 8t-7.5 19q0 15 11.5 26t26.5 11h154q12 0 20 -8t7 -19q-5 -40 -20.5 -68.5t-35 -45.5t-39 -32.5t-35.5 -38.5t-22 -54q-3 -15 -15 -25.5t-27 -10.5q-14 0 -22.5 9t-7.5 22z"/>
<glyph unicode="⁸" horiz-adv-x="276" d="M212 419q-49 0 -76.5 20.5t-27.5 58.5q0 62 64 89q-30 15 -30 49q0 44 36.5 69t88.5 25q42 0 68.5 -18.5t26.5 -53.5q0 -50 -50 -71q37 -19 37 -60q0 -50 -37.5 -79t-99.5 -29zM256 671q-41 0 -41 -35q0 -22 31 -22q42 0 42 33q0 24 -32 24zM236 553q-51 0 -51 -41 q0 -28 38 -28q51 0 51 40q0 29 -38 29z"/>
<glyph unicode="⁹" horiz-adv-x="285" d="M221 526q-41 0 -65 22.5t-24 60.5q0 55 38.5 88t96.5 33q101 0 101 -107q0 -92 -44.5 -148t-114.5 -56q-48 0 -74 23q-12 11 -12 25q0 13 9.5 22.5t22.5 9.5q9 0 20 -6q20 -11 43 -11q24 0 42 17t24 50q-23 -23 -63 -23zM262 667q-54 0 -54 -49q0 -34 37 -34q15 0 30.5 9 t21.5 19q2 8 2 17q0 38 -37 38z"/>
<glyph unicode="₀" horiz-adv-x="299" d="M147 -23q40 0 57 37.5t17 90.5t-43 53q-40 0 -57 -37.5t-17 -90.5t43 -53zM137 -88q-109 0 -109 106q0 88 39 146.5t121 58.5q109 0 109 -106q0 -88 -39 -146.5t-121 -58.5z"/>
<glyph unicode="₁" horiz-adv-x="228" d="M136 -52q-15 0 -24.5 11t-6.5 26l30 169l-36 -20q-8 -4 -15 -4q-14 0 -24 10t-10 24q0 20 20 31l98 52q12 6 20 6q16 0 25 -11t7 -26l-41 -231q-2 -15 -15 -26t-28 -11z"/>
<glyph unicode="₂" horiz-adv-x="289" d="M80 216q40 38 105 38q48 0 75 -22.5t27 -58.5q0 -38 -27 -65t-60 -39t-61.5 -26.5t-31.5 -29.5h125q12 0 19.5 -8t7.5 -19q0 -15 -12 -26t-27 -11h-167q-13 0 -22 9t-8 22q4 38 24.5 65t47.5 40.5t54 24.5t45 23.5t18 29.5q0 26 -38 26q-22 0 -58 -28q-9 -7 -20 -7 q-13 0 -22.5 9.5t-9.5 22.5q0 15 16 30z"/>
<glyph unicode="₃" horiz-adv-x="276" d="M198 139q63 -7 63 -79q0 -51 -35.5 -84t-102.5 -33q-65 0 -98 51q-5 9 -5 18q0 13 8.5 22t21.5 9q16 0 25 -11q23 -26 59 -26q27 0 40.5 13.5t13.5 33.5q0 31 -32 31h-26q-10 0 -17 7t-7 18q0 14 17 30l51 45h-80q-12 0 -19.5 8t-7.5 19q0 15 11.5 26t26.5 11h141 q12 0 19.5 -8t7.5 -19q0 -17 -15 -29z"/>
<glyph unicode="₄" horiz-adv-x="280" d="M257 216l-25 -144h15q12 0 19.5 -8t7.5 -19q0 -15 -11.5 -26t-26.5 -11h-15l-4 -23q-3 -16 -15 -26.5t-29 -10.5q-15 0 -24 11t-6 26l4 23h-99q-12 0 -20 8.5t-8 19.5q0 13 11 25l160 175q17 17 35 17q15 0 24.5 -11t6.5 -26zM112 72h46l12 67z"/>
<glyph unicode="₅" horiz-adv-x="272" d="M175 152q39 0 67 -20t28 -64q0 -58 -37 -92t-98 -34q-68 0 -97 53q-5 10 -5 16q0 13 9 22t22 9t26 -13q22 -22 52 -22q55 0 55 51q0 35 -40 35q-22 0 -44.5 -7.5t-28.5 -7.5q-12 0 -19 7.5t-7 18.5q0 8 5 21l31 93q9 28 39 28h123q13 0 21 -8t8 -20q0 -16 -11.5 -25.5 t-28.5 -9.5h-103l-13 -39q19 8 46 8z"/>
<glyph unicode="₆" horiz-adv-x="285" d="M182 147q41 0 65 -22.5t24 -60.5q0 -55 -38.5 -88t-96.5 -33q-101 0 -101 107q0 92 44.5 148t114.5 56q48 0 74 -23q12 -11 12 -25t-9 -23t-23 -9q-9 0 -20 6q-20 11 -43 11q-24 0 -42 -17t-24 -50q23 23 63 23zM141 6q54 0 54 49q0 34 -37 34q-15 0 -30.5 -9t-21.5 -19 q-2 -8 -2 -17q0 -38 37 -38z"/>
<glyph unicode="₇" horiz-adv-x="262" d="M53 -23q4 40 25.5 71.5t44.5 48.5t44.5 40t25.5 47h-108q-12 0 -19.5 8t-7.5 19q0 15 11.5 26t26.5 11h154q12 0 20 -8t7 -19q-5 -40 -20.5 -68.5t-35 -45.5t-39 -32.5t-35.5 -38.5t-22 -54q-3 -15 -15 -25.5t-27 -10.5q-14 0 -22.5 9t-7.5 22z"/>
<glyph unicode="₈" horiz-adv-x="276" d="M128 -57q-49 0 -76.5 20.5t-27.5 58.5q0 62 64 89q-30 15 -30 49q0 44 36 69t89 25q42 0 68.5 -18.5t26.5 -53.5q0 -50 -50 -71q37 -19 37 -60q0 -50 -37.5 -79t-99.5 -29zM172 195q-41 0 -41 -35q0 -22 31 -22q42 0 42 33q0 24 -32 24zM152 77q-51 0 -51 -41 q0 -28 38 -28q51 0 51 40q0 29 -38 29z"/>
<glyph unicode="₉" horiz-adv-x="285" d="M137 50q-41 0 -65 22.5t-24 60.5q0 55 38.5 88t96.5 33q101 0 101 -107q0 -92 -44.5 -148t-114.5 -56q-48 0 -74 23q-12 11 -12 25q0 13 9.5 22.5t22.5 9.5q9 0 20 -6q20 -11 43 -11q24 0 42 17t24 50q-23 -23 -63 -23zM178 191q-54 0 -54 -49q0 -34 37 -34q15 0 30.5 9 t21.5 19q2 8 2 17q0 38 -37 38z"/>
<glyph unicode="€" horiz-adv-x="640" d="M350 353h-137q0 -2 -6 -44h135q16 0 26 -10.5t10 -26.5q0 -20 -15.5 -34.5t-35.5 -14.5h-121q15 -132 157 -132q92 0 166 65q26 22 46 22q22 0 38 -15.5t16 -35.5q0 -23 -16 -41q-44 -47 -115.5 -73.5t-152.5 -26.5q-116 0 -185 61.5t-76 175.5h-17q-16 0 -26 10.5 t-10 26.5q0 20 15.5 34.5t35.5 14.5h5q0 14 6 44h-5q-16 0 -26 10.5t-10 26.5q0 20 15.5 34.5t35.5 14.5h10q40 118 131.5 183t223.5 65q85 0 141 -32.5t81 -82.5q6 -14 6 -25q0 -23 -16 -38.5t-38 -15.5q-28 0 -42 20q-51 70 -150 70q-153 0 -213 -144h128q16 0 26 -10.5 t10 -26.5q0 -20 -15.5 -34.5t-35.5 -14.5z"/>
<glyph unicode="№" horiz-adv-x="1112" d="M738 681q24 0 38 -17t10 -41l-101 -573q-5 -25 -22 -41.5t-43 -16.5q-31 0 -48 25l-299 458l-75 -425q-4 -24 -24.5 -41t-44.5 -17t-38 17t-9 41l101 573q5 25 23.5 41.5t44.5 16.5t41 -22l303 -461l75 425q5 24 24.5 41t43.5 17zM969 347q40 0 58 33.5t18 77.5 q0 53 -47 53q-40 0 -58 -33.5t-18 -77.5q0 -53 47 -53zM921 77q-53 0 -53 45q0 34 18.5 55t56.5 21q52 0 52 -46q0 -33 -18.5 -54t-55.5 -21zM953 257q-65 0 -99.5 32t-34.5 94q0 91 49.5 154.5t145.5 63.5q65 0 99.5 -32t34.5 -94q0 -91 -49.5 -154.5t-145.5 -63.5z"/>
<glyph unicode="™" horiz-adv-x="419" d="M155 652h123q19 0 19 -19q0 -8 -5.5 -13.5t-13.5 -5.5h-40v-126q0 -8 -6.5 -14.5t-14.5 -6.5q-9 0 -15 6.5t-6 14.5v126h-41q-8 0 -13.5 5.5t-5.5 13.5q0 19 19 19zM406 505q-10 0 -16 10l-28 52v-80q0 -8 -6 -14t-14 -6t-14 6t-6 14v148q0 8 6 14t14 6q11 0 18 -11 l46 -82l46 82q7 11 18 11q8 0 14 -6t6 -14v-148q0 -8 -6 -14t-14 -6t-14 6t-6 14v80l-28 -52q-6 -10 -16 -10z"/>
<glyph unicode="−" horiz-adv-x="454" d="M493 224q0 -21 -16.5 -36.5t-37.5 -15.5h-362q-17 0 -28 11.5t-11 28.5q0 21 17 36.5t38 15.5h362q16 0 27 -11.5t11 -28.5z"/>
<glyph unicode="√" horiz-adv-x="560" d="M631 640l-354 -775q-17 -36 -52 -36t-44 33l-98 347q-2 6 -2 15q0 21 14.5 35.5t35.5 14.5q17 0 30.5 -10t17.5 -25l64 -234l297 677q13 30 46 30q21 0 35.5 -14.5t14.5 -35.5q0 -12 -5 -22z"/>
<glyph unicode="≠" horiz-adv-x="454" d="M97 53l27 32h-63q-17 0 -28 11.5t-11 28.5q0 21 17 36.5t38 15.5h126l70 81h-182q-16 0 -27 11.5t-11 28.5q0 21 16.5 36.5t37.5 15.5h246l48 56q7 9 17 9q8 0 14 -6t6 -14q0 -7 -4 -12l-29 -33h64q17 0 28 -11.5t11 -28.5q0 -21 -17 -36.5t-38 -15.5h-127l-70 -81h183 q16 0 27 -11.5t11 -28.5q0 -21 -16.5 -36.5t-37.5 -15.5h-246l-47 -55q-7 -9 -17 -9q-8 0 -14 6t-6 14q0 7 4 12z"/>
<glyph unicode="≤" horiz-adv-x="363" d="M372 52q0 -21 -16.5 -36.5t-38.5 -15.5h-271q-16 0 -27.5 11.5t-11.5 28.5q0 21 16.5 36.5t38.5 15.5h271q17 0 28 -11.5t11 -28.5zM54 301q0 31 35 48l285 141q14 6 23 6q19 0 32.5 -13.5t13.5 -32.5q0 -30 -29 -43l-223 -99l177 -101q25 -13 25 -41q0 -19 -13.5 -32.5 t-32.5 -13.5q-11 0 -23 6l-249 140q-21 11 -21 35z"/>
<glyph unicode="≥" horiz-adv-x="363" d="M418 315q0 -31 -35 -48l-285 -141q-14 -6 -23 -6q-19 0 -32.5 13.5t-13.5 32.5q0 30 29 43l223 99l-177 101q-25 13 -25 41q0 19 13.5 32.5t32.5 13.5q11 0 23 -6l249 -140q21 -11 21 -35zM372 52q0 -21 -16.5 -36.5t-38.5 -15.5h-271q-16 0 -27.5 11.5t-11.5 28.5 q0 21 16.5 36.5t38.5 15.5h271q17 0 28 -11.5t11 -28.5z"/>
<glyph unicode="◼" horiz-adv-x="460" d="M0 460h460v-460h-460v460z"/>
<glyph unicode="" horiz-adv-x="146" d="M71 -39q44 0 44 -41q0 -54 -35 -107t-79 -83q-8 -5 -14 -5q-7 0 -12.5 5.5t-5.5 12.5q0 8 8 15q47 41 47 78q0 13 -8 33t-8 32q0 28 16.5 44t46.5 16z"/>
<glyph unicode="ﬆ" horiz-adv-x="721" d="M277 374q-66 0 -66 -42q0 -20 22 -35t53 -26t62 -25t53 -39.5t22 -60.5q0 -74 -54.5 -115.5t-155.5 -41.5q-58 0 -102.5 24t-62.5 53q-7 11 -7 24q0 20 14.5 34t33.5 14q17 0 33 -13q45 -40 108 -40q37 0 59.5 12.5t22.5 32.5q0 23 -33.5 40t-73 29t-73 43t-33.5 77 q0 74 53 111.5t135 37.5q58 0 103 -24q-41 48 -41 106q0 59 50.5 98t123.5 39q87 0 131.5 -35.5t44.5 -100.5q0 -17 -4 -41l-10 -56h46q16 0 26.5 -11t10.5 -27q0 -21 -16 -36.5t-37 -15.5h-45l-42 -233q-2 -10 -2 -17q0 -13 10 -20.5t23 -7.5q17 0 28 -11.5t11 -28.5 q0 -23 -16.5 -38.5t-46.5 -15.5q-57 0 -86.5 29t-29.5 79q0 13 3 28l42 236h-23q-16 0 -27 11t-11 27q0 21 16.5 36.5t37.5 15.5h22l10 55q2 12 2 22q0 66 -84 66q-43 0 -68.5 -24.5t-25.5 -65.5q0 -47 30 -106q7 -14 7 -25q0 -20 -14 -34t-34 -14q-16 0 -34 14 q-38 32 -91 32z"/>
<glyph horiz-adv-x="615" d="M322 86q49 0 86.5 25.5t59 63t35 88.5t18 95t4.5 88q0 73 -27.5 107t-86.5 34q-49 0 -86.5 -25.5t-59 -63t-35 -88.5t-18 -95t-4.5 -88q0 -73 27.5 -107t86.5 -34zM425 687q216 0 216 -222q0 -53 -7 -105.5t-22 -107.5t-41 -102t-61.5 -84t-87.5 -58.5t-114 -21.5 q-216 0 -216 222q0 53 7 105.5t22 107.5t41 102t61.5 84t87.5 58.5t114 21.5z"/>
<glyph horiz-adv-x="615" d="M364 521l-116 -70q-16 -10 -31 -10q-23 0 -39 16.5t-16 38.5q0 33 30 49l219 124q21 12 37 12q23 0 37 -17t10 -40l-101 -575q-5 -24 -24 -40.5t-43 -16.5t-37.5 16.5t-9.5 40.5z"/>
<glyph horiz-adv-x="615" d="M193 568q73 119 235 119q95 0 147 -46t52 -125q0 -58 -30.5 -111t-76 -89t-99.5 -69.5t-100 -56.5t-78 -46.5t-34 -41.5h307q19 0 31 -12.5t12 -31.5q0 -23 -18.5 -40.5t-42.5 -17.5h-382q-19 0 -32.5 13t-10.5 31q8 55 44.5 102.5t84.5 78.5t103 64t100.5 60.5t75.5 66 t30 82.5q0 38 -26.5 63.5t-74.5 25.5q-75 0 -130 -79q-17 -24 -44 -24q-22 0 -37.5 15.5t-15.5 37.5q0 16 10 31z"/>
<glyph horiz-adv-x="615" d="M455 571h-201q-19 0 -31 12.5t-12 31.5q0 23 18 40.5t43 17.5h320q19 0 31 -12.5t12 -31.5q0 -23 -20 -41l-175 -165q79 -9 114.5 -56t35.5 -117q0 -125 -72.5 -194t-216.5 -69q-73 0 -128 34.5t-81 84.5q-5 10 -5 22q0 22 15.5 37.5t37.5 15.5q27 0 46 -26 q50 -68 133 -68q77 0 116 38.5t39 105.5q0 92 -101 92h-62q-20 0 -32.5 12.5t-12.5 31.5q0 24 20 43z"/>
<glyph horiz-adv-x="615" d="M518 246h35q19 0 31 -12.5t12 -31.5q0 -23 -18.5 -40.5t-42.5 -17.5h-35l-17 -95q-4 -24 -22.5 -40.5t-44.5 -16.5q-25 0 -38 16.5t-9 40.5l17 95h-254q-19 0 -31 12.5t-12 31.5q0 18 14 35l382 431q22 26 52 26q23 0 37 -17t10 -40zM246 246h158l40 230z"/>
<glyph horiz-adv-x="615" d="M390 463q99 0 155 -47.5t56 -142.5q0 -141 -79.5 -214t-216.5 -73q-86 0 -142 42.5t-77 99.5q-3 9 -3 19q0 22 15.5 37.5t37.5 15.5q34 0 48 -30q21 -44 53.5 -64t85.5 -20q71 0 116.5 43.5t45.5 123.5q0 54 -30.5 82t-82.5 28q-44 0 -73.5 -9t-60.5 -31q-28 -20 -52 -20 q-19 0 -32 13t-13 33q0 10 6 24l95 259q15 41 58 41h300q19 0 30.5 -12.5t11.5 -31.5q0 -23 -18.5 -40.5t-41.5 -17.5h-261l-49 -131q50 23 118 23z"/>
<glyph horiz-adv-x="615" d="M401 448q97 0 150 -48t53 -138q0 -129 -80.5 -202.5t-210.5 -73.5q-105 0 -158.5 60.5t-53.5 168.5q0 133 34.5 237t111 169.5t187.5 65.5q63 0 108.5 -18.5t65.5 -44.5q11 -15 11 -32q0 -22 -15 -37t-37 -15q-17 0 -32 11q-52 36 -109 36q-74 0 -126.5 -56.5 t-64.5 -142.5q69 60 166 60zM323 87q73 0 119 41.5t46 114.5q0 51 -31 77.5t-81 26.5q-96 0 -158 -84q-5 -32 -5 -54q0 -59 28 -90.5t82 -31.5z"/>
<glyph horiz-adv-x="615" d="M162 38q6 72 43.5 144t88.5 128t102 104t89 89.5t43 67.5h-303q-19 0 -31 12.5t-12 31.5q0 24 17.5 41t43.5 17h366q19 0 30.5 -12.5t11.5 -31.5q0 -50 -24.5 -98.5t-62 -86t-83.5 -83t-87 -88t-74.5 -102.5t-44.5 -125q-4 -23 -23 -38.5t-42 -15.5q-21 0 -35 13t-13 33z "/>
<glyph horiz-adv-x="615" d="M311 -14q-107 0 -166 46t-59 132q0 70 37.5 124t109.5 80q-26 16 -43 45.5t-17 66.5q0 94 66 150.5t183 56.5q93 0 145 -39.5t52 -112.5q0 -59 -31 -102t-77 -65q87 -46 87 -139q0 -112 -74.5 -177.5t-212.5 -65.5zM411 587q-58 0 -91.5 -26t-33.5 -74q0 -72 94 -72 q57 0 91 26t34 75q0 71 -94 71zM363 315q-74 0 -117.5 -35t-43.5 -98q0 -46 32 -70.5t88 -24.5q72 0 116.5 35t44.5 99q0 44 -31.5 69t-88.5 25z"/>
<glyph horiz-adv-x="615" d="M332 225q-97 0 -150 48t-53 138q0 129 80.5 202.5t210.5 73.5q105 0 158.5 -60.5t53.5 -168.5q0 -133 -34.5 -237t-111 -169.5t-187.5 -65.5q-63 0 -108.5 18.5t-65.5 44.5q-11 15 -11 32q0 22 15 37t37 15q17 0 32 -11q52 -36 109 -36q74 0 126.5 56.5t64.5 142.5 q-69 -60 -166 -60zM410 586q-73 0 -119 -41.5t-46 -114.5q0 -51 31 -77.5t81 -26.5q96 0 158 84q5 32 5 54q0 59 -28 90.5t-82 31.5z"/>
<glyph horiz-adv-x="732" d="M682 687q51 0 86 -33t35 -83q0 -59 -43.5 -92t-110.5 -33q-37 0 -68 6q-21 -32 -56 -47q59 0 98 -31.5t39 -83.5q0 -44 -21 -71.5t-52 -36.5t-68 -15.5t-68 -10.5t-52 -20.5t-21 -45.5q0 -21 13.5 -33.5t35.5 -12.5q18 0 28 10.5t12 22.5t12 22.5t28 10.5q44 0 44 -45 q0 -21 -11.5 -36t-30.5 -22.5t-38 -11t-39 -3.5q-64 0 -114.5 30t-79.5 76.5t-44 97t-15 97.5q0 79 43 137t123 58q64 0 104 -44q-54 -35 -85 -64t-51 -73.5t-20 -102.5q0 -27 2 -40q2 -16 12 -16q9 0 9 17q0 5 -0.5 18.5t-0.5 20.5q0 70 35 117.5t103 89.5q46 28 67 55 q-59 15 -152 81q-12 9 -41 34.5t-52 39.5t-44 14q-18 0 -29 -11.5t-11 -29.5t11.5 -28.5t28.5 -10.5q13 0 33 20q8 6 17 6q11 0 18.5 -7.5t7.5 -18.5q0 -22 -26.5 -37t-53.5 -15q-38 0 -65 27t-27 64q0 38 27 65.5t65 27.5q54 0 122 -58q41 58 113 58q58 0 100 -42t42 -100 q0 -22 -7 -43q22 -4 50 -4q39 0 68.5 17.5t29.5 55.5q0 26 -18.5 45t-46.5 19q-12 0 -24.5 -6t-19.5 -6q-11 0 -18.5 7.5t-7.5 18.5q0 14 11 22q21 16 59 16zM544 510q6 16 6 35q0 34 -23.5 62t-62.5 28q-48 0 -71 -42q72 -57 151 -83z"/>
<glyph horiz-adv-x="608" d="M317 81q94 0 141.5 73.5t47.5 172.5q0 64 -31.5 97.5t-90.5 33.5q-94 0 -141.5 -73.5t-47.5 -172.5q0 -64 31.5 -97.5t90.5 -33.5zM301 -13q-102 0 -159 57.5t-57 157.5q0 66 20 127t57.5 111.5t99 81t138.5 30.5q102 0 159 -57.5t57 -157.5q0 -66 -20 -127t-57.5 -111.5 t-99 -81t-138.5 -30.5z"/>
<glyph horiz-adv-x="378" d="M261 399l-74 -43q-13 -9 -30 -9q-20 0 -34.5 14.5t-14.5 34.5q0 28 27 44l170 95q20 11 37 11q22 0 34.5 -15.5t8.5 -36.5l-79 -448q-4 -23 -22 -38.5t-41 -15.5q-22 0 -35.5 15.5t-9.5 38.5z"/>
<glyph horiz-adv-x="527" d="M137 445q66 107 218 107q88 0 137 -40.5t49 -102.5q0 -48 -26.5 -88t-66.5 -64.5t-88 -46.5t-90 -38t-73 -36t-37 -42h290q19 0 30 -11t11 -29q0 -23 -18.5 -38.5t-43.5 -15.5h-342q-19 0 -31.5 12.5t-12.5 30.5q0 55 29 98t72 67t94 47.5t94 40.5t72 43.5t29 58.5 q0 27 -24.5 43.5t-69.5 16.5q-66 0 -125 -70q-18 -22 -40 -22q-20 0 -34 14t-14 34q0 14 11 31z"/>
<glyph horiz-adv-x="553" d="M398 436h-201q-19 0 -31 12.5t-12 31.5q0 23 18 40.5t43 17.5h320q19 0 31 -12.5t12 -31.5q0 -23 -20 -41l-175 -165q79 -9 114.5 -56t35.5 -117q0 -125 -72.5 -194t-216.5 -69q-73 0 -128 34.5t-81 84.5q-5 10 -5 22q0 22 15.5 37.5t37.5 15.5q27 0 46 -26 q50 -68 133 -68q77 0 116 38.5t39 105.5q0 92 -101 92h-62q-20 0 -32.5 12.5t-12.5 31.5q0 24 20 43z"/>
<glyph horiz-adv-x="553" d="M470 112h35q19 0 31 -12.5t12 -31.5q0 -23 -18.5 -40.5t-42.5 -17.5h-35l-17 -95q-4 -24 -22.5 -40.5t-44.5 -16.5q-25 0 -38 16.5t-9 40.5l17 95h-254q-19 0 -31 12.5t-12 31.5q0 18 14 35l382 431q22 26 52 26q23 0 37 -17t10 -40zM198 112h158l40 230z"/>
<glyph horiz-adv-x="579" d="M336 328q99 0 155 -47.5t56 -142.5q0 -141 -79.5 -214t-216.5 -73q-86 0 -142 42.5t-77 99.5q-3 9 -3 19q0 22 15.5 37.5t37.5 15.5q34 0 48 -30q21 -44 53.5 -64t85.5 -20q71 0 116.5 43.5t45.5 123.5q0 54 -30.5 82t-82.5 28q-44 0 -73.5 -9t-60.5 -31q-28 -20 -52 -20 q-19 0 -32 13t-13 33q0 10 6 24l95 259q15 41 58 41h300q19 0 30.5 -12.5t11.5 -31.5q0 -23 -18.5 -40.5t-41.5 -17.5h-261l-49 -131q50 23 118 23z"/>
<glyph horiz-adv-x="588" d="M387 446q97 0 150 -48t53 -138q0 -129 -80.5 -201.5t-210.5 -72.5q-105 0 -158.5 60.5t-53.5 168.5q0 133 34.5 235.5t111 166.5t187.5 64q63 0 108.5 -18.5t65.5 -44.5q11 -15 11 -32q0 -22 -15 -37t-37 -15q-17 0 -32 11q-52 36 -109 36q-74 0 -126.5 -54t-64.5 -140 q68 59 166 59zM309 87q73 0 119 40.5t46 113.5q0 51 -31 77.5t-81 26.5q-97 0 -158 -83q-5 -32 -5 -53q0 -59 28 -90.5t82 -31.5z"/>
<glyph horiz-adv-x="502" d="M83 -97q6 72 43.5 144t88.5 128t102 104t89 89.5t43 67.5h-303q-19 0 -31 12.5t-12 31.5q0 24 17.5 41t43.5 17h366q19 0 30.5 -12.5t11.5 -31.5q0 -50 -24.5 -98.5t-62 -86t-83.5 -83t-87 -88t-74.5 -102.5t-44.5 -125q-4 -23 -23 -38.5t-42 -15.5q-21 0 -35 13t-13 33z "/>
<glyph horiz-adv-x="571" d="M291 -14q-107 0 -166 45.5t-59 131.5q0 70 37.5 123t110.5 79q-61 37 -61 110q0 94 65.5 149.5t183.5 55.5q93 0 145 -38.5t52 -111.5q0 -59 -31.5 -101t-77.5 -64q88 -46 88 -137q0 -112 -74.5 -177t-212.5 -65zM391 580q-59 0 -92 -25.5t-33 -72.5q0 -70 94 -70 q58 0 91.5 25.5t33.5 73.5q0 69 -94 69zM343 312q-75 0 -118 -34t-43 -97q0 -46 32 -70t88 -24q72 0 116.5 34.5t44.5 98.5q0 44 -31.5 68t-88.5 24z"/>
<glyph horiz-adv-x="588" d="M296 92q-97 0 -150 48t-53 138q0 129 80.5 201.5t210.5 72.5q105 0 158.5 -60.5t53.5 -168.5q0 -133 -34.5 -235.5t-111 -166.5t-187.5 -64q-63 0 -108.5 18.5t-65.5 44.5q-11 15 -11 32q0 22 15 37t37 15q17 0 32 -11q52 -36 109 -36q74 0 126.5 54t64.5 140 q-68 -59 -166 -59zM374 451q-73 0 -119 -40.5t-46 -113.5q0 -51 31 -77.5t81 -26.5q97 0 158 83q5 32 5 53q0 59 -28 90.5t-82 31.5z"/>
<glyph horiz-adv-x="378" d="M394 338q0 -21 -16.5 -36.5t-37.5 -15.5h-200q-17 0 -28 11.5t-11 28.5q0 21 17 36.5t38 15.5h200q16 0 27 -11.5t11 -28.5z"/>
<glyph horiz-adv-x="315" d="M99 337q34 204 87 299.5t157 137.5q13 5 22 5q20 0 34.5 -14.5t14.5 -34.5q0 -33 -32 -46q-76 -32 -111 -112t-62 -235q-26 -150 -26 -205q0 -57 13.5 -91.5t50.5 -52.5q28 -12 28 -44q0 -20 -14.5 -34.5t-34.5 -14.5q-10 0 -22 5q-127 57 -127 229q0 78 22 208z"/>
<glyph horiz-adv-x="315" d="M334 337q-34 -204 -87 -299.5t-157 -137.5q-12 -5 -22 -5q-20 0 -34.5 14.5t-14.5 34.5q0 33 32 46q76 32 111 112t62 235q26 150 26 205q0 57 -13.5 91.5t-50.5 52.5q-28 12 -28 44q0 20 14.5 34.5t34.5 14.5q10 0 22 -5q127 -57 127 -229q0 -78 -22 -208z"/>
<glyph horiz-adv-x="283" d="M246 -51q0 -22 -17 -38t-39 -16h-94q-24 0 -37 14.5t-9 37.5l138 780q4 23 21 37.5t43 14.5h94q17 0 28 -11.5t11 -28.5q0 -22 -17 -38t-39 -16h-41l-122 -696h41q17 0 28 -11.5t11 -28.5z"/>
<glyph horiz-adv-x="283" d="M16 -65q0 22 17 38t39 16h41l123 696h-41q-17 0 -28.5 11.5t-11.5 28.5q0 23 17 38.5t39 15.5h94q24 0 37 -15t9 -37l-137 -780q-4 -22 -22.5 -37t-42.5 -15h-94q-17 0 -28 11.5t-11 28.5z"/>
<glyph horiz-adv-x="358" d="M89 331q0 19 15 33.5t35 14.5q34 0 52 12.5t24 49.5q6 31 8.5 96.5t10.5 105.5q12 59 57 97.5t123 38.5q18 0 29.5 -12t11.5 -30q0 -22 -17.5 -39t-40.5 -17q-47 0 -55 -47q-6 -31 -10.5 -84.5t-9.5 -79.5q-9 -49 -34 -86t-61 -47q53 -23 53 -94q0 -44 -22 -119t-22 -94 q0 -37 40 -37q18 0 29.5 -12t11.5 -30q0 -23 -18.5 -39.5t-44.5 -16.5q-66 0 -98 33.5t-32 82.5q0 45 28 124.5t28 114.5q0 26 -13.5 35.5t-42.5 9.5q-15 0 -25 10.5t-10 25.5z"/>
<glyph horiz-adv-x="358" d="M388 343q0 -19 -15 -33.5t-35 -14.5q-34 0 -52 -12.5t-24 -49.5q-6 -31 -8.5 -96.5t-10.5 -105.5q-12 -59 -57 -97.5t-123 -38.5q-18 0 -29.5 12t-11.5 30q0 22 17.5 39t40.5 17q47 0 55 47q6 31 10.5 84.5t9.5 79.5q9 49 34 86t61 47q-53 23 -53 94q0 44 22 119t22 94 q0 37 -40 37q-18 0 -29.5 12t-11.5 30q0 23 18.5 39.5t44.5 16.5q66 0 98 -33.5t32 -82.5q0 -45 -28 -124.5t-28 -114.5q0 -26 13.5 -35.5t42.5 -9.5q15 0 25 -10.5t10 -25.5z"/>
<glyph horiz-adv-x="521" d="M103 332q0 16 16 32l186 181q11 11 28 11t28 -11t11 -28q0 -18 -15 -31l-169 -153l114 -155q6 -9 6 -21q0 -17 -11 -28t-28 -11q-21 0 -33 18l-124 172q-9 14 -9 24zM298 332q0 16 16 32l186 181q11 11 28 11q16 0 27.5 -11t11.5 -28q0 -18 -15 -31l-169 -153l114 -155 q6 -9 6 -21q0 -17 -11.5 -28t-27.5 -11q-21 0 -33 18l-124 172q-9 13 -9 24z"/>
<glyph horiz-adv-x="521" d="M535 342q0 -16 -16 -32l-186 -181q-11 -11 -28 -11t-28 11t-11 28q0 18 15 31l169 153l-114 155q-6 9 -6 21q0 17 11 28t28 11q21 0 33 -18l124 -172q9 -14 9 -24zM340 342q0 -16 -16 -32l-186 -181q-11 -11 -28 -11q-16 0 -27.5 11t-11.5 28q0 18 15 31l169 153 l-114 155q-6 9 -6 21q0 17 11.5 28t27.5 11q21 0 33 -18l124 -172q9 -14 9 -24z"/>
<glyph horiz-adv-x="326" d="M103 332q0 16 16 32l186 181q11 11 28 11t28 -11t11 -28q0 -18 -15 -31l-169 -153l114 -155q6 -9 6 -21q0 -17 -11 -28t-28 -11q-21 0 -33 18l-124 172q-9 14 -9 24z"/>
<glyph horiz-adv-x="326" d="M340 342q0 -16 -16 -32l-186 -181q-11 -11 -28 -11q-16 0 -27.5 11t-11.5 28q0 18 15 31l169 153l-114 155q-6 9 -6 21q0 17 11.5 28t27.5 11q21 0 33 -18l124 -172q9 -14 9 -24z"/>
<glyph horiz-adv-x="568" d="M544 338q0 -21 -16.5 -36.5t-37.5 -15.5h-309q-17 0 -28 11.5t-11 28.5q0 21 17 36.5t38 15.5h309q16 0 27 -11.5t11 -28.5z"/>
<glyph horiz-adv-x="879" d="M854 338q0 -21 -16.5 -36.5t-37.5 -15.5h-619q-17 0 -28 11.5t-11 28.5q0 21 17 36.5t38 15.5h619q16 0 27 -11.5t11 -28.5z"/>
<glyph horiz-adv-x="225" d="M159 262q-56 0 -56 51q0 39 20.5 60t58.5 21q55 0 55 -52q0 -80 -78 -80z"/>
<glyph horiz-adv-x="453" d="M324 502q29 0 49.5 -23.5t20.5 -60.5q0 -41 -24.5 -73t-60 -53t-70.5 -40t-59.5 -45t-24.5 -58q0 -31 23 -48t65 -17q43 0 72.5 21.5t36.5 62.5q4 25 23 40t42 15q20 0 33 -13.5t13 -33.5q0 -81 -65 -135.5t-172 -54.5q-87 0 -134.5 37.5t-47.5 106.5q0 55 24.5 96.5 t59 64.5t69 41t59 34.5t24.5 34.5q0 11 -5 26t-5 24q0 22 15.5 36.5t38.5 14.5zM369 681q56 0 56 -51q0 -39 -20.5 -60t-58.5 -21q-55 0 -55 52q0 80 78 80z"/>
<glyph horiz-adv-x="212" d="M104 -8q-64 0 -51 56l89 398q9 38 49 38q42 0 37 -38l-52 -398q-7 -56 -72 -56zM226 681q56 0 56 -51q0 -39 -20.5 -60t-58.5 -21q-55 0 -55 52q0 80 78 80z"/>
<glyph horiz-adv-x="418" d="M272 207q-130 0 -130 130q0 136 130 136t130 -136q0 -130 -130 -130z"/>
<glyph horiz-adv-x="491" d="M446 435q-43 54 -110 54q-51 0 -75.5 -18.5t-24.5 -48.5q0 -28 26.5 -46.5t64.5 -31.5t76 -29t64.5 -48.5t26.5 -80.5q0 -80 -52.5 -132.5t-146.5 -63.5l-10 -57q-4 -20 -19 -33.5t-36 -13.5q-19 0 -30.5 14t-7.5 33l10 56q-53 8 -93.5 39.5t-57.5 68.5q-5 13 -5 22 q0 21 15 36t36 15q25 0 43 -24q43 -56 124 -56q59 0 88.5 21t29.5 57q0 23 -19 40.5t-48 28t-62 24.5t-62 29.5t-48 45t-19 68.5q0 79 54.5 126.5t128.5 53.5l7 40q4 20 19.5 33.5t34.5 13.5q20 0 31.5 -14t7.5 -33l-7 -41q95 -22 133 -97q5 -10 5 -21q0 -21 -15 -36 t-36 -15q-25 0 -41 21z"/>
<glyph horiz-adv-x="498" d="M62 203q0 143 67.5 227t181.5 100l11 61q4 20 19.5 33.5t34.5 13.5q20 0 31.5 -14t7.5 -33l-10 -59q53 -11 85.5 -35.5t43.5 -48.5q5 -10 5 -22q0 -21 -15 -36t-36 -15q-24 0 -39 18q-36 41 -104 41q-85 0 -128.5 -56.5t-43.5 -161.5q0 -130 110 -130q59 0 113 43 q17 13 34 13q21 0 36 -15t15 -36t-16 -37q-18 -18 -60.5 -39.5t-95.5 -26.5l-10 -55q-4 -20 -20 -33.5t-35 -13.5t-30.5 14t-7.5 33l10 56q-71 10 -112.5 65.5t-41.5 148.5z"/>
<glyph horiz-adv-x="529" d="M345 226h-80v-18q0 -71 -64 -115q31 15 62 15q25 0 59 -10t52 -10q24 0 55 31q16 16 37 16q22 0 37 -15t15 -37q0 -19 -12 -33q-49 -64 -144 -64q-27 0 -77 17.5t-77 17.5q-28 0 -70 -22q-18 -9 -31 -9q-20 0 -34.5 14.5t-14.5 34.5q0 26 23 42q26 18 40 30t28 36t14 51 q0 21 -1 28h-53q-16 0 -27 11t-11 27q0 21 15.5 36.5t38.5 15.5h13q-10 35 -10 69q0 81 62.5 141t175.5 60q76 0 122.5 -36t57.5 -88q2 -10 2 -16q0 -21 -15 -36t-36 -15q-36 0 -48 34q-21 63 -99 63q-54 0 -84.5 -28t-30.5 -77q0 -40 11 -71h114q16 0 27 -11t11 -27 q0 -21 -16 -36.5t-37 -15.5z"/>
<glyph horiz-adv-x="554" d="M435 125h-78l-13 -75q-5 -24 -24.5 -41t-43.5 -17t-38 17t-10 41l13 75h-79q-14 0 -23 9.5t-9 24.5q0 18 14.5 32t32.5 14h79l6 39h-78q-14 0 -23 9.5t-9 24.5q0 18 14.5 32t32.5 14h27l-109 168q-7 12 -7 28q0 24 17 41t41 17q32 0 49 -27l123 -197l185 203q20 21 45 21 q24 0 41 -17t17 -41t-16 -40l-157 -156h17q14 0 23 -10t9 -24q0 -19 -14 -32.5t-33 -13.5h-79l-6 -39h78q14 0 23 -10t9 -24q0 -19 -14 -32.5t-33 -13.5z"/>
<glyph horiz-adv-x="478" d="M101 398h53l19 108q15 80 60 127t117 47q62 0 97 -26q20 -14 20 -38q0 -19 -13.5 -32.5t-32.5 -13.5q-9 0 -23 6q-23 10 -48 10q-55 0 -70 -81l-19 -107h66q19 0 32 -13t13 -32t-13 -32t-32 -13h-81l-58 -310q-37 -199 -213 -199q-42 0 -77 13q-32 12 -32 44 q0 20 13.5 34t32.5 14q6 0 18 -3q26 -7 45 -7q46 0 71.5 25.5t35.5 79.5l55 309h-36q-19 0 -32 13t-13 32t13 32t32 13z"/>
<glyph horiz-adv-x="586" d="M361 186h-138q15 -105 130 -105q68 0 137 56q16 13 33 13q19 0 32.5 -14t13.5 -34t-16 -35q-86 -80 -212 -80q-112 0 -167 54.5t-62 144.5h-24q-14 0 -23.5 9.5t-9.5 24.5q0 18 14.5 32t32.5 14h13l6 34h-13q-14 0 -23.5 9.5t-9.5 24.5q0 18 14.5 32t32.5 14h22 q33 90 109 147.5t190 57.5q65 0 113.5 -28.5t68.5 -60.5q7 -11 7 -25q0 -19 -14 -33.5t-34 -14.5q-23 0 -37 18q-44 50 -118 50q-122 0 -174 -111h140q14 0 23 -10t9 -24q0 -19 -14 -32.5t-32 -13.5h-152l-6 -34h152q14 0 23 -10t9 -24q0 -19 -14 -32.5t-32 -13.5z"/>
<glyph horiz-adv-x="630" d="M285 480q0 -34 8 -66q100 63 100 130q0 45 -37 45q-35 0 -53 -31t-18 -78zM265 84q59 0 104 30q-83 67 -131 155q-65 -49 -65 -104q0 -37 25.5 -59t66.5 -22zM566 -8q-22 0 -56.5 17t-62.5 39q-76 -62 -200 -62q-84 0 -135 42.5t-51 119.5q0 116 137 207q-21 63 -21 117 q0 91 51.5 153t145.5 62q65 0 97 -36.5t32 -91.5q0 -66 -45.5 -121t-128.5 -111q56 -94 118 -143q17 18 43 67q18 33 48 33q22 0 37 -15t15 -37q0 -15 -11 -35q-25 -45 -53 -73q19 -15 62 -35q29 -13 29 -46q0 -21 -15 -36t-36 -15z"/>
<glyph horiz-adv-x="732" d="M696 681q39 0 66 -27t27 -65q0 -61 -58 -92t-127 -31l-19 1q2 -19 2 -45q0 -108 -68 -198t-146 -123q-6 -3 -6 -11q0 -10 11 -10q3 0 9 2q76 32 134 97t85 151q43 0 72.5 -30t29.5 -85q0 -93 -80.5 -158t-213.5 -65q-112 0 -186.5 55.5t-74.5 155.5q0 71 59 71 q43 0 43 -45q0 -19 -18 -36.5t-18 -30.5q0 -18 15 -32.5t34 -14.5q21 0 36.5 16t15.5 38q0 18 -18 73.5t-18 89.5q0 50 32 80t79 30q85 0 129 -78q8 22 8 68l-2 41q-68 13 -136.5 56t-92.5 102q-31 -2 -51.5 -20t-20.5 -45q0 -23 14.5 -35.5t38.5 -12.5q12 0 20 -8t8 -20 q0 -11 -8 -19.5t-20 -8.5q-44 0 -76.5 28t-32.5 76q0 57 45 89t108 32q77 0 148 -46.5t101 -120.5q14 -2 29 -2q57 0 93 21.5t36 49.5q0 15 -10.5 25.5t-26.5 10.5q-15 0 -25.5 -10.5t-10.5 -25.5q0 -11 -8 -19t-19 -8t-19 8t-8 19q0 38 25.5 65t64.5 27zM357 634 q29 -42 63.5 -63.5t89.5 -39.5q-23 38 -64 67.5t-89 35.5z"/>
<glyph horiz-adv-x="422" d="M26 -7l394 741q15 27 47 27q23 0 38.5 -15.5t15.5 -38.5q0 -14 -8 -29l-391 -735q-16 -31 -49 -31q-23 0 -38.5 16t-15.5 38q0 13 7 27z"/>
<glyph horiz-adv-x="422" d="M285 -45l-133 735q-2 10 -2 17q0 22 16 38t39 16q20 0 34 -11t17 -29l133 -738q2 -10 2 -17q0 -23 -16 -38.5t-40 -15.5q-19 0 -33 12.5t-17 30.5z"/>
<glyph horiz-adv-x="220" d="M255 821q22 0 35.5 -16t9.5 -39l-151 -858q-4 -23 -21.5 -39t-42.5 -16q-24 0 -37 16t-9 39l152 858q4 23 21.5 39t42.5 16z"/>
<glyph horiz-adv-x="299" d="M228 441q40 0 57 37.5t17 90.5t-43 53q-40 0 -57 -37.5t-17 -90.5t43 -53zM218 376q-109 0 -109 106q0 88 39 146.5t121 58.5q109 0 109 -106q0 -88 -39 -146.5t-121 -58.5z"/>
<glyph horiz-adv-x="228" d="M211 379q-15 0 -24.5 11t-6.5 26l30 169l-36 -20q-8 -4 -15 -4q-13 0 -23.5 10.5t-10.5 23.5q0 20 20 31l98 52q12 6 20 6q16 0 25 -11t7 -26l-41 -231q-2 -15 -15 -26t-28 -11z"/>
<glyph horiz-adv-x="289" d="M157 649q40 38 105 38q48 0 75 -22.5t27 -58.5q0 -38 -27 -65t-60 -39t-61.5 -26.5t-31.5 -29.5h125q12 0 19.5 -8t7.5 -19q0 -15 -12 -26t-27 -11h-167q-13 0 -22 9t-8 22q4 38 24.5 65t47.5 40.5t54 24.5t45 23.5t18 29.5q0 26 -38 26q-22 0 -58 -28q-9 -7 -20 -7 q-13 0 -22.5 9.5t-9.5 22.5q0 15 16 30z"/>
<glyph horiz-adv-x="276" d="M275 572q63 -7 63 -79q0 -51 -35.5 -84t-102.5 -33q-65 0 -98 51q-5 9 -5 18q0 13 8.5 22t21.5 9q16 0 25 -11q23 -26 59 -26q27 0 40.5 13.5t13.5 33.5q0 31 -32 31h-26q-10 0 -17 7t-7 18q0 14 17 30l51 45h-80q-12 0 -19.5 8t-7.5 19q0 15 11.5 26t26.5 11h141 q12 0 19.5 -8t7.5 -19q0 -16 -15 -29z"/>
<glyph horiz-adv-x="280" d="M333 647l-25 -144h15q12 0 19.5 -8t7.5 -19q0 -15 -11.5 -26t-26.5 -11h-15l-4 -23q-3 -16 -15 -26.5t-29 -10.5q-15 0 -24 11t-6 26l4 23h-99q-12 0 -20 8.5t-8 19.5q0 13 11 25l160 175q17 17 35 17q15 0 24.5 -11t6.5 -26zM188 503h46l12 67z"/>
<glyph horiz-adv-x="272" d="M247 586q39 0 67 -20t28 -64q0 -58 -37 -92t-98 -34q-68 0 -97 53q-5 10 -5 16q0 13 9 22t22 9t26 -13q22 -22 52 -22q55 0 55 51q0 35 -40 35q-22 0 -44.5 -7.5t-28.5 -7.5q-12 0 -19 7.5t-7 18.5q0 8 5 21l31 93q9 28 39 28h123q13 0 21 -8t8 -20q0 -16 -11.5 -25.5 t-28.5 -9.5h-103l-13 -39q19 8 46 8z"/>
<glyph horiz-adv-x="285" d="M258 580q41 0 65 -22.5t24 -60.5q0 -55 -38.5 -88t-96.5 -33q-101 0 -101 107q0 92 44.5 148t114.5 56q48 0 74 -23q12 -11 12 -25q0 -13 -9 -22.5t-23 -9.5q-9 0 -20 6q-20 11 -43 11q-24 0 -42 -17t-24 -50q23 23 63 23zM217 439q54 0 54 49q0 34 -37 34 q-15 0 -30.5 -9t-21.5 -19q-2 -8 -2 -17q0 -38 37 -38z"/>
<glyph horiz-adv-x="262" d="M130 410q4 40 25.5 71.5t44.5 48.5t44.5 40t25.5 47h-108q-12 0 -19.5 8t-7.5 19q0 15 11.5 26t26.5 11h154q12 0 20 -8t7 -19q-5 -40 -20.5 -68.5t-35 -45.5t-39 -32.5t-35.5 -38.5t-22 -54q-3 -15 -15 -25.5t-27 -10.5q-14 0 -22.5 9t-7.5 22z"/>
<glyph horiz-adv-x="276" d="M204 376q-49 0 -76.5 20.5t-27.5 58.5q0 62 64 89q-30 15 -30 49q0 44 36 69t89 25q42 0 68.5 -18.5t26.5 -53.5q0 -50 -50 -71q37 -18 37 -60q0 -50 -37.5 -79t-99.5 -29zM248 628q-41 0 -41 -35q0 -22 31 -22q42 0 42 33q0 24 -32 24zM228 510q-51 0 -51 -41 q0 -28 38 -28q51 0 51 40q0 29 -38 29z"/>
<glyph horiz-adv-x="285" d="M214 483q-41 0 -65 22.5t-24 60.5q0 55 38.5 88t96.5 33q101 0 101 -107q0 -92 -44.5 -148t-114.5 -56q-48 0 -74 23q-12 11 -12 25t9 23t23 9q9 0 20 -6q20 -11 43 -11q24 0 42 17t24 50q-23 -23 -63 -23zM255 624q-54 0 -54 -49q0 -34 37 -34q15 0 30.5 9t21.5 19 q2 8 2 17q0 38 -37 38z"/>
<glyph horiz-adv-x="299" d="M159 52q40 0 57 37.5t17 90.5t-43 53q-40 0 -57 -37.5t-17 -90.5t43 -53zM149 -13q-109 0 -109 106q0 88 39 146.5t121 58.5q109 0 109 -106q0 -88 -39 -146.5t-121 -58.5z"/>
<glyph horiz-adv-x="228" d="M143 -8q-15 0 -24.5 11t-6.5 26l30 169l-36 -20q-8 -4 -15 -4q-13 0 -23.5 10t-10.5 24q0 20 20 31l98 52q12 6 20 6q16 0 25 -11t7 -26l-41 -231q-2 -15 -15 -26t-28 -11z"/>
<glyph horiz-adv-x="289" d="M89 267q40 38 105 38q48 0 75 -22.5t27 -58.5q0 -38 -27 -65t-60 -39t-61.5 -26.5t-31.5 -29.5h125q12 0 19.5 -8t7.5 -19q0 -15 -12 -26t-27 -11h-167q-13 0 -22 9t-8 22q4 38 24.5 65t47.5 40.5t54 24.5t45 23.5t18 29.5q0 26 -38 26q-22 0 -58 -28q-9 -7 -20 -7 q-13 0 -22.5 9.5t-9.5 22.5q0 15 16 30z"/>
<glyph horiz-adv-x="276" d="M206 183q63 -7 63 -79q0 -51 -35.5 -84t-102.5 -33q-65 0 -98 51q-5 9 -5 18q0 13 8.5 22t21.5 9q16 0 25 -11q23 -26 59 -26q27 0 40.5 13.5t13.5 33.5q0 31 -32 31h-26q-10 0 -17 7t-7 18q0 14 17 30l51 45h-80q-12 0 -19.5 8t-7.5 19q0 15 11.5 26t26.5 11h141 q12 0 19.5 -8t7.5 -19q0 -17 -15 -29z"/>
<glyph horiz-adv-x="280" d="M264 260l-25 -144h15q12 0 19.5 -8t7.5 -19q0 -15 -11.5 -26t-26.5 -11h-15l-4 -23q-3 -16 -15 -26.5t-29 -10.5q-15 0 -24 11t-6 26l4 23h-99q-12 0 -20 8.5t-8 19.5q0 13 11 25l160 175q17 17 35 17q15 0 24.5 -11t6.5 -26zM119 116h46l12 67z"/>
<glyph horiz-adv-x="272" d="M178 196q39 0 67 -20t28 -64q0 -58 -37 -92t-98 -34q-68 0 -97 53q-5 10 -5 16q0 13 9 22t22 9t26 -13q22 -22 52 -22q55 0 55 51q0 35 -40 35q-22 0 -44.5 -7.5t-28.5 -7.5q-12 0 -19 7.5t-7 18.5q0 8 5 21l31 93q9 28 39 28h123q13 0 21 -8t8 -20q0 -16 -11.5 -25.5 t-28.5 -9.5h-103l-13 -39q19 8 46 8z"/>
<glyph horiz-adv-x="285" d="M190 190q41 0 65 -22.5t24 -60.5q0 -55 -38.5 -88t-96.5 -33q-101 0 -101 107q0 92 44.5 148t114.5 56q48 0 74 -23q12 -11 12 -25q0 -13 -9 -22.5t-23 -9.5q-9 0 -20 6q-20 11 -43 11q-24 0 -42 -17t-24 -50q23 23 63 23zM149 49q54 0 54 49q0 34 -37 34q-15 0 -30.5 -9 t-21.5 -19q-2 -8 -2 -17q0 -38 37 -38z"/>
<glyph horiz-adv-x="243" d="M61 21q4 40 25.5 71.5t44.5 48.5t44.5 40t25.5 47h-108q-12 0 -19.5 8t-7.5 19q0 15 11.5 26t26.5 11h154q12 0 20 -8t7 -19q-5 -40 -20.5 -68.5t-35 -45.5t-39 -32.5t-35.5 -38.5t-22 -54q-3 -15 -15 -25.5t-27 -10.5q-14 0 -22.5 9t-7.5 22z"/>
<glyph horiz-adv-x="276" d="M136 -14q-49 0 -76.5 20.5t-27.5 58.5q0 62 64 89q-30 15 -30 49q0 44 36.5 69t88.5 25q42 0 68.5 -18.5t26.5 -53.5q0 -50 -50 -71q37 -18 37 -60q0 -50 -37.5 -79t-99.5 -29zM180 238q-41 0 -41 -35q0 -22 31 -22q42 0 42 33q0 24 -32 24zM160 120q-51 0 -51 -41 q0 -28 38 -28q51 0 51 40q0 29 -38 29z"/>
<glyph horiz-adv-x="285" d="M144 93q-41 0 -65 22.5t-24 60.5q0 55 38.5 88t96.5 33q101 0 101 -107q0 -92 -44.5 -148t-114.5 -56q-48 0 -74 23q-12 11 -12 25t9 23t23 9q9 0 20 -6q20 -11 43 -11q24 0 42 17t24 50q-23 -23 -63 -23zM185 234q-54 0 -54 -49q0 -34 37 -34q15 0 30.5 9t21.5 19 q2 8 2 17q0 38 -37 38z"/>
<glyph horiz-adv-x="506" d="M533 408l-64 -362q-4 -23 -22.5 -38.5t-40.5 -15.5q-23 0 -36 15.5t-9 37.5q-45 -58 -136 -58q-74 0 -118 44.5t-44 134.5q0 136 69.5 219t170.5 83q45 0 77 -18.5t45 -42.5q4 23 22.5 39t41.5 16q22 0 35 -15.5t9 -38.5zM262 79q71 0 106.5 61t35.5 139q0 97 -89 97 q-50 0 -83.5 -32.5t-46 -75t-12.5 -91.5q0 -98 89 -98z"/>
<glyph horiz-adv-x="506" d="M533 408l-64 -362q-4 -23 -22.5 -38.5t-40.5 -15.5q-23 0 -36 15.5t-9 37.5q-45 -58 -136 -58q-74 0 -118 44.5t-44 134.5q0 136 69.5 219t170.5 83q45 0 77 -18.5t45 -42.5q4 23 22.5 39t41.5 16q22 0 35 -15.5t9 -38.5zM262 79q71 0 106.5 61t35.5 139q0 97 -89 97 q-50 0 -83.5 -32.5t-46 -75t-12.5 -91.5q0 -98 89 -98zM291 514q-21 21 3 45l102 108q12 14 30 13.5t31 -16.5q29 -35 -6 -62l-114 -88q-26 -20 -46 0z"/>
<glyph horiz-adv-x="506" d="M533 408l-64 -362q-4 -23 -22.5 -38.5t-40.5 -15.5q-23 0 -36 15.5t-9 37.5q-45 -58 -136 -58q-74 0 -118 44.5t-44 134.5q0 136 69.5 219t170.5 83q45 0 77 -18.5t45 -42.5q4 23 22.5 39t41.5 16q22 0 35 -15.5t9 -38.5zM262 79q71 0 106.5 61t35.5 139q0 97 -89 97 q-50 0 -83.5 -32.5t-46 -75t-12.5 -91.5q0 -98 89 -98zM345 523q-55 0 -88 22t-33 67q0 25 12.5 39.5t31.5 14.5q14 0 22 -9t8 -22q0 -2 -0.5 -6.5t-0.5 -8.5q0 -29 60 -29q64 0 73 39q9 36 42 36q14 0 22.5 -9t8.5 -22q0 -54 -45 -83t-113 -29z"/>
<glyph horiz-adv-x="506" d="M533 408l-64 -362q-4 -23 -22.5 -38.5t-40.5 -15.5q-23 0 -36 15.5t-9 37.5q-45 -58 -136 -58q-74 0 -118 44.5t-44 134.5q0 136 69.5 219t170.5 83q45 0 77 -18.5t45 -42.5q4 23 22.5 39t41.5 16q22 0 35 -15.5t9 -38.5zM262 79q71 0 106.5 61t35.5 139q0 97 -89 97 q-50 0 -83.5 -32.5t-46 -75t-12.5 -91.5q0 -98 89 -98zM366 657q12 0 23 -8l78 -63q15 -12 15 -31q0 -17 -11 -28t-28 -11q-14 0 -24 8l-61 50l-82 -51q-10 -7 -24 -7q-17 0 -28 11.5t-11 28.5q0 23 21 34l105 58q16 9 27 9z"/>
<glyph horiz-adv-x="506" d="M533 408l-64 -362q-4 -23 -22.5 -38.5t-40.5 -15.5q-23 0 -36 15.5t-9 37.5q-45 -58 -136 -58q-74 0 -118 44.5t-44 134.5q0 136 69.5 219t170.5 83q45 0 77 -18.5t45 -42.5q4 23 22.5 39t41.5 16q22 0 35 -15.5t9 -38.5zM262 79q71 0 106.5 61t35.5 139q0 97 -89 97 q-50 0 -83.5 -32.5t-46 -75t-12.5 -91.5q0 -98 89 -98zM250 521q-42 0 -42 40q0 64 60 64q42 0 42 -40q0 -31 -15.5 -47.5t-44.5 -16.5zM431 521q-42 0 -42 40q0 64 60 64q42 0 42 -40q0 -31 -15.5 -47.5t-44.5 -16.5z"/>
<glyph horiz-adv-x="506" d="M533 408l-64 -362q-4 -23 -22.5 -38.5t-40.5 -15.5q-23 0 -36 15.5t-9 37.5q-45 -58 -136 -58q-74 0 -118 44.5t-44 134.5q0 136 69.5 219t170.5 83q45 0 77 -18.5t45 -42.5q4 23 22.5 39t41.5 16q22 0 35 -15.5t9 -38.5zM262 79q71 0 106.5 61t35.5 139q0 97 -89 97 q-50 0 -83.5 -32.5t-46 -75t-12.5 -91.5q0 -98 89 -98zM410 514q-21 -20 -41 0l-92 88q-12 10 -10 28.5t20 33.5q21 15 36.5 14.5t24.5 -13.5l69 -107q15 -24 -7 -44z"/>
<glyph horiz-adv-x="506" d="M533 408l-64 -362q-4 -23 -22.5 -38.5t-40.5 -15.5q-23 0 -36 15.5t-9 37.5q-45 -58 -136 -58q-74 0 -118 44.5t-44 134.5q0 136 69.5 219t170.5 83q45 0 77 -18.5t45 -42.5q4 23 22.5 39t41.5 16q22 0 35 -15.5t9 -38.5zM262 79q71 0 106.5 61t35.5 139q0 97 -89 97 q-50 0 -83.5 -32.5t-46 -75t-12.5 -91.5q0 -98 89 -98zM477 567q0 -17 -14 -30t-31 -13h-173q-14 0 -23 9.5t-9 23.5q0 17 14 30t31 13h173q14 0 23 -9.5t9 -23.5z"/>
<glyph horiz-adv-x="506" d="M492 -144q0 -17 -14 -27q-24 -17 -76 -17q-44 0 -73.5 18t-29.5 56q0 35 25 66.5t57 45.5q-26 16 -20 47q-45 -58 -136 -58q-74 0 -118 44.5t-44 134.5q0 136 69.5 219t170.5 83q45 0 77 -18.5t45 -42.5q4 23 22.5 39t41.5 16q22 0 35 -15.5t9 -38.5l-64 -362 q-5 -28 -33 -46q-69 -42 -69 -88q0 -38 48 -38q14 0 29.5 3.5t22.5 3.5q11 0 18 -7t7 -18zM262 79q71 0 106.5 61t35.5 139q0 97 -89 97q-50 0 -83.5 -32.5t-46 -75t-12.5 -91.5q0 -98 89 -98z"/>
<glyph horiz-adv-x="506" d="M533 408l-64 -362q-4 -23 -22.5 -38.5t-40.5 -15.5q-23 0 -36 15.5t-9 37.5q-45 -58 -136 -58q-74 0 -118 44.5t-44 134.5q0 136 69.5 219t170.5 83q45 0 77 -18.5t45 -42.5q4 23 22.5 39t41.5 16q22 0 35 -15.5t9 -38.5zM262 79q71 0 106.5 61t35.5 139q0 97 -89 97 q-50 0 -83.5 -32.5t-46 -75t-12.5 -91.5q0 -98 89 -98zM350 551q29 0 44.5 17.5t15.5 46.5q0 34 -43 34q-29 0 -44.5 -17.5t-15.5 -46.5q0 -34 43 -34zM376 699q90 0 90 -75q0 -54 -33 -88.5t-92 -34.5q-90 0 -90 75q0 54 33 88.5t92 34.5z"/>
<glyph horiz-adv-x="506" d="M533 408l-64 -362q-4 -23 -22.5 -38.5t-40.5 -15.5q-23 0 -36 15.5t-9 37.5q-45 -58 -136 -58q-74 0 -118 44.5t-44 134.5q0 136 69.5 219t170.5 83q45 0 77 -18.5t45 -42.5q4 23 22.5 39t41.5 16q22 0 35 -15.5t9 -38.5zM262 79q71 0 106.5 61t35.5 139q0 97 -89 97 q-50 0 -83.5 -32.5t-46 -75t-12.5 -91.5q0 -98 89 -98zM329 720q-21 21 3 45l102 108q12 14 30 13.5t31 -16.5q29 -35 -6 -62l-114 -88q-26 -20 -46 0zM348 545q29 0 44.5 17.5t15.5 46.5q0 34 -43 34q-29 0 -44.5 -17.5t-15.5 -46.5q0 -34 43 -34zM374 693q90 0 90 -75 q0 -54 -33 -88.5t-92 -34.5q-90 0 -90 75q0 54 33 88.5t92 34.5z"/>
<glyph horiz-adv-x="506" d="M533 408l-64 -362q-4 -23 -22.5 -38.5t-40.5 -15.5q-23 0 -36 15.5t-9 37.5q-45 -58 -136 -58q-74 0 -118 44.5t-44 134.5q0 136 69.5 219t170.5 83q45 0 77 -18.5t45 -42.5q4 23 22.5 39t41.5 16q22 0 35 -15.5t9 -38.5zM262 79q71 0 106.5 61t35.5 139q0 97 -89 97 q-50 0 -83.5 -32.5t-46 -75t-12.5 -91.5q0 -98 89 -98zM422 599q11 0 28 19q13 14 30 14q16 0 27.5 -11t11.5 -28q0 -12 -6 -22q-28 -46 -95 -46q-31 0 -69.5 17t-50.5 17q-15 0 -30 -17q-14 -16 -32 -16q-16 0 -27.5 11t-11.5 28q0 12 6 22q28 46 96 46q30 0 68.5 -17 t54.5 -17z"/>
<glyph horiz-adv-x="753" d="M611 454l10 55q2 16 2 22q0 66 -84 66q-43 0 -68.5 -24.5t-25.5 -65.5q0 -42 33 -111q8 -18 8 -28q0 -20 -14.5 -34t-34.5 -14q-22 0 -36 17q-35 39 -89 39q-64 0 -101.5 -57t-37.5 -142q0 -98 87 -98q13 0 25 2t24 7.5t18 9t19 12t15 9.5q16 10 30 10q19 0 33 -13.5 t14 -33.5q0 -23 -22 -40q-71 -55 -172 -55q-86 0 -133.5 46t-47.5 135q0 127 67 213.5t199 86.5q63 0 102 -31q-50 56 -50 113q0 59 50.5 98t123.5 39q87 0 131.5 -35.5t44.5 -100.5q0 -17 -4 -41l-10 -56h46q16 0 26.5 -11t10.5 -27q0 -21 -16 -36.5t-37 -15.5h-45 l-42 -233q-2 -10 -2 -17q0 -13 10 -20.5t23 -7.5q17 0 28 -11.5t11 -28.5q0 -23 -16.5 -38.5t-46.5 -15.5q-57 0 -86.5 29t-29.5 79q0 13 3 28l42 236h-23q-16 0 -27 11t-11 27q0 21 16.5 36.5t37.5 15.5h22z"/>
<glyph horiz-adv-x="805" d="M639 486l-38 -206q-4 -22 5 -33t27 -11q51 0 80 46t29 129q0 99 -61 151.5t-169 52.5q-151 0 -239.5 -84t-88.5 -250q0 -110 60.5 -166.5t168.5 -56.5q126 0 213 47q12 6 23 6q16 0 26 -10.5t10 -26.5q0 -28 -30 -44q-109 -56 -256 -56t-227.5 76.5t-80.5 217.5 q0 206 117 318.5t318 112.5q141 0 225 -72t84 -204q0 -36 -7 -71.5t-23.5 -71t-40.5 -62.5t-62 -44t-84 -17q-42 0 -65.5 20.5t-26.5 48.5q-16 -21 -29 -33t-41 -24t-63 -12q-54 0 -84 36.5t-30 95.5q0 106 59 175t147 69q49 0 79 -28q13 23 40 23q18 0 28 -12t7 -30z M365 297q0 -30 14.5 -50t39.5 -20q42 0 71 32t39 87l18 95q-29 19 -59 19q-53 0 -88 -43.5t-35 -119.5z"/>
<glyph horiz-adv-x="497" d="M236 -13q-80 0 -126.5 44t-46.5 130q0 137 71 222t192 85q82 0 129 -39t47 -114q0 -24 -4 -47l-45 -253q-38 -216 -249 -216q-59 0 -103 20t-65 52q-6 10 -6 23q0 20 14 34t34 14q17 0 29 -10q48 -41 108 -41q52 0 84.5 26t40.5 72l7 38q-48 -40 -111 -40zM365 130 l25 138q2 9 2 26q0 39 -22 60.5t-60 21.5q-64 0 -100.5 -57.5t-36.5 -141.5q0 -98 84 -98q27 0 54 12.5t41 25.5z"/>
<glyph horiz-adv-x="497" d="M236 -13q-80 0 -126.5 44t-46.5 130q0 137 71 222t192 85q82 0 129 -39t47 -114q0 -24 -4 -47l-45 -253q-38 -216 -249 -216q-59 0 -103 20t-65 52q-6 10 -6 23q0 20 14 34t34 14q17 0 29 -10q48 -41 108 -41q52 0 84.5 26t40.5 72l7 38q-48 -40 -111 -40zM365 130 l25 138q2 9 2 26q0 39 -22 60.5t-60 21.5q-64 0 -100.5 -57.5t-36.5 -141.5q0 -98 84 -98q27 0 54 12.5t41 25.5zM370 657q12 0 23 -8l78 -63q15 -12 15 -31q0 -17 -11 -28t-28 -11q-14 0 -24 8l-61 50l-82 -51q-11 -7 -24 -7q-17 0 -28 11.5t-11 28.5q0 23 21 34l105 58 q17 9 27 9z"/>
<glyph horiz-adv-x="497" d="M236 -13q-80 0 -126.5 44t-46.5 130q0 137 71 222t192 85q82 0 129 -39t47 -114q0 -24 -4 -47l-45 -253q-38 -216 -249 -216q-59 0 -103 20t-65 52q-6 10 -6 23q0 20 14 34t34 14q17 0 29 -10q48 -41 108 -41q52 0 84.5 26t40.5 72l7 38q-48 -40 -111 -40zM365 130 l25 138q2 9 2 26q0 39 -22 60.5t-60 21.5q-64 0 -100.5 -57.5t-36.5 -141.5q0 -98 84 -98q27 0 54 12.5t41 25.5zM347 523q-55 0 -88 22t-33 67q0 25 12.5 39.5t31.5 14.5q14 0 22 -9t8 -22q0 -2 -0.5 -6.5t-0.5 -8.5q0 -29 60 -29q64 0 73 39q9 36 42 36q14 0 22.5 -9 t8.5 -22q0 -54 -45 -83t-113 -29z"/>
<glyph horiz-adv-x="497" d="M236 -13q-80 0 -126.5 44t-46.5 130q0 137 71 222t192 85q82 0 129 -39t47 -114q0 -24 -4 -47l-45 -253q-38 -216 -249 -216q-59 0 -103 20t-65 52q-6 10 -6 23q0 20 14 34t34 14q17 0 29 -10q48 -41 108 -41q52 0 84.5 26t40.5 72l7 38q-48 -40 -111 -40zM365 130 l25 138q2 9 2 26q0 39 -22 60.5t-60 21.5q-64 0 -100.5 -57.5t-36.5 -141.5q0 -98 84 -98q27 0 54 12.5t41 25.5zM345 537q-45 0 -45 40q0 65 63 65q44 0 44 -41q0 -64 -62 -64z"/>
<glyph horiz-adv-x="497" d="M236 -13q-80 0 -126.5 44t-46.5 130q0 137 71 222t192 85q82 0 129 -39t47 -114q0 -24 -4 -47l-45 -253q-38 -216 -249 -216q-59 0 -103 20t-65 52q-6 10 -6 23q0 20 14 34t34 14q17 0 29 -10q48 -41 108 -41q52 0 84.5 26t40.5 72l7 38q-48 -40 -111 -40zM365 130 l25 138q2 9 2 26q0 39 -22 60.5t-60 21.5q-64 0 -100.5 -57.5t-36.5 -141.5q0 -98 84 -98q27 0 54 12.5t41 25.5zM332 519q-44 0 -44 41q0 54 35 107t79 83q8 5 14 5q8 0 13 -5.5t5 -12.5q0 -8 -8 -15q-47 -41 -47 -78q0 -13 8 -33t8 -32q0 -28 -16.5 -44t-46.5 -16z"/>
<glyph horiz-adv-x="471" d="M64 161q0 138 72 222.5t193 84.5q39 0 69.5 -11t49 -27.5t30 -39t15.5 -43.5t4 -43q0 -57 -17.5 -86t-61.5 -29h-247q-2 -10 -2 -22q0 -83 97 -83q51 0 103 31q19 11 32 11q19 0 33 -14t14 -33q0 -22 -20 -39q-23 -18 -69 -35.5t-106 -17.5q-87 0 -138 44.5t-51 129.5z M312 376q-97 0 -122 -97h198q2 14 2 22q0 33 -19.5 54t-58.5 21z"/>
<glyph horiz-adv-x="471" d="M64 161q0 138 72 222.5t193 84.5q39 0 69.5 -11t49 -27.5t30 -39t15.5 -43.5t4 -43q0 -57 -17.5 -86t-61.5 -29h-247q-2 -10 -2 -22q0 -83 97 -83q51 0 103 31q19 11 32 11q19 0 33 -14t14 -33q0 -22 -20 -39q-23 -18 -69 -35.5t-106 -17.5q-87 0 -138 44.5t-51 129.5z M312 376q-97 0 -122 -97h198q2 14 2 22q0 33 -19.5 54t-58.5 21zM279 514q-21 21 3 45l102 108q12 14 30 13.5t31 -16.5q29 -35 -6 -62l-114 -88q-26 -20 -46 0z"/>
<glyph horiz-adv-x="471" d="M64 161q0 138 72 222.5t193 84.5q39 0 69.5 -11t49 -27.5t30 -39t15.5 -43.5t4 -43q0 -57 -17.5 -86t-61.5 -29h-247q-2 -10 -2 -22q0 -83 97 -83q51 0 103 31q19 11 32 11q19 0 33 -14t14 -33q0 -22 -20 -39q-23 -18 -69 -35.5t-106 -17.5q-87 0 -138 44.5t-51 129.5z M312 376q-97 0 -122 -97h198q2 14 2 22q0 33 -19.5 54t-58.5 21zM406 514q-21 -20 -41 0l-92 88q-12 10 -10 28.5t20 33.5q21 15 36.5 14.5t24.5 -13.5l69 -107q15 -24 -7 -44z"/>
<glyph horiz-adv-x="471" d="M64 161q0 138 72 222.5t193 84.5q39 0 69.5 -11t49 -27.5t30 -39t15.5 -43.5t4 -43q0 -57 -17.5 -86t-61.5 -29h-247q-2 -10 -2 -22q0 -83 97 -83q51 0 103 31q19 11 32 11q19 0 33 -14t14 -33q0 -22 -20 -39q-23 -18 -69 -35.5t-106 -17.5q-87 0 -138 44.5t-51 129.5z M312 376q-97 0 -122 -97h198q2 14 2 22q0 33 -19.5 54t-58.5 21zM362 657q12 0 23 -8l78 -63q15 -12 15 -31q0 -17 -11 -28t-28 -11q-14 0 -24 8l-61 50l-82 -51q-10 -7 -24 -7q-17 0 -28 11.5t-11 28.5q0 23 21 34l105 58q17 9 27 9z"/>
<glyph horiz-adv-x="471" d="M64 161q0 138 72 222.5t193 84.5q39 0 69.5 -11t49 -27.5t30 -39t15.5 -43.5t4 -43q0 -57 -17.5 -86t-61.5 -29h-247q-2 -10 -2 -22q0 -83 97 -83q51 0 103 31q19 11 32 11q19 0 33 -14t14 -33q0 -22 -20 -39q-23 -18 -69 -35.5t-106 -17.5q-87 0 -138 44.5t-51 129.5z M312 376q-97 0 -122 -97h198q2 14 2 22q0 33 -19.5 54t-58.5 21zM248 521q-42 0 -42 40q0 64 60 64q42 0 42 -40q0 -31 -15.5 -47.5t-44.5 -16.5zM429 521q-42 0 -42 40q0 64 60 64q42 0 42 -40q0 -31 -15.5 -47.5t-44.5 -16.5z"/>
<glyph horiz-adv-x="471" d="M64 161q0 138 72 222.5t193 84.5q39 0 69.5 -11t49 -27.5t30 -39t15.5 -43.5t4 -43q0 -57 -17.5 -86t-61.5 -29h-247q-2 -10 -2 -22q0 -83 97 -83q51 0 103 31q19 11 32 11q19 0 33 -14t14 -33q0 -22 -20 -39q-23 -18 -69 -35.5t-106 -17.5q-87 0 -138 44.5t-51 129.5z M312 376q-97 0 -122 -97h198q2 14 2 22q0 33 -19.5 54t-58.5 21zM473 567q0 -17 -14 -30t-31 -13h-173q-14 0 -23 9.5t-9 23.5q0 17 14 30t31 13h173q14 0 23 -9.5t9 -23.5z"/>
<glyph horiz-adv-x="471" d="M64 161q0 138 72 222.5t193 84.5q39 0 69.5 -11t49 -27.5t30 -39t15.5 -43.5t4 -43q0 -57 -17.5 -86t-61.5 -29h-247q-2 -10 -2 -22q0 -83 97 -83q51 0 103 31q19 11 32 11q19 0 33 -14t14 -33q0 -22 -20 -39q-23 -18 -69 -35.5t-106 -17.5q-87 0 -138 44.5t-51 129.5z M312 376q-97 0 -122 -97h198q2 14 2 22q0 33 -19.5 54t-58.5 21zM343 523q-55 0 -88 22t-33 67q0 25 12.5 39.5t31.5 14.5q14 0 22 -9t8 -22q0 -2 -0.5 -6.5t-0.5 -8.5q0 -29 60 -29q64 0 73 39q9 36 42 36q14 0 22.5 -9t8.5 -22q0 -54 -45 -83t-113 -29z"/>
<glyph horiz-adv-x="471" d="M64 161q0 138 72 222.5t193 84.5q39 0 69.5 -11t49 -27.5t30 -39t15.5 -43.5t4 -43q0 -57 -17.5 -86t-61.5 -29h-247q-2 -10 -2 -22q0 -83 97 -83q51 0 103 31q19 11 32 11q19 0 33 -14t14 -33q0 -22 -20 -39q-23 -18 -69 -35.5t-106 -17.5q-87 0 -138 44.5t-51 129.5z M312 376q-97 0 -122 -97h198q2 14 2 22q0 33 -19.5 54t-58.5 21zM342 537q-45 0 -45 40q0 65 63 65q44 0 44 -41q0 -64 -62 -64z"/>
<glyph horiz-adv-x="471" d="M404 -144q0 -17 -14 -27q-24 -17 -76 -17q-44 0 -73.5 18t-29.5 56q0 58 67 103q-14 -2 -25 -2q-87 0 -138 44.5t-51 129.5q0 138 72 222.5t193 84.5q39 0 69.5 -11t49 -27.5t30 -39t15.5 -43.5t4 -43q0 -57 -17.5 -86t-61.5 -29h-247q-2 -10 -2 -22q0 -83 97 -83 q51 0 103 31q19 11 32 11q19 0 33 -14t14 -33q0 -22 -20 -39q-12 -10 -53.5 -31.5t-68.5 -45t-27 -51.5q0 -38 48 -38q14 0 29.5 3.5t22.5 3.5q11 0 18 -7t7 -18zM312 376q-97 0 -122 -97h198q2 14 2 22q0 33 -19.5 54t-58.5 21z"/>
<glyph horiz-adv-x="471" d="M64 161q0 138 72 222.5t193 84.5q39 0 69.5 -11t49 -27.5t30 -39t15.5 -43.5t4 -43q0 -57 -17.5 -86t-61.5 -29h-247q-2 -10 -2 -22q0 -83 97 -83q51 0 103 31q19 11 32 11q19 0 33 -14t14 -33q0 -22 -20 -39q-23 -18 -69 -35.5t-106 -17.5q-87 0 -138 44.5t-51 129.5z M312 376q-97 0 -122 -97h198q2 14 2 22q0 33 -19.5 54t-58.5 21zM340 516q-12 0 -23 8l-78 63q-15 12 -15 31q0 16 11 27.5t28 11.5q14 0 24 -8l61 -50l82 51q10 7 24 7q17 0 28 -11.5t11 -28.5q0 -23 -21 -34l-105 -58q-17 -9 -27 -9z"/>
<glyph horiz-adv-x="322" d="M145 364h-20q-16 0 -27 11t-11 27q0 21 16.5 36.5t37.5 15.5h20l10 54q14 77 68.5 127t153.5 50q17 0 28.5 -11.5t11.5 -28.5q0 -22 -17 -38t-39 -16q-40 0 -65 -20.5t-31 -54.5l-11 -62h67q16 0 26.5 -11t10.5 -27q0 -21 -16 -36.5t-37 -15.5h-68l-56 -320 q-4 -22 -22 -37t-41 -15q-24 0 -36.5 14.5t-8.5 37.5z"/>
<glyph horiz-adv-x="452" d="M26 -101q45 0 77 32t72 101l-90 360q-2 6 -2 16q0 22 15.5 38t38.5 16q21 0 34.5 -12.5t17.5 -26.5l64 -273l157 281q17 31 49 31q23 0 38.5 -16t15.5 -38q0 -15 -7 -27l-262 -414q-52 -82 -107 -125t-129 -43q-19 0 -31.5 12t-12.5 31q0 24 18.5 40.5t43.5 16.5z"/>
<glyph horiz-adv-x="452" d="M26 -101q45 0 77 32t72 101l-90 360q-2 6 -2 16q0 22 15.5 38t38.5 16q21 0 34.5 -12.5t17.5 -26.5l64 -273l157 281q17 31 49 31q23 0 38.5 -16t15.5 -38q0 -15 -7 -27l-262 -414q-52 -82 -107 -125t-129 -43q-19 0 -31.5 12t-12.5 31q0 24 18.5 40.5t43.5 16.5z"/>
<glyph horiz-adv-x="452" d="M26 -101q45 0 77 32t72 101l-90 360q-2 6 -2 16q0 22 15.5 38t38.5 16q21 0 34.5 -12.5t17.5 -26.5l64 -273l157 281q17 31 49 31q23 0 38.5 -16t15.5 -38q0 -15 -7 -27l-262 -414q-52 -82 -107 -125t-129 -43q-19 0 -31.5 12t-12.5 31q0 24 18.5 40.5t43.5 16.5z"/>
<glyph horiz-adv-x="452" d="M26 -101q45 0 77 32t72 101l-90 360q-2 6 -2 16q0 22 15.5 38t38.5 16q21 0 34.5 -12.5t17.5 -26.5l64 -273l157 281q17 31 49 31q23 0 38.5 -16t15.5 -38q0 -15 -7 -27l-262 -414q-52 -82 -107 -125t-129 -43q-19 0 -31.5 12t-12.5 31q0 24 18.5 40.5t43.5 16.5z"/>
<glyph horiz-adv-x="452" d="M26 -101q45 0 77 32t72 101l-90 360q-2 6 -2 16q0 22 15.5 38t38.5 16q21 0 34.5 -12.5t17.5 -26.5l64 -273l157 281q17 31 49 31q23 0 38.5 -16t15.5 -38q0 -15 -7 -27l-262 -414q-52 -82 -107 -125t-129 -43q-19 0 -31.5 12t-12.5 31q0 24 18.5 40.5t43.5 16.5z"/>
<glyph horiz-adv-x="817" d="M532 325l-24 -133q-4 -21 -4 -41q0 -72 83 -72q64 0 101 57t37 142q0 98 -85 98q-32 0 -59 -13t-38 -25zM89 44l56 320h-20q-16 0 -27 11t-11 27q0 21 16.5 36.5t37.5 15.5h20l10 54q14 78 68.5 127.5t153.5 49.5q57 0 101.5 -12.5t66.5 -27.5q24 -17 19 -47l-30 -170 q46 40 117 40q76 0 121.5 -44t45.5 -130q0 -141 -67.5 -224t-186.5 -83q-83 0 -133.5 39.5t-50.5 114.5q0 25 4 46l67 383q-48 16 -90 16q-83 0 -96 -70l-11 -62h67q16 0 26.5 -11t10.5 -27q0 -21 -16 -36.5t-37 -15.5h-68l-56 -320q-4 -22 -22 -37t-41 -15 q-24 0 -36.5 14.5t-8.5 37.5z"/>
<glyph horiz-adv-x="1124" d="M396 44l56 320h-199l-56 -320q-4 -22 -22 -37t-41 -15q-24 0 -36.5 14.5t-8.5 37.5l56 320h-20q-16 0 -27 11t-11 27q0 21 16.5 36.5t37.5 15.5h20l10 54q14 77 68.5 127t153.5 50q17 0 28.5 -11.5t11.5 -28.5q0 -22 -17 -38t-39 -16q-40 0 -65 -20.5t-31 -54.5l-11 -62 h198l10 54q14 78 68.5 127.5t153.5 49.5q110 0 168 -40q24 -17 19 -47l-30 -170q46 40 117 40q76 0 121.5 -44t45.5 -130q0 -141 -67.5 -224t-186.5 -83q-83 0 -133.5 39.5t-50.5 114.5q0 25 4 46l67 383q-48 16 -90 16q-83 0 -96 -70l-11 -62h67q16 0 26.5 -11t10.5 -27 q0 -21 -16 -36.5t-37 -15.5h-68l-56 -320q-4 -22 -22 -37t-41 -15q-24 0 -36.5 14.5t-8.5 37.5zM839 325l-24 -133q-4 -21 -4 -41q0 -72 83 -72q64 0 101 57t37 142q0 98 -85 98q-32 0 -59 -13t-38 -25z"/>
<glyph horiz-adv-x="816" d="M89 44l56 320h-20q-16 0 -27 11t-11 27q0 21 16.5 36.5t37.5 15.5h20l10 54q14 78 68.5 127.5t153.5 49.5q57 0 101.5 -12.5t66.5 -27.5q24 -17 19 -47l-34 -190q52 60 139 60q76 0 109 -35.5t33 -89.5q0 -21 -5 -49l-44 -250q-4 -22 -22 -37t-41 -15q-24 0 -36.5 14.5 t-8.5 37.5l41 230q3 15 3 29q0 67 -74 67q-101 0 -118 -103l-40 -223q-4 -22 -22 -37t-41 -15q-24 0 -36.5 14t-8.5 38l93 526q-48 16 -90 16q-83 0 -96 -70l-11 -62h67q16 0 26.5 -11t10.5 -27q0 -21 -16 -36.5t-37 -15.5h-68l-56 -320q-4 -22 -22 -37t-41 -15 q-24 0 -36.5 14.5t-8.5 37.5z"/>
<glyph horiz-adv-x="1123" d="M396 44l56 320h-199l-56 -320q-4 -22 -22 -37t-41 -15q-24 0 -36.5 14.5t-8.5 37.5l56 320h-20q-16 0 -27 11t-11 27q0 21 16.5 36.5t37.5 15.5h20l10 54q14 77 68.5 127t153.5 50q17 0 28.5 -11.5t11.5 -28.5q0 -22 -17 -38t-39 -16q-40 0 -65 -20.5t-31 -54.5l-11 -62 h198l10 54q14 78 68.5 127.5t153.5 49.5q110 0 168 -40q24 -17 19 -47l-34 -190q52 60 139 60q76 0 109 -35.5t33 -89.5q0 -21 -5 -49l-44 -250q-4 -22 -22 -37t-41 -15q-24 0 -36.5 14.5t-8.5 37.5l41 230q3 15 3 29q0 67 -74 67q-101 0 -118 -103l-40 -223q-4 -22 -22 -37 t-41 -15q-24 0 -36.5 14t-8.5 38l93 526q-48 16 -90 16q-83 0 -96 -70l-11 -62h67q16 0 26.5 -11t10.5 -27q0 -21 -16 -36.5t-37 -15.5h-68l-56 -320q-4 -22 -22 -37t-41 -15q-24 0 -36.5 14.5t-8.5 37.5z"/>
<glyph horiz-adv-x="765" d="M706 -8q-30 0 -43 22l-117 199l-40 -27l-24 -142q-4 -22 -22 -37t-41 -15t-36 14.5t-9 37.5l93 526q-48 16 -90 16q-83 0 -96 -70l-11 -62h67q16 0 26.5 -11t10.5 -27q0 -21 -16 -36.5t-37 -15.5h-68l-56 -320q-4 -22 -22 -37t-41 -15q-24 0 -36.5 14.5t-8.5 37.5l56 320 h-20q-16 0 -27 11t-11 27q0 21 16.5 36.5t37.5 15.5h20l10 54q14 78 68.5 127.5t153.5 49.5q57 0 101.5 -12.5t66.5 -27.5q24 -17 19 -47l-51 -291l198 142q19 13 37 13q22 0 37 -15t15 -37q0 -30 -26 -46l-156 -99l116 -192q8 -13 8 -29q0 -22 -15 -37t-37 -15z"/>
<glyph horiz-adv-x="1071" d="M1012 -8q-30 0 -43 22l-117 199l-40 -27l-24 -142q-4 -22 -22 -37t-41 -15t-36 14.5t-9 37.5l93 526q-48 16 -90 16q-83 0 -96 -70l-11 -62h67q16 0 26.5 -11t10.5 -27q0 -21 -16 -36.5t-37 -15.5h-68l-56 -320q-4 -22 -22 -37t-41 -15q-24 0 -36.5 14.5t-8.5 37.5 l56 320h-198l-56 -320q-4 -22 -22 -37t-41 -15q-24 0 -36.5 14.5t-8.5 37.5l56 320h-20q-16 0 -27 11t-11 27q0 21 16.5 36.5t37.5 15.5h20l10 54q14 77 68.5 127t153.5 50q17 0 28.5 -11.5t11.5 -28.5q0 -22 -17 -38t-39 -16q-40 0 -65 -20.5t-31 -54.5l-11 -62h197l10 54 q14 78 68.5 127.5t153.5 49.5q110 0 168 -40q24 -17 19 -47l-51 -291l198 142q19 13 37 13q22 0 37 -15t15 -37q0 -30 -26 -46l-156 -99l116 -192q8 -13 8 -29q0 -22 -15 -37t-37 -15z"/>
<glyph horiz-adv-x="832" d="M672 -8l65 372h-177l-56 -320q-4 -22 -22 -37t-41 -15q-24 0 -36.5 14.5t-8.5 37.5l56 320h-199l-56 -320q-4 -22 -22 -37t-41 -15q-24 0 -36.5 14.5t-8.5 37.5l56 320h-20q-16 0 -27 11t-11 27q0 21 16.5 36.5t37.5 15.5h20l10 54q14 77 68.5 127t153.5 50 q17 0 28.5 -11.5t11.5 -28.5q0 -22 -17 -38t-39 -16q-40 0 -65 -20.5t-31 -54.5l-11 -62h198l10 54q14 78 68 127.5t153 49.5q69 0 112 -26q25 -15 25 -42q0 -21 -15 -36t-36 -15q-7 0 -28 7q-38 13 -74 13q-82 0 -95 -70l-11 -62h231q22 0 35 -15.5t9 -38.5l-72 -408 q-12 -67 -66 -112.5t-124 -45.5q-18 0 -30 12.5t-12 30.5q0 23 17.5 40t42.5 17q24 0 41.5 16.5t22.5 41.5z"/>
<glyph horiz-adv-x="525" d="M365 -8l65 372h-177l-56 -320q-4 -22 -22 -37t-41 -15q-24 0 -36.5 14.5t-8.5 37.5l56 320h-20q-16 0 -27 11t-11 27q0 21 16.5 36.5t37.5 15.5h20l10 54q14 78 68 127.5t153 49.5q69 0 112 -26q25 -15 25 -42q0 -21 -15 -36t-36 -15q-7 0 -28 7q-38 13 -74 13 q-82 0 -95 -70l-11 -62h231q22 0 35 -15.5t9 -38.5l-72 -408q-12 -67 -66 -112.5t-124 -45.5q-18 0 -30 12.5t-12 30.5q0 23 17.5 40t42.5 17q24 0 41.5 16.5t22.5 41.5z"/>
<glyph horiz-adv-x="525" d="M270 454h231q22 0 35 -15.5t9 -38.5l-62 -354q-4 -22 -22.5 -38t-41.5 -16q-22 0 -35 15.5t-9 38.5l56 318h-178l-56 -320q-4 -22 -22 -37t-41 -15q-24 0 -36.5 14.5t-8.5 37.5l56 320h-20q-16 0 -27 11t-11 27q0 21 16.5 36.5t37.5 15.5h20l10 54q14 78 68 127.5 t153 49.5q69 0 112 -26q25 -15 25 -42q0 -21 -15 -36t-36 -15q-7 0 -28 7q-38 13 -74 13q-82 0 -95 -70z"/>
<glyph horiz-adv-x="555" d="M281 516l-11 -62h177l20 116q-48 16 -90 16q-83 0 -96 -70zM388 120l43 244h-178l-56 -320q-4 -22 -22 -37t-41 -15q-24 0 -36.5 14.5t-8.5 37.5l57 320h-21q-16 0 -27 11t-11 27q0 21 16.5 36.5t37.5 15.5h20l10 54q14 78 68.5 127.5t153.5 49.5q57 0 101.5 -12.5 t66.5 -27.5q24 -17 19 -47l-86 -484q-2 -11 4.5 -16.5t13.5 -5.5q18 0 29 -11.5t11 -29.5q0 -24 -18 -41.5t-46 -17.5q-103 0 -103 96q0 14 3 32z"/>
<glyph horiz-adv-x="644" d="M452 364h-199l-56 -320q-4 -22 -22 -37t-41 -15q-24 0 -36.5 14.5t-8.5 37.5l56 320h-20q-16 0 -27 11t-11 27q0 21 16.5 36.5t37.5 15.5h20l10 54q14 77 68.5 127t153.5 50q17 0 28.5 -11.5t11.5 -28.5q0 -22 -17 -38t-39 -16q-40 0 -65 -20.5t-31 -54.5l-11 -62h198 l10 54q14 77 68.5 127t153.5 50q17 0 28.5 -11.5t11.5 -28.5q0 -22 -17 -38t-39 -16q-40 0 -65 -20.5t-31 -54.5l-11 -62h67q16 0 26.5 -11t10.5 -27q0 -21 -16 -36.5t-37 -15.5h-68l-56 -320q-4 -22 -22 -37t-41 -15q-24 0 -36.5 14.5t-8.5 37.5z"/>
<glyph horiz-adv-x="831" d="M577 454h231q22 0 35 -15.5t9 -38.5l-62 -354q-4 -22 -22.5 -38t-41.5 -16q-22 0 -35 15.5t-9 38.5l56 318h-178l-56 -320q-4 -22 -22 -37t-41 -15q-24 0 -36.5 14.5t-8.5 37.5l56 320h-199l-56 -320q-4 -22 -22 -37t-41 -15q-24 0 -36.5 14.5t-8.5 37.5l56 320h-20 q-16 0 -27 11t-11 27q0 21 16.5 36.5t37.5 15.5h20l10 54q14 77 68.5 127t153.5 50q17 0 28.5 -11.5t11.5 -28.5q0 -22 -17 -38t-39 -16q-40 0 -65 -20.5t-31 -54.5l-11 -62h198l10 54q14 78 68 127.5t153 49.5q69 0 112 -26q25 -15 25 -42q0 -21 -15 -36t-36 -15 q-7 0 -28 7q-38 13 -74 13q-82 0 -95 -70z"/>
<glyph horiz-adv-x="862" d="M695 120l43 244h-178l-56 -320q-4 -22 -22 -37t-41 -15q-24 0 -36.5 14.5t-8.5 37.5l57 320h-200l-56 -320q-4 -22 -22 -37t-41 -15q-24 0 -36.5 14.5t-8.5 37.5l56 320h-20q-16 0 -27 11t-11 27q0 21 16.5 36.5t37.5 15.5h20l10 54q14 77 68.5 127t153.5 50 q17 0 28.5 -11.5t11.5 -28.5q0 -22 -17 -38t-39 -16q-40 0 -65 -20.5t-31 -54.5l-11 -62h198l10 54q14 78 68.5 127.5t153.5 49.5q110 0 168 -40q24 -17 19 -47l-86 -484q-2 -11 4.5 -16.5t13.5 -5.5q18 0 29 -11.5t11 -29.5q0 -24 -18 -41.5t-46 -17.5q-103 0 -103 96 q0 14 3 32zM588 516l-11 -62h177l20 116q-48 16 -90 16q-83 0 -96 -70z"/>
<glyph horiz-adv-x="588" d="M475 130q0 20 -22 34.5t-53 25.5t-62 25t-53 40.5t-22 62.5q0 41 27.5 74.5t60 51t60 41.5t27.5 50q0 22 -17.5 39t-59.5 17t-75 -26t-40 -68l-81 -453q-4 -22 -22 -37t-41 -15q-24 0 -36.5 14.5t-8.5 37.5l79 445q15 87 75.5 141.5t165.5 54.5q78 0 124.5 -40.5 t46.5 -97.5q0 -34 -13 -60t-32.5 -41.5t-42 -30t-42 -24.5t-32.5 -25.5t-13 -33.5q0 -21 33.5 -39.5t73 -32t73 -43.5t33.5 -71q0 -74 -54.5 -115.5t-155.5 -41.5q-58 0 -102.5 24t-62.5 53q-7 11 -7 24q0 20 14 34t34 14q17 0 33 -13q45 -40 108 -40q37 0 59.5 12.5 t22.5 32.5z"/>
</font>
</defs>
</svg>
